<svg width="20" height="20" viewBox="0 0 20 20" fill="none" xmlns="http://www.w3.org/2000/svg">
<mask id="mask0_426_2168" style="mask-type:alpha" maskUnits="userSpaceOnUse" x="0" y="0" width="24" height="24">
<rect width="24" height="24" fill="#D9D9D9"/>
</mask>
<g mask="url(#mask0_426_2168)">
<path d="M9.99996 18.3337C8.52774 18.3337 7.32635 18.101 6.39579 17.6357C5.46524 17.1705 4.99996 16.5698 4.99996 15.8337C4.99996 15.5698 5.05899 15.3267 5.17704 15.1045C5.2951 14.8823 5.47218 14.6739 5.70829 14.4795C5.90274 14.3406 6.11454 14.285 6.34371 14.3128C6.57288 14.3406 6.7569 14.4517 6.89579 14.6462C7.03468 14.8406 7.08676 15.0524 7.05204 15.2816C7.01732 15.5107 6.90274 15.6948 6.70829 15.8337C6.88885 16.0559 7.30551 16.2503 7.95829 16.417C8.61107 16.5837 9.29163 16.667 9.99996 16.667C10.7083 16.667 11.3888 16.5837 12.0416 16.417C12.6944 16.2503 13.1111 16.0559 13.2916 15.8337C13.0972 15.6948 12.9826 15.5107 12.9479 15.2816C12.9132 15.0524 12.9652 14.8406 13.1041 14.6462C13.243 14.4517 13.427 14.3406 13.6562 14.3128C13.8854 14.285 14.0972 14.3406 14.2916 14.4795C14.5277 14.6739 14.7048 14.8823 14.8229 15.1045C14.9409 15.3267 15 15.5698 15 15.8337C15 16.5698 14.5347 17.1705 13.6041 17.6357C12.6736 18.101 11.4722 18.3337 9.99996 18.3337ZM10.0208 13.7503C11.3958 12.7364 12.4305 11.7191 13.125 10.6982C13.8194 9.67741 14.1666 8.6531 14.1666 7.62533C14.1666 6.20866 13.7152 5.13921 12.8125 4.41699C11.9097 3.69477 10.9722 3.33366 9.99996 3.33366C9.02774 3.33366 8.09024 3.69477 7.18746 4.41699C6.28468 5.13921 5.83329 6.20866 5.83329 7.62533C5.83329 8.55588 6.17357 9.52463 6.85413 10.5316C7.53468 11.5385 8.59024 12.6114 10.0208 13.7503ZM9.99996 15.4378C9.83329 15.4378 9.66663 15.41 9.49996 15.3545C9.33329 15.2989 9.18051 15.2156 9.04163 15.1045C7.40274 13.7989 6.18051 12.5246 5.37496 11.2816C4.5694 10.0385 4.16663 8.81977 4.16663 7.62533C4.16663 6.63921 4.34371 5.77463 4.69788 5.03158C5.05204 4.28852 5.5069 3.66699 6.06246 3.16699C6.61801 2.66699 7.24301 2.29199 7.93746 2.04199C8.6319 1.79199 9.3194 1.66699 9.99996 1.66699C10.6805 1.66699 11.368 1.79199 12.0625 2.04199C12.7569 2.29199 13.3819 2.66699 13.9375 3.16699C14.493 3.66699 14.9479 4.28852 15.302 5.03158C15.6562 5.77463 15.8333 6.63921 15.8333 7.62533C15.8333 8.81977 15.4305 10.0385 14.625 11.2816C13.8194 12.5246 12.5972 13.7989 10.9583 15.1045C10.8194 15.2156 10.6666 15.2989 10.5 15.3545C10.3333 15.41 10.1666 15.4378 9.99996 15.4378ZM9.99996 9.16699C10.4583 9.16699 10.8507 9.0038 11.177 8.67741C11.5034 8.35102 11.6666 7.95866 11.6666 7.50033C11.6666 7.04199 11.5034 6.64963 11.177 6.32324C10.8507 5.99685 10.4583 5.83366 9.99996 5.83366C9.54163 5.83366 9.14926 5.99685 8.82288 6.32324C8.49649 6.64963 8.33329 7.04199 8.33329 7.50033C8.33329 7.95866 8.49649 8.35102 8.82288 8.67741C9.14926 9.0038 9.54163 9.16699 9.99996 9.16699Z" fill="#F9FAFB"/>
</g>
</svg>
