<svg width="20" height="20" viewBox="0 0 20 20" fill="none" xmlns="http://www.w3.org/2000/svg">
<path d="M17.9 11.417L11.25 7.50033V2.91699C11.25 2.22533 10.6916 1.66699 9.99996 1.66699C9.30829 1.66699 8.74996 2.22533 8.74996 2.91699V7.50033L2.09996 11.417C1.83329 11.567 1.66663 11.8587 1.66663 12.167C1.66663 12.7503 2.22496 13.167 2.78329 13.0087L8.74996 11.2587V15.8337L6.86663 16.9587C6.74163 17.0337 6.66663 17.1753 6.66663 17.317V17.7337V17.8003C6.66663 18.0753 6.92496 18.2753 7.18329 18.2087L9.61663 17.6003L9.99996 17.5003L10.3166 17.5753L10.6666 17.667L12.25 18.067L12.8083 18.2087C13.075 18.2753 13.325 18.0753 13.325 17.8003V17.492V17.317C13.325 17.167 13.25 17.0337 13.125 16.9587L11.25 15.8337V11.2503L17.2166 13.0003C17.775 13.167 18.3333 12.7503 18.3333 12.167C18.3333 11.8587 18.1666 11.567 17.9 11.417Z" fill="#F9FAFB"/>
</svg>
