<svg width="13" height="13" viewBox="0 0 13 13" fill="none" xmlns="http://www.w3.org/2000/svg">
<g clip-path="url(#clip0_766_3731)">
<path d="M8.09764 7.27016C8.09764 7.10823 8.02824 7.0195 7.92358 6.95617C7.81702 6.89512 7.68847 6.88678 7.51252 6.88678H6.73249V8.3126H7.07416V7.79346H7.43971C7.55992 7.79346 7.63538 7.8056 7.68051 7.85679C7.74156 7.92201 7.73398 8.04829 7.73398 8.13551V8.31146H8.06578V8.03084C8.06578 7.90457 8.0582 7.84124 8.0127 7.76995C7.96801 7.7165 7.91009 7.6757 7.84471 7.65164L7.85419 7.64747C7.94709 7.6122 8.09764 7.4973 8.09764 7.27016ZM7.657 7.47531L7.64297 7.47341C7.59746 7.50109 7.54437 7.50337 7.47498 7.50337H7.06657V7.18521H7.48332C7.54438 7.18521 7.60353 7.18521 7.65131 7.211C7.67517 7.22252 7.69504 7.24092 7.70835 7.26383C7.72167 7.28674 7.72782 7.31311 7.72602 7.33955C7.72602 7.4006 7.70213 7.44762 7.6589 7.47569L7.657 7.47531ZM10.2622 8.00695H9.6065V8.31146H10.2663C10.6076 8.31146 10.7972 8.17077 10.7972 7.86513C10.7972 7.72255 10.7638 7.63761 10.7028 7.57087C10.6258 7.50375 10.5029 7.47189 10.3338 7.46621L10.1438 7.45824C10.0907 7.45824 10.0532 7.45824 10.0138 7.4427C9.99126 7.43565 9.97168 7.42141 9.95805 7.40216C9.94442 7.38291 9.93748 7.35971 9.93831 7.33614C9.93831 7.29063 9.94627 7.25309 9.98381 7.23148C10.026 7.20792 10.074 7.19687 10.1222 7.19962H10.7422V6.89588H10.0608C9.70548 6.89588 9.57692 7.11696 9.57692 7.32059C9.57692 7.77678 9.96827 7.75289 10.2883 7.76085C10.3395 7.76085 10.3789 7.76843 10.4006 7.79005C10.4245 7.80635 10.4419 7.84352 10.4419 7.88106C10.4419 7.9205 10.4241 7.95804 10.4025 7.97207C10.3733 7.99937 10.3278 8.00733 10.2625 8.00733L10.2622 8.00695ZM-0.000327223 0V5.10564L0.408837 4.15573H1.29353L1.40767 4.39084V4.15573H2.44063L2.66777 4.67107L2.88923 4.1599H6.17771C6.32598 4.1599 6.45984 4.1891 6.55882 4.28011V4.16331H7.46322V4.28011C7.6168 4.19327 7.80868 4.16331 8.02786 4.16331H9.34485L9.46771 4.39842V4.16331H10.4373L10.5651 4.39842V4.16142H11.5056V6.1587H10.5515L10.3698 5.8542V6.15036H9.17876L9.05021 5.8322H8.75405L8.61791 6.14202H8.00549C7.76242 6.14202 7.58078 6.09082 7.4583 6.02181V6.14202H5.99645V5.69607C5.99645 5.63502 5.9828 5.63502 5.94526 5.62667H5.89179V6.14998H3.06556V5.90918L2.959 6.14998H2.37047L2.26771 5.90918V6.14391H1.12819L0.999642 5.82803H0.705377L0.577584 6.14391H-0.00146484V12.1342H12.0243V8.53974C11.8882 8.60838 11.7145 8.63037 11.5325 8.63037H10.6618V8.50182C10.5553 8.58487 10.3736 8.63037 10.1996 8.63037H7.4363V8.17646C7.4363 8.11541 7.42606 8.11541 7.37525 8.11541H7.33771V8.63265H6.42723V8.09379C6.27707 8.16319 6.10111 8.1685 5.95701 8.16319H5.85046V8.62544H4.74886L4.47432 8.31298L4.18574 8.61748H2.39626V6.63043H4.22138L4.4838 6.93494L4.76441 6.63043H5.9828C6.125 6.63043 6.35594 6.64674 6.45871 6.74533V6.62285H7.55878C7.66155 6.62285 7.8849 6.64674 8.01687 6.73699V6.61678H9.66604V6.73699C9.74908 6.65394 9.92504 6.61678 10.0729 6.61678H11.0285V6.73699C11.1275 6.66229 11.2636 6.61678 11.4532 6.61678H12.0478V0.000379207L-0.000327223 0ZM10.6963 7.56025C10.6982 7.56442 10.6982 7.56821 10.7005 7.57049C10.7066 7.5739 10.7142 7.5739 10.7183 7.57997L10.6967 7.56214L10.6963 7.56025ZM12.0475 6.61451H12.0812V6.89512H12.0475V6.61451ZM12.0649 7.59969V7.59552C12.0512 7.58376 12.0433 7.57238 12.0274 7.56025C11.9527 7.48327 11.8298 7.45142 11.6421 7.44762L11.4585 7.44194C11.3994 7.44194 11.3619 7.43777 11.3224 7.42639C11.2999 7.41929 11.2804 7.40503 11.2668 7.38579C11.2531 7.36656 11.2462 7.34339 11.247 7.31983C11.247 7.27433 11.2625 7.2383 11.2925 7.21669C11.33 7.19507 11.3672 7.19128 11.4286 7.19128H12.0471L12.0475 6.89512H11.3994C11.0494 6.89512 10.9136 7.1162 10.9136 7.31983C10.9136 7.77374 11.3084 7.75213 11.6265 7.76009C11.68 7.76009 11.7175 7.76578 11.7392 7.78929C11.7631 7.8056 11.7786 7.84276 11.7786 7.8803C11.7783 7.89791 11.7741 7.91523 11.7662 7.93098C11.7583 7.94674 11.747 7.96052 11.7331 7.97131C11.7092 7.99861 11.6637 8.00658 11.597 8.00658H10.9447V8.3126H11.5951C11.8078 8.3126 11.9663 8.25344 12.0513 8.13096H12.0649C12.1104 8.06156 12.1343 7.97889 12.1343 7.86665C12.1343 7.74379 12.1104 7.66908 12.0649 7.59969ZM9.40287 7.18332V6.88905H8.27283V8.32094H9.40287V8.02478H8.60843V7.73848H9.38315V7.44232H8.60843V7.18559L9.40287 7.18332ZM6.83147 4.44165H7.17692V5.86595H6.83147V4.44165ZM6.6358 4.82503L6.63162 4.8292C6.63162 4.6688 6.5664 4.57627 6.45984 4.51332C6.35101 4.44999 6.22322 4.44393 6.05144 4.44393H5.2733V5.86974H5.61459V5.34644H5.97825C6.09846 5.34644 6.17582 5.36199 6.22511 5.40749C6.28692 5.47689 6.27858 5.59899 6.27858 5.68393V5.86406H6.62025V5.58534C6.62025 5.45906 6.61228 5.39574 6.5645 5.32255C6.51989 5.27003 6.46295 5.22938 6.39879 5.20424C6.47183 5.17195 6.5336 5.11864 6.57622 5.0511C6.61884 4.98356 6.64037 4.90486 6.63807 4.82503H6.6358ZM6.2035 5.02487H6.19743C6.15003 5.05217 6.09846 5.05407 6.02944 5.05407H5.61269V4.73819H6.02944C6.0905 4.73819 6.14965 4.74009 6.19516 4.76398C6.24066 4.7837 6.27214 4.8292 6.27214 4.89025C6.27214 4.95131 6.24825 5.00098 6.2035 5.02487ZM8.04986 4.73819H8.36801V4.43596H8.04189C7.80868 4.43596 7.6369 4.48943 7.52655 4.60243C7.38245 4.75412 7.34453 4.95168 7.34453 5.16518C7.34453 5.42418 7.40559 5.58572 7.52655 5.70631C7.64297 5.82651 7.85229 5.86444 8.01611 5.86444H8.41162L8.54017 5.54628H9.24284L9.37519 5.86444H10.0623V4.79773L10.7066 5.86444H11.1886V4.44203H10.8408V5.43555L10.2447 4.44393H9.72899V5.76319L9.156 4.42042H8.64825L8.17234 5.54439H8.02028C7.93192 5.54439 7.83674 5.52884 7.78365 5.47499C7.72033 5.40029 7.69075 5.29335 7.69075 5.14129C7.69075 4.99719 7.73019 4.88229 7.78745 4.82313C7.85457 4.75374 7.92586 4.73819 8.04834 4.73819H8.04986ZM8.89321 4.6851L9.12643 5.24974V5.25164H8.65621L8.89321 4.6851ZM1.20252 5.5459L1.33107 5.86406H2.02236V4.75033L2.51419 5.86406H2.80846L3.29991 4.75033L3.30787 5.86406H3.65712V4.44393H3.09249L2.6856 5.4056L2.24154 4.44203H1.69056V5.78897L1.11378 4.44203H0.610196L0.0061193 5.86444H0.36902L0.499468 5.54856H1.2029L1.20252 5.5459ZM0.854785 4.6851L1.088 5.24974L1.0861 5.25164H0.623847L0.854785 4.6851ZM5.9938 6.88678H4.91192L4.48114 7.35282L4.06439 6.88678H2.7038V8.3126H4.04467L4.47697 7.84086L4.8941 8.31108H5.55126V7.83669H5.97598C6.2782 7.83669 6.5664 7.75364 6.5664 7.35889L6.5645 7.35699C6.5645 6.96224 6.26266 6.88678 5.9938 6.88678ZM3.87858 8.01492H3.04319V7.73241H3.7853V7.44232H3.04319V7.18559H3.89223L4.26386 7.60007L3.87669 8.01681L3.87858 8.01492ZM5.21339 8.18291L4.69198 7.60196L5.21339 7.04339V8.18291ZM5.99759 7.5466H5.55126V7.18294H5.99759C6.12007 7.18294 6.21108 7.23261 6.21108 7.35699C6.21108 7.48137 6.13638 7.5466 5.99759 7.5466ZM5.04009 4.73819V4.44203H3.90816V5.86633H5.04009V5.57207H4.24565V5.28728H5.0181V4.99491H4.24565V4.73819H5.04009Z" fill="#2563EB"/>
</g>
<defs>
<clipPath id="clip0_766_3731">
<rect width="12.1346" height="12.1346" fill="white"/>
</clipPath>
</defs>
</svg>
