<svg width="18" height="13" viewBox="0 0 18 13" fill="none" xmlns="http://www.w3.org/2000/svg">
<g clip-path="url(#clip0_253_1478)">
<path d="M1.93079 0.351375L1.5969 0.353582C1.48659 0.357259 1.37407 0.363142 1.26449 0.382999C1.09888 0.40917 0.941857 0.474286 0.80633 0.57299C0.670804 0.671694 0.560649 0.801165 0.484929 0.950752C0.433449 1.05224 0.40109 1.1552 0.381968 1.26699C0.361376 1.37583 0.354757 1.48762 0.352551 1.59793L0.349609 1.75164V10.251C0.349609 10.302 0.350345 10.3528 0.351816 10.4033C0.354757 10.5136 0.361376 10.6261 0.381233 10.7357C0.400354 10.8455 0.435165 10.9507 0.485664 11.0512C0.587243 11.2507 0.74945 11.4129 0.948986 11.5145C1.05048 11.566 1.15344 11.5991 1.26522 11.6189C1.37407 11.6388 1.48585 11.6454 1.59617 11.6483L1.74914 11.6505H16.6004L16.7527 11.6483C16.863 11.6454 16.9755 11.6388 17.0851 11.6189C17.1947 11.5991 17.2991 11.5667 17.3999 11.5152C17.6001 11.414 17.7627 11.2514 17.8639 11.0512C17.9154 10.9497 17.9485 10.8467 17.9676 10.7349C17.9875 10.6261 17.9941 10.5143 17.997 10.404C17.9985 10.353 17.9992 10.302 17.9992 10.251L18 10.0701V1.7509C18 1.69991 17.999 1.64917 17.997 1.59867C17.9956 1.48728 17.9858 1.37616 17.9676 1.26625C17.932 1.04496 17.8276 0.840516 17.6691 0.681959C17.5107 0.523403 17.3064 0.418796 17.0851 0.382999C16.9752 0.364815 16.8641 0.354982 16.7527 0.353582C16.6417 0.35056 16.5306 0.349824 16.4195 0.351375H1.93079ZM1.93079 0.727916H16.5968C16.6448 0.727916 16.6931 0.728652 16.7416 0.730123C16.8262 0.733065 16.9255 0.737477 17.0174 0.753656C17.0976 0.768365 17.1645 0.790428 17.2285 0.822787C17.3574 0.888398 17.4622 0.993193 17.5278 1.12211C17.5615 1.18879 17.5848 1.26021 17.597 1.33391C17.6131 1.42437 17.6175 1.52365 17.6198 1.60896C17.6212 1.65652 17.622 1.70481 17.622 1.75384V10.2495C17.622 10.2971 17.6212 10.3452 17.6198 10.3937C17.6175 10.4783 17.6131 10.5776 17.5962 10.6695C17.5801 10.7776 17.5383 10.8804 17.4744 10.969C17.4104 11.0577 17.3261 11.1298 17.2285 11.1791C17.1623 11.2127 17.0914 11.236 17.0182 11.2483C16.9273 11.2618 16.8357 11.2697 16.7439 11.2718L16.5968 11.274H1.75134C1.70231 11.274 1.65427 11.2733 1.6072 11.2718C1.51487 11.2697 1.42276 11.2619 1.33141 11.2483C1.25125 11.2336 1.18432 11.2115 1.11961 11.1791C0.990032 11.1147 0.885151 11.0095 0.821021 10.8798C0.787355 10.8131 0.764044 10.7417 0.75189 10.668C0.737201 10.5773 0.729334 10.4856 0.728357 10.3937L0.726886 10.2488V1.75311L0.728357 1.60823C0.731298 1.52439 0.735711 1.42584 0.75189 1.33244C0.766599 1.25301 0.788662 1.18609 0.821021 1.12137C0.886757 0.99273 0.991538 0.888207 1.12034 0.822787C1.18679 0.789191 1.25796 0.765882 1.33141 0.753656C1.42334 0.737477 1.52262 0.732329 1.6072 0.730123L1.75134 0.727916H1.93079ZM5.39467 3.44901C5.17404 3.46078 4.9034 3.59536 4.74749 3.78437C4.60702 3.94617 4.48274 4.21092 4.51509 4.4595C4.76367 4.48156 5.01151 4.33521 5.16816 4.15209C5.31892 3.96234 5.42188 3.70862 5.39467 3.44975V3.44901ZM7.01777 3.75789V7.79762H7.64436V6.41722H8.51217C9.30496 6.41722 9.86168 5.87373 9.86168 5.08461C9.86168 4.2977 9.31599 3.75716 8.53202 3.75716L7.01777 3.75789ZM7.64436 4.28667H8.36655C8.91003 4.28667 9.22039 4.5779 9.22039 5.08756C9.22039 5.59647 8.91003 5.89065 8.36434 5.89065H7.64436V4.28667ZM5.3248 4.5073C4.99386 4.51465 4.7144 4.71322 4.5526 4.71322C4.37978 4.71322 4.11649 4.51907 3.83114 4.52421C3.64559 4.52914 3.46454 4.58241 3.30589 4.67876C3.14724 4.77511 3.01649 4.9112 2.92656 5.07358C2.53899 5.74135 2.82434 6.73198 3.20161 7.2762C3.38474 7.54537 3.60537 7.84175 3.89586 7.83072C4.17018 7.82042 4.27829 7.65274 4.61144 7.65274C4.94532 7.65274 5.0424 7.83072 5.33216 7.82557C5.63369 7.82042 5.82269 7.5564 6.00508 7.2865C6.21541 6.97982 6.30146 6.68344 6.30661 6.668C6.30146 6.66211 5.72562 6.44148 5.72047 5.77886C5.71458 5.22435 6.17276 4.96033 6.19409 4.94415C5.93521 4.56172 5.5322 4.51907 5.39246 4.50804L5.3248 4.5073ZM11.3583 4.79927C10.6302 4.79927 10.1772 5.19125 10.1434 5.72297H10.7148C10.7677 5.45968 10.9862 5.29201 11.3362 5.29201C11.7054 5.29201 11.9268 5.48763 11.9268 5.8149V6.04215L11.12 6.08921C10.4206 6.12893 10.0257 6.44516 10.0257 6.95996C10.0257 7.48947 10.4287 7.84763 11.0053 7.84763C11.3921 7.84763 11.7642 7.64097 11.9349 7.31297H11.9488V7.79762H12.5284V5.76783C12.5284 5.17728 12.0724 4.79927 11.3583 4.79927ZM12.785 4.85222L13.8485 7.80056C13.8485 7.80277 13.7948 7.97707 13.7948 7.98221C13.7028 8.28374 13.5521 8.40215 13.2719 8.40215C13.2211 8.40215 13.1204 8.40215 13.0755 8.39111V8.88091C13.1196 8.889 13.2719 8.89489 13.3219 8.89489C13.9323 8.89489 14.2235 8.66543 14.475 7.95133L15.5782 4.85222H14.9398L14.1956 7.24899H14.1846L13.4396 4.85148L12.785 4.85222ZM11.9268 6.46208V6.69447C11.9268 7.07763 11.5958 7.36886 11.1737 7.36886C10.8486 7.36886 10.6361 7.20119 10.6361 6.94305C10.6361 6.69153 10.8405 6.53121 11.2016 6.50694L11.9268 6.46208Z" fill="black"/>
</g>
<defs>
<clipPath id="clip0_253_1478">
<rect width="17.6504" height="12.1346" fill="white" transform="translate(0.349609)"/>
</clipPath>
</defs>
</svg>
