<svg width="9" height="16" viewBox="0 0 9 16" fill="none" xmlns="http://www.w3.org/2000/svg">
<path d="M6.3376 8.00021L0.825098 13.5127C0.637598 13.7002 0.546973 13.919 0.553223 14.169C0.559473 14.419 0.656347 14.6377 0.843847 14.8252C1.03135 15.0127 1.2501 15.1065 1.5001 15.1065C1.7501 15.1065 1.96885 15.0127 2.15635 14.8252L7.93135 9.06896C8.08135 8.91896 8.19385 8.75021 8.26885 8.56271C8.34385 8.37521 8.38135 8.18771 8.38135 8.00021C8.38135 7.81271 8.34385 7.62521 8.26885 7.43771C8.19385 7.25021 8.08135 7.08146 7.93135 6.93146L2.15635 1.15645C1.96885 0.968955 1.74697 0.87833 1.49072 0.88458C1.23447 0.89083 1.0126 0.987705 0.825098 1.1752C0.637598 1.3627 0.543848 1.58145 0.543848 1.83145C0.543848 2.08145 0.637598 2.3002 0.825098 2.4877L6.3376 8.00021Z" fill="#111827"/>
</svg>
