<svg width="20" height="20" viewBox="0 0 20 20" fill="none" xmlns="http://www.w3.org/2000/svg">
<mask id="mask0_426_1629" style="mask-type:alpha" maskUnits="userSpaceOnUse" x="0" y="0" width="20" height="20">
<rect width="20" height="20" fill="#D9D9D9"/>
</mask>
<g mask="url(#mask0_426_1629)">
<path d="M2.95833 10.0003L9.08333 16.1253C9.29167 16.3337 9.39236 16.5767 9.38542 16.8545C9.37847 17.1323 9.27083 17.3753 9.0625 17.5837C8.85417 17.792 8.61111 17.8962 8.33333 17.8962C8.05556 17.8962 7.8125 17.792 7.60417 17.5837L1.1875 11.1878C1.02083 11.0212 0.895833 10.8337 0.8125 10.6253C0.729167 10.417 0.6875 10.2087 0.6875 10.0003C0.6875 9.792 0.729167 9.58367 0.8125 9.37534C0.895833 9.167 1.02083 8.9795 1.1875 8.81284L7.60417 2.39617C7.8125 2.18784 8.05903 2.08714 8.34375 2.09409C8.62847 2.10103 8.875 2.20867 9.08333 2.417C9.29167 2.62534 9.39583 2.86839 9.39583 3.14617C9.39583 3.42395 9.29167 3.667 9.08333 3.87534L2.95833 10.0003Z" fill="#1C1B1F"/>
</g>
</svg>
