<svg width="20" height="20" viewBox="0 0 20 20" fill="none" xmlns="http://www.w3.org/2000/svg">
<path d="M3.33337 14.9993C3.33337 14.1153 3.68456 13.2674 4.30968 12.6423C4.93481 12.0172 5.78265 11.666 6.66671 11.666H13.3334C14.2174 11.666 15.0653 12.0172 15.6904 12.6423C16.3155 13.2674 16.6667 14.1153 16.6667 14.9993C16.6667 15.4414 16.4911 15.8653 16.1786 16.1779C15.866 16.4904 15.4421 16.666 15 16.666H5.00004C4.55801 16.666 4.13409 16.4904 3.82153 16.1779C3.50897 15.8653 3.33337 15.4414 3.33337 14.9993Z" stroke="#111827" stroke-width="2" stroke-linejoin="round"/>
<path d="M10 8.33301C11.3807 8.33301 12.5 7.21372 12.5 5.83301C12.5 4.4523 11.3807 3.33301 10 3.33301C8.61929 3.33301 7.5 4.4523 7.5 5.83301C7.5 7.21372 8.61929 8.33301 10 8.33301Z" stroke="#111827" stroke-width="2"/>
</svg>
