<svg width="20" height="20" viewBox="0 0 20 20" fill="none" xmlns="http://www.w3.org/2000/svg">
<mask id="mask0_645_1554" style="mask-type:alpha" maskUnits="userSpaceOnUse" x="0" y="0" width="24" height="24">
<rect width="24" height="24" fill="#D9D9D9"/>
</mask>
<g mask="url(#mask0_645_1554)">
<path d="M4.16671 15.8337C3.9306 15.8337 3.73268 15.7538 3.57296 15.5941C3.41324 15.4344 3.33337 15.2364 3.33337 15.0003C3.33337 14.7642 3.41324 14.5663 3.57296 14.4066C3.73268 14.2469 3.9306 14.167 4.16671 14.167H5.00004V8.33366C5.00004 7.18088 5.34726 6.15658 6.04171 5.26074C6.73615 4.36491 7.63893 3.7781 8.75004 3.50033V2.91699C8.75004 2.56977 8.87157 2.27463 9.11462 2.03158C9.35768 1.78852 9.65282 1.66699 10 1.66699C10.3473 1.66699 10.6424 1.78852 10.8855 2.03158C11.1285 2.27463 11.25 2.56977 11.25 2.91699V3.50033C12.3612 3.7781 13.2639 4.36491 13.9584 5.26074C14.6528 6.15658 15 7.18088 15 8.33366V14.167H15.8334C16.0695 14.167 16.2674 14.2469 16.4271 14.4066C16.5868 14.5663 16.6667 14.7642 16.6667 15.0003C16.6667 15.2364 16.5868 15.4344 16.4271 15.5941C16.2674 15.7538 16.0695 15.8337 15.8334 15.8337H4.16671ZM10 18.3337C9.54171 18.3337 9.14935 18.1705 8.82296 17.8441C8.49657 17.5177 8.33337 17.1253 8.33337 16.667H11.6667C11.6667 17.1253 11.5035 17.5177 11.1771 17.8441C10.8507 18.1705 10.4584 18.3337 10 18.3337ZM6.66671 14.167H13.3334V8.33366C13.3334 7.41699 13.007 6.63227 12.3542 5.97949C11.7014 5.32671 10.9167 5.00033 10 5.00033C9.08337 5.00033 8.29865 5.32671 7.64587 5.97949C6.9931 6.63227 6.66671 7.41699 6.66671 8.33366V14.167Z" fill="#111827"/>
</g>
</svg>
