<svg width="20" height="20" viewBox="0 0 20 20" fill="none" xmlns="http://www.w3.org/2000/svg">
<path d="M10 10.625V10.2083M13.3333 10.625V10.2083M6.66667 10.625V10.2083M10 17.5C11.4834 17.5 12.9334 17.0601 14.1668 16.236C15.4001 15.4119 16.3614 14.2406 16.9291 12.8701C17.4968 11.4997 17.6453 9.99168 17.3559 8.53683C17.0665 7.08197 16.3522 5.7456 15.3033 4.6967C14.2544 3.64781 12.918 2.9335 11.4632 2.64411C10.0083 2.35472 8.50032 2.50325 7.12987 3.07091C5.75943 3.63856 4.58809 4.59986 3.76398 5.83323C2.93987 7.0666 2.5 8.51664 2.5 10C2.5 11.2 2.78167 12.3333 3.28333 13.3392C3.66083 14.0983 3.13583 15.1225 2.93583 15.87C2.89152 16.0353 2.89152 16.2094 2.93581 16.3747C2.98011 16.5401 3.06714 16.6908 3.18817 16.8118C3.30919 16.9329 3.45995 17.0199 3.62528 17.0642C3.7906 17.1085 3.96468 17.1085 4.13 17.0642C4.8775 16.8642 5.90167 16.3392 6.66083 16.7175C7.69851 17.2327 8.84145 17.5006 10 17.5Z" stroke="#111827" stroke-width="2" stroke-linecap="round" stroke-linejoin="round"/>
</svg>
