<svg width="20" height="20" viewBox="0 0 20 20" fill="none" xmlns="http://www.w3.org/2000/svg">
<mask id="mask0_645_1538" style="mask-type:alpha" maskUnits="userSpaceOnUse" x="0" y="0" width="24" height="24">
<rect width="24" height="24" fill="#D9D9D9"/>
</mask>
<g mask="url(#mask0_645_1538)">
<path d="M5.00004 12.7712C5.19449 12.6739 5.39587 12.6045 5.60421 12.5628C5.81254 12.5212 6.02782 12.5003 6.25004 12.5003H6.66671V3.33366H6.25004C5.90282 3.33366 5.60768 3.45519 5.36462 3.69824C5.12157 3.9413 5.00004 4.23644 5.00004 4.58366V12.7712ZM8.33337 12.5003H15V3.33366H8.33337V12.5003ZM6.25004 18.3337C5.44448 18.3337 4.75699 18.0489 4.18754 17.4795C3.6181 16.91 3.33337 16.2225 3.33337 15.417V4.58366C3.33337 3.7781 3.6181 3.0906 4.18754 2.52116C4.75699 1.95171 5.44448 1.66699 6.25004 1.66699H15C15.4584 1.66699 15.8507 1.83019 16.1771 2.15658C16.5035 2.48296 16.6667 2.87533 16.6667 3.33366V13.7712C16.6667 13.8823 16.6216 13.983 16.5313 14.0732C16.441 14.1635 16.2778 14.2642 16.0417 14.3753C15.8473 14.4725 15.6945 14.6114 15.5834 14.792C15.4723 14.9725 15.4167 15.1809 15.4167 15.417C15.4167 15.6531 15.4723 15.8649 15.5834 16.0524C15.6945 16.2399 15.8473 16.3753 16.0417 16.4587C16.2362 16.542 16.3889 16.6566 16.5 16.8024C16.6112 16.9482 16.6667 17.1045 16.6667 17.2712V17.4795C16.6667 17.7156 16.5868 17.917 16.4271 18.0837C16.2674 18.2503 16.0695 18.3337 15.8334 18.3337H6.25004ZM6.25004 16.667H14.0209C13.9375 16.4725 13.8716 16.2746 13.823 16.0732C13.7743 15.8719 13.75 15.6531 13.75 15.417C13.75 15.1948 13.7709 14.9795 13.8125 14.7712C13.8542 14.5628 13.9237 14.3614 14.0209 14.167H6.25004C5.88893 14.167 5.59032 14.2885 5.35421 14.5316C5.1181 14.7746 5.00004 15.0698 5.00004 15.417C5.00004 15.7781 5.1181 16.0767 5.35421 16.3128C5.59032 16.5489 5.88893 16.667 6.25004 16.667Z" fill="#111827"/>
</g>
</svg>
