<svg width="368" height="218" viewBox="0 0 368 218" fill="none" xmlns="http://www.w3.org/2000/svg">
<g filter="url(#filter0_d_808_2871)">
<rect x="7" y="7" width="354" height="203.232" rx="15" fill="white"/>
</g>
<path d="M24.7584 72.7361C24.9798 72.7378 25.1979 72.7782 25.4128 72.8573C25.6277 72.9365 25.8216 73.0658 25.9945 73.2451C26.169 73.4245 26.3079 73.6668 26.4114 73.9722C26.5164 74.276 26.5697 74.654 26.5713 75.1064C26.5713 75.5411 26.5277 75.9281 26.4404 76.2674C26.3532 76.605 26.228 76.8902 26.0648 77.1229C25.9032 77.3556 25.7069 77.5325 25.4758 77.6537C25.2448 77.7748 24.9846 77.8354 24.6954 77.8354C24.3997 77.8354 24.1372 77.7773 23.9078 77.6609C23.6783 77.5446 23.4917 77.3838 23.3479 77.1786C23.2041 76.9718 23.1144 76.7343 23.0789 76.4661H23.8181C23.8666 76.6794 23.9651 76.8523 24.1138 76.9847C24.264 77.1156 24.4579 77.1811 24.6954 77.1811C25.059 77.1811 25.3425 77.0227 25.5461 76.706C25.7497 76.3877 25.8523 75.9434 25.8539 75.373H25.8151C25.7311 75.512 25.6261 75.6316 25.5001 75.7317C25.3757 75.8319 25.2359 75.9095 25.0808 75.9644C24.9257 76.0193 24.7601 76.0468 24.5839 76.0468C24.298 76.0468 24.0378 75.9765 23.8035 75.836C23.5693 75.6954 23.3826 75.5023 23.2437 75.2567C23.1047 75.0111 23.0353 74.7308 23.0353 74.4157C23.0353 74.1023 23.1063 73.8179 23.2485 73.5626C23.3923 73.3073 23.5927 73.1053 23.8496 72.9567C24.1081 72.8064 24.4111 72.7329 24.7584 72.7361ZM24.7609 73.3663C24.5718 73.3663 24.4014 73.4131 24.2495 73.5069C24.0992 73.599 23.9805 73.7242 23.8932 73.8825C23.806 74.0392 23.7623 74.2137 23.7623 74.406C23.7623 74.5983 23.8043 74.7728 23.8884 74.9295C23.974 75.0846 24.0903 75.2082 24.2374 75.3003C24.386 75.3908 24.5557 75.4361 24.7463 75.4361C24.8885 75.4361 25.021 75.4086 25.1438 75.3537C25.2666 75.2987 25.374 75.2228 25.4661 75.1258C25.5582 75.0273 25.6301 74.9158 25.6818 74.7914C25.7335 74.667 25.7594 74.5361 25.7594 74.3987C25.7594 74.2162 25.7158 74.0465 25.6285 73.8898C25.5429 73.7331 25.4249 73.607 25.2747 73.5117C25.1244 73.4148 24.9531 73.3663 24.7609 73.3663ZM29.1749 77.85C28.792 77.8484 28.4648 77.7474 28.1933 77.547C27.9219 77.3467 27.7142 77.055 27.5704 76.6721C27.4266 76.2892 27.3547 75.8279 27.3547 75.2882C27.3547 74.7502 27.4266 74.2905 27.5704 73.9092C27.7159 73.5279 27.9243 73.237 28.1957 73.0367C28.4688 72.8363 28.7952 72.7361 29.1749 72.7361C29.5546 72.7361 29.8802 72.8371 30.1516 73.0391C30.423 73.2395 30.6307 73.5303 30.7745 73.9116C30.9199 74.2913 30.9926 74.7502 30.9926 75.2882C30.9926 75.8295 30.9207 76.2916 30.7769 76.6745C30.6331 77.0558 30.4255 77.3475 30.154 77.5495C29.8826 77.7498 29.5562 77.85 29.1749 77.85ZM29.1749 77.2029C29.511 77.2029 29.7735 77.0389 29.9626 76.7109C30.1532 76.3829 30.2485 75.9087 30.2485 75.2882C30.2485 74.8762 30.2049 74.528 30.1177 74.2436C30.032 73.9577 29.9084 73.7411 29.7469 73.5941C29.5869 73.4455 29.3962 73.3711 29.1749 73.3711C28.8404 73.3711 28.5779 73.5359 28.3872 73.8656C28.1965 74.1952 28.1004 74.6694 28.0988 75.2882C28.0988 75.7018 28.1416 76.0517 28.2272 76.3376C28.3145 76.622 28.4381 76.8377 28.5981 76.9847C28.758 77.1302 28.9503 77.2029 29.1749 77.2029ZM33.5804 77.85C33.1975 77.8484 32.8703 77.7474 32.5988 77.547C32.3274 77.3467 32.1198 77.055 31.976 76.6721C31.8322 76.2892 31.7603 75.8279 31.7603 75.2882C31.7603 74.7502 31.8322 74.2905 31.976 73.9092C32.1214 73.5279 32.3298 73.237 32.6013 73.0367C32.8743 72.8363 33.2007 72.7361 33.5804 72.7361C33.9601 72.7361 34.2857 72.8371 34.5571 73.0391C34.8286 73.2395 35.0362 73.5303 35.18 73.9116C35.3254 74.2913 35.3981 74.7502 35.3981 75.2882C35.3981 75.8295 35.3262 76.2916 35.1824 76.6745C35.0386 77.0558 34.831 77.3475 34.5596 77.5495C34.2881 77.7498 33.9617 77.85 33.5804 77.85ZM33.5804 77.2029C33.9165 77.2029 34.179 77.0389 34.3681 76.7109C34.5587 76.3829 34.6541 75.9087 34.6541 75.2882C34.6541 74.8762 34.6105 74.528 34.5232 74.2436C34.4376 73.9577 34.314 73.7411 34.1524 73.5941C33.9924 73.4455 33.8018 73.3711 33.5804 73.3711C33.246 73.3711 32.9834 73.5359 32.7927 73.8656C32.6021 74.1952 32.5059 74.6694 32.5043 75.2882C32.5043 75.7018 32.5471 76.0517 32.6328 76.3376C32.72 76.622 32.8436 76.8377 33.0036 76.9847C33.1636 77.1302 33.3558 77.2029 33.5804 77.2029Z" fill="#111827" fill-opacity="0.4"/>
<line x1="45.365" y1="76.3731" x2="349.241" y2="76.3731" stroke="#697C8C" stroke-opacity="0.1" stroke-width="0.682491" stroke-dasharray="1.36 1.36"/>
<path d="M24.8118 109.835C24.4644 109.835 24.1574 109.776 23.8908 109.656C23.6258 109.537 23.4182 109.372 23.2679 109.162C23.1177 108.952 23.0433 108.712 23.0449 108.444C23.0433 108.234 23.0861 108.041 23.1734 107.865C23.2623 107.687 23.3826 107.539 23.5345 107.422C23.6864 107.302 23.8561 107.226 24.0435 107.194V107.165C23.7963 107.105 23.5983 106.972 23.4497 106.767C23.301 106.562 23.2275 106.326 23.2291 106.059C23.2275 105.806 23.2946 105.58 23.4303 105.381C23.5676 105.18 23.7559 105.023 23.995 104.908C24.2341 104.794 24.5064 104.736 24.8118 104.736C25.1139 104.736 25.3837 104.794 25.6213 104.911C25.8604 105.025 26.0486 105.183 26.186 105.383C26.3233 105.582 26.3928 105.807 26.3944 106.059C26.3928 106.326 26.3168 106.562 26.1666 106.767C26.0163 106.972 25.8208 107.105 25.5801 107.165V107.194C25.7659 107.226 25.9331 107.302 26.0817 107.422C26.232 107.539 26.3516 107.687 26.4404 107.865C26.5309 108.041 26.577 108.234 26.5786 108.444C26.577 108.712 26.501 108.952 26.3508 109.162C26.2005 109.372 25.9921 109.537 25.7255 109.656C25.4605 109.776 25.1559 109.835 24.8118 109.835ZM24.8118 109.222C25.017 109.222 25.1947 109.188 25.345 109.12C25.4952 109.051 25.6116 108.955 25.694 108.832C25.7764 108.708 25.8184 108.562 25.82 108.396C25.8184 108.223 25.7731 108.07 25.6843 107.938C25.597 107.805 25.4783 107.701 25.328 107.625C25.1777 107.549 25.0057 107.511 24.8118 107.511C24.6163 107.511 24.4426 107.549 24.2907 107.625C24.1388 107.701 24.0192 107.805 23.932 107.938C23.8447 108.07 23.8019 108.223 23.8035 108.396C23.8019 108.562 23.8415 108.708 23.9223 108.832C24.0047 108.955 24.1218 109.051 24.2737 109.12C24.4256 109.188 24.6049 109.222 24.8118 109.222ZM24.8118 106.913C24.9766 106.913 25.1228 106.879 25.2504 106.813C25.3781 106.747 25.4783 106.655 25.551 106.537C25.6253 106.419 25.6633 106.281 25.6649 106.122C25.6633 105.967 25.6261 105.832 25.5534 105.715C25.4823 105.599 25.3829 105.509 25.2553 105.446C25.1276 105.382 24.9798 105.349 24.8118 105.349C24.6405 105.349 24.4902 105.382 24.361 105.446C24.2333 105.509 24.134 105.599 24.0629 105.715C23.9918 105.832 23.957 105.967 23.9587 106.122C23.957 106.281 23.9926 106.419 24.0653 106.537C24.138 106.655 24.2382 106.747 24.3658 106.813C24.4951 106.879 24.6437 106.913 24.8118 106.913ZM29.1749 109.85C28.792 109.848 28.4648 109.747 28.1933 109.547C27.9219 109.347 27.7142 109.055 27.5704 108.672C27.4266 108.289 27.3547 107.828 27.3547 107.288C27.3547 106.75 27.4266 106.29 27.5704 105.909C27.7159 105.528 27.9243 105.237 28.1957 105.037C28.4688 104.836 28.7952 104.736 29.1749 104.736C29.5546 104.736 29.8802 104.837 30.1516 105.039C30.423 105.239 30.6307 105.53 30.7745 105.912C30.9199 106.291 30.9926 106.75 30.9926 107.288C30.9926 107.829 30.9207 108.292 30.7769 108.675C30.6331 109.056 30.4255 109.347 30.154 109.549C29.8826 109.75 29.5562 109.85 29.1749 109.85ZM29.1749 109.203C29.511 109.203 29.7735 109.039 29.9626 108.711C30.1532 108.383 30.2485 107.909 30.2485 107.288C30.2485 106.876 30.2049 106.528 30.1177 106.244C30.032 105.958 29.9084 105.741 29.7469 105.594C29.5869 105.445 29.3962 105.371 29.1749 105.371C28.8404 105.371 28.5779 105.536 28.3872 105.866C28.1965 106.195 28.1004 106.669 28.0988 107.288C28.0988 107.702 28.1416 108.052 28.2272 108.338C28.3145 108.622 28.4381 108.838 28.5981 108.985C28.758 109.13 28.9503 109.203 29.1749 109.203ZM33.5804 109.85C33.1975 109.848 32.8703 109.747 32.5988 109.547C32.3274 109.347 32.1198 109.055 31.976 108.672C31.8322 108.289 31.7603 107.828 31.7603 107.288C31.7603 106.75 31.8322 106.29 31.976 105.909C32.1214 105.528 32.3298 105.237 32.6013 105.037C32.8743 104.836 33.2007 104.736 33.5804 104.736C33.9601 104.736 34.2857 104.837 34.5571 105.039C34.8286 105.239 35.0362 105.53 35.18 105.912C35.3254 106.291 35.3981 106.75 35.3981 107.288C35.3981 107.829 35.3262 108.292 35.1824 108.675C35.0386 109.056 34.831 109.347 34.5596 109.549C34.2881 109.75 33.9617 109.85 33.5804 109.85ZM33.5804 109.203C33.9165 109.203 34.179 109.039 34.3681 108.711C34.5587 108.383 34.6541 107.909 34.6541 107.288C34.6541 106.876 34.6105 106.528 34.5232 106.244C34.4376 105.958 34.314 105.741 34.1524 105.594C33.9924 105.445 33.8018 105.371 33.5804 105.371C33.246 105.371 32.9834 105.536 32.7927 105.866C32.6021 106.195 32.5059 106.669 32.5043 107.288C32.5043 107.702 32.5471 108.052 32.6328 108.338C32.72 108.622 32.8436 108.838 33.0036 108.985C33.1636 109.13 33.3558 109.203 33.5804 109.203Z" fill="#111827" fill-opacity="0.4"/>
<line x1="45.365" y1="108.709" x2="349.241" y2="108.709" stroke="#697C8C" stroke-opacity="0.1" stroke-width="0.682491" stroke-dasharray="1.36 1.36"/>
<path d="M24.8408 141.835C24.6195 141.832 24.4014 141.792 24.1865 141.714C23.9732 141.637 23.7793 141.507 23.6048 141.326C23.4303 141.146 23.2905 140.902 23.1855 140.597C23.0821 140.292 23.0304 139.91 23.0304 139.453C23.0304 139.02 23.0732 138.635 23.1589 138.299C23.2461 137.963 23.3713 137.68 23.5345 137.449C23.6977 137.216 23.8948 137.039 24.1259 136.918C24.3569 136.797 24.6163 136.736 24.9039 136.736C25.1995 136.736 25.4621 136.794 25.6915 136.911C25.921 137.027 26.1068 137.188 26.249 137.393C26.3928 137.598 26.4841 137.832 26.5228 138.093H25.7836C25.7335 137.887 25.6342 137.718 25.4855 137.587C25.3369 137.456 25.143 137.391 24.9039 137.391C24.5403 137.391 24.2568 137.549 24.0532 137.866C23.8512 138.182 23.7494 138.623 23.7478 139.186H23.7842C23.8698 139.046 23.9748 138.926 24.0992 138.828C24.2252 138.728 24.3658 138.651 24.5209 138.597C24.6777 138.543 24.8425 138.515 25.0153 138.515C25.303 138.515 25.5631 138.585 25.7958 138.726C26.03 138.865 26.2167 139.057 26.3556 139.303C26.4946 139.548 26.564 139.829 26.564 140.146C26.564 140.463 26.4921 140.75 26.3483 141.007C26.2062 141.263 26.0058 141.467 25.7473 141.617C25.4888 141.766 25.1866 141.839 24.8408 141.835ZM24.8384 141.205C25.0291 141.205 25.1995 141.158 25.3498 141.065C25.5001 140.971 25.6188 140.845 25.7061 140.687C25.7933 140.528 25.837 140.351 25.837 140.156C25.837 139.965 25.7941 139.792 25.7085 139.635C25.6245 139.478 25.5082 139.354 25.3595 139.262C25.2125 139.169 25.0444 139.123 24.8554 139.123C24.7116 139.123 24.5783 139.151 24.4555 139.206C24.3343 139.261 24.2277 139.337 24.1356 139.434C24.0435 139.531 23.9708 139.642 23.9174 139.768C23.8657 139.893 23.8399 140.024 23.8399 140.163C23.8399 140.349 23.8827 140.521 23.9683 140.679C24.0556 140.838 24.1744 140.965 24.3246 141.062C24.4765 141.158 24.6478 141.205 24.8384 141.205ZM29.1749 141.85C28.792 141.848 28.4648 141.747 28.1933 141.547C27.9219 141.347 27.7142 141.055 27.5704 140.672C27.4266 140.289 27.3547 139.828 27.3547 139.288C27.3547 138.75 27.4266 138.29 27.5704 137.909C27.7159 137.528 27.9243 137.237 28.1957 137.037C28.4688 136.836 28.7952 136.736 29.1749 136.736C29.5546 136.736 29.8802 136.837 30.1516 137.039C30.423 137.239 30.6307 137.53 30.7745 137.912C30.9199 138.291 30.9926 138.75 30.9926 139.288C30.9926 139.829 30.9207 140.292 30.7769 140.675C30.6331 141.056 30.4255 141.347 30.154 141.549C29.8826 141.75 29.5562 141.85 29.1749 141.85ZM29.1749 141.203C29.511 141.203 29.7735 141.039 29.9626 140.711C30.1532 140.383 30.2485 139.909 30.2485 139.288C30.2485 138.876 30.2049 138.528 30.1177 138.244C30.032 137.958 29.9084 137.741 29.7469 137.594C29.5869 137.445 29.3962 137.371 29.1749 137.371C28.8404 137.371 28.5779 137.536 28.3872 137.866C28.1965 138.195 28.1004 138.669 28.0988 139.288C28.0988 139.702 28.1416 140.052 28.2272 140.338C28.3145 140.622 28.4381 140.838 28.5981 140.985C28.758 141.13 28.9503 141.203 29.1749 141.203ZM33.5804 141.85C33.1975 141.848 32.8703 141.747 32.5988 141.547C32.3274 141.347 32.1198 141.055 31.976 140.672C31.8322 140.289 31.7603 139.828 31.7603 139.288C31.7603 138.75 31.8322 138.29 31.976 137.909C32.1214 137.528 32.3298 137.237 32.6013 137.037C32.8743 136.836 33.2007 136.736 33.5804 136.736C33.9601 136.736 34.2857 136.837 34.5571 137.039C34.8286 137.239 35.0362 137.53 35.18 137.912C35.3254 138.291 35.3981 138.75 35.3981 139.288C35.3981 139.829 35.3262 140.292 35.1824 140.675C35.0386 141.056 34.831 141.347 34.5596 141.549C34.2881 141.75 33.9617 141.85 33.5804 141.85ZM33.5804 141.203C33.9165 141.203 34.179 141.039 34.3681 140.711C34.5587 140.383 34.6541 139.909 34.6541 139.288C34.6541 138.876 34.6105 138.528 34.5232 138.244C34.4376 137.958 34.314 137.741 34.1524 137.594C33.9924 137.445 33.8018 137.371 33.5804 137.371C33.246 137.371 32.9834 137.536 32.7927 137.866C32.6021 138.195 32.5059 138.669 32.5043 139.288C32.5043 139.702 32.5471 140.052 32.6328 140.338C32.72 140.622 32.8436 140.838 33.0036 140.985C33.1636 141.13 33.3558 141.203 33.5804 141.203Z" fill="#111827" fill-opacity="0.4"/>
<line x1="45.365" y1="139.426" x2="349.241" y2="139.426" stroke="#697C8C" stroke-opacity="0.1" stroke-width="0.682491" stroke-dasharray="1.36 1.36"/>
<path d="M24.2672 173.835C23.9634 173.835 23.6904 173.777 23.448 173.661C23.2072 173.543 23.015 173.381 22.8712 173.176C22.7274 172.971 22.6506 172.737 22.6409 172.473H23.368C23.3858 172.687 23.4803 172.862 23.6516 172.999C23.8228 173.137 24.028 173.205 24.2672 173.205C24.4578 173.205 24.6267 173.162 24.7737 173.074C24.9224 172.986 25.0387 172.864 25.1227 172.708C25.2083 172.553 25.2512 172.376 25.2512 172.178C25.2512 171.976 25.2075 171.796 25.1203 171.637C25.033 171.479 24.9127 171.354 24.7592 171.264C24.6073 171.173 24.4328 171.127 24.2357 171.126C24.0854 171.126 23.9343 171.152 23.7825 171.203C23.6306 171.255 23.5078 171.323 23.4141 171.407L22.7282 171.305L23.0069 168.804H25.7359V169.446H23.6298L23.4722 170.835H23.5013C23.5983 170.741 23.7267 170.663 23.8867 170.6C24.0482 170.537 24.2211 170.505 24.4053 170.505C24.7075 170.505 24.9765 170.577 25.2124 170.721C25.4499 170.865 25.6365 171.061 25.7722 171.31C25.9096 171.557 25.9774 171.842 25.9758 172.163C25.9774 172.485 25.9047 172.771 25.7577 173.024C25.6123 173.276 25.4103 173.474 25.1518 173.62C24.8949 173.764 24.6 173.835 24.2672 173.835ZM28.5891 173.85C28.2062 173.848 27.879 173.747 27.6075 173.547C27.3361 173.347 27.1285 173.055 26.9847 172.672C26.8409 172.289 26.769 171.828 26.769 171.288C26.769 170.75 26.8409 170.29 26.9847 169.909C27.1301 169.528 27.3385 169.237 27.61 169.037C27.883 168.836 28.2094 168.736 28.5891 168.736C28.9688 168.736 29.2944 168.837 29.5658 169.039C29.8373 169.239 30.0449 169.53 30.1887 169.912C30.3341 170.291 30.4068 170.75 30.4068 171.288C30.4068 171.829 30.3349 172.292 30.1911 172.675C30.0473 173.056 29.8397 173.347 29.5682 173.549C29.2968 173.75 28.9704 173.85 28.5891 173.85ZM28.5891 173.203C28.9252 173.203 29.1877 173.039 29.3768 172.711C29.5674 172.383 29.6628 171.909 29.6628 171.288C29.6628 170.876 29.6191 170.528 29.5319 170.244C29.4462 169.958 29.3226 169.741 29.1611 169.594C29.0011 169.445 28.8105 169.371 28.5891 169.371C28.2546 169.371 27.9921 169.536 27.8014 169.866C27.6108 170.195 27.5146 170.669 27.513 171.288C27.513 171.702 27.5558 172.052 27.6415 172.338C27.7287 172.622 27.8523 172.838 28.0123 172.985C28.1722 173.13 28.3645 173.203 28.5891 173.203ZM32.9946 173.85C32.6117 173.848 32.2845 173.747 32.0131 173.547C31.7416 173.347 31.534 173.055 31.3902 172.672C31.2464 172.289 31.1745 171.828 31.1745 171.288C31.1745 170.75 31.2464 170.29 31.3902 169.909C31.5356 169.528 31.744 169.237 32.0155 169.037C32.2885 168.836 32.6149 168.736 32.9946 168.736C33.3743 168.736 33.6999 168.837 33.9713 169.039C34.2428 169.239 34.4504 169.53 34.5942 169.912C34.7396 170.291 34.8123 170.75 34.8123 171.288C34.8123 171.829 34.7404 172.292 34.5966 172.675C34.4528 173.056 34.2452 173.347 33.9738 173.549C33.7023 173.75 33.3759 173.85 32.9946 173.85ZM32.9946 173.203C33.3307 173.203 33.5933 173.039 33.7823 172.711C33.973 172.383 34.0683 171.909 34.0683 171.288C34.0683 170.876 34.0247 170.528 33.9374 170.244C33.8518 169.958 33.7282 169.741 33.5666 169.594C33.4066 169.445 33.216 169.371 32.9946 169.371C32.6602 169.371 32.3976 169.536 32.2069 169.866C32.0163 170.195 31.9202 170.669 31.9185 171.288C31.9185 171.702 31.9614 172.052 32.047 172.338C32.1342 172.622 32.2578 172.838 32.4178 172.985C32.5778 173.13 32.77 173.203 32.9946 173.203Z" fill="#111827" fill-opacity="0.4"/>
<line x1="45.3647" y1="171.426" x2="349.241" y2="171.426" stroke="#697C8C" stroke-opacity="0.1" stroke-width="0.682491" stroke-dasharray="1.36 1.36"/>
<rect x="21.6194" y="12.7676" width="324.761" height="31" rx="15.5" fill="#E5E7EB"/>
<rect x="170.947" y="19.7676" width="44.9027" height="19" rx="9.5" fill="white"/>
<path d="M46.3205 25.9494V31.7676H45.4398V26.8301H45.4057L44.0136 27.7392V26.8983L45.4653 25.9494H46.3205ZM51.6564 31.8528C51.3041 31.8528 50.9897 31.7628 50.7132 31.5829C50.4386 31.4011 50.2227 31.1426 50.0655 30.8074C49.9102 30.4702 49.8325 30.0659 49.8325 29.5943C49.8325 29.1227 49.9111 28.7193 50.0683 28.3841C50.2274 28.0488 50.4452 27.7922 50.7217 27.6142C50.9983 27.4361 51.3117 27.3471 51.6621 27.3471C51.9329 27.3471 52.1507 27.3926 52.3155 27.4835C52.4822 27.5725 52.6109 27.6767 52.7019 27.796C52.7947 27.9153 52.8666 28.0204 52.9178 28.1113H52.9689V25.9494H53.8183V31.7676H52.9888V31.0886H52.9178C52.8666 31.1814 52.7928 31.2875 52.6962 31.4068C52.6015 31.5261 52.4708 31.6303 52.3041 31.7193C52.1375 31.8083 51.9215 31.8528 51.6564 31.8528ZM51.8439 31.1284C52.0882 31.1284 52.2947 31.064 52.4632 30.9352C52.6337 30.8045 52.7625 30.6236 52.8496 30.3926C52.9386 30.1615 52.9831 29.8926 52.9831 29.5858C52.9831 29.2827 52.9395 29.0176 52.8524 28.7903C52.7653 28.563 52.6375 28.3859 52.4689 28.2591C52.3003 28.1322 52.092 28.0687 51.8439 28.0687C51.5882 28.0687 51.3751 28.135 51.2047 28.2676C51.0342 28.4002 50.9054 28.581 50.8183 28.8102C50.7331 29.0394 50.6905 29.2979 50.6905 29.5858C50.6905 29.8774 50.734 30.1397 50.8212 30.3727C50.9083 30.6056 51.0371 30.7903 51.2075 30.9267C51.3799 31.0611 51.592 31.1284 51.8439 31.1284ZM56.3006 31.8642C56.0241 31.8642 55.7741 31.813 55.5506 31.7108C55.3271 31.6066 55.15 31.456 55.0193 31.2591C54.8905 31.0621 54.8261 30.8206 54.8261 30.5346C54.8261 30.2884 54.8735 30.0858 54.9682 29.9267C55.0629 29.7676 55.1907 29.6416 55.3517 29.5488C55.5127 29.456 55.6926 29.3859 55.8915 29.3386C56.0903 29.2913 56.293 29.2553 56.4994 29.2306C56.7608 29.2003 56.9729 29.1757 57.1358 29.1568C57.2987 29.1359 57.417 29.1028 57.4909 29.0574C57.5648 29.0119 57.6017 28.938 57.6017 28.8358V28.8159C57.6017 28.5678 57.5316 28.3755 57.3915 28.2392C57.2532 28.1028 57.0468 28.0346 56.7722 28.0346C56.4862 28.0346 56.2608 28.0981 56.096 28.225C55.9331 28.35 55.8205 28.4892 55.758 28.6426L54.9597 28.4608C55.0544 28.1956 55.1926 27.9816 55.3744 27.8187C55.5581 27.6539 55.7693 27.5346 56.008 27.4608C56.2466 27.385 56.4975 27.3471 56.7608 27.3471C56.935 27.3471 57.1197 27.368 57.3148 27.4096C57.5117 27.4494 57.6955 27.5233 57.8659 27.6312C58.0383 27.7392 58.1794 27.8935 58.2892 28.0943C58.3991 28.2931 58.454 28.5517 58.454 28.8699V31.7676H57.6244V31.171H57.5903C57.5354 31.2808 57.453 31.3888 57.3432 31.4949C57.2333 31.6009 57.0922 31.689 56.9199 31.7591C56.7475 31.8291 56.5411 31.8642 56.3006 31.8642ZM56.4852 31.1824C56.7201 31.1824 56.9208 31.1359 57.0875 31.0431C57.2561 30.9503 57.3839 30.8291 57.471 30.6795C57.56 30.528 57.6045 30.3661 57.6045 30.1937V29.6312C57.5742 29.6615 57.5155 29.6899 57.4284 29.7164C57.3432 29.7411 57.2456 29.7628 57.1358 29.7818C57.026 29.7988 56.9189 29.8149 56.8148 29.8301C56.7106 29.8433 56.6235 29.8547 56.5534 29.8642C56.3886 29.885 56.2381 29.92 56.1017 29.9693C55.9672 30.0185 55.8593 30.0895 55.7778 30.1824C55.6983 30.2733 55.6585 30.3945 55.6585 30.546C55.6585 30.7562 55.7362 30.9153 55.8915 31.0233C56.0468 31.1293 56.2447 31.1824 56.4852 31.1824ZM59.9661 33.4039C59.8392 33.4039 59.7236 33.3935 59.6195 33.3727C59.5153 33.3538 59.4376 33.3329 59.3865 33.3102L59.5911 32.6142C59.7464 32.6558 59.8846 32.6738 60.0058 32.6681C60.127 32.6625 60.234 32.617 60.3269 32.5318C60.4215 32.4466 60.5049 32.3074 60.5769 32.1142L60.682 31.8244L59.0854 27.4039H59.9945L61.0996 30.7903H61.145L62.2501 27.4039H63.1621L61.3638 32.35C61.2804 32.5772 61.1744 32.7695 61.0456 32.9267C60.9168 33.0858 60.7634 33.2051 60.5854 33.2846C60.4073 33.3642 60.2009 33.4039 59.9661 33.4039Z" fill="#6B7280"/>
<path d="M109.91 25.9494V31.7676H109.029V26.8301H108.995L107.603 27.7392V26.8983L109.055 25.9494H109.91ZM114.558 31.7676L113.274 27.4039H114.152L115.007 30.6085H115.05L115.908 27.4039H116.786L117.638 30.5943H117.681L118.53 27.4039H119.408L118.127 31.7676H117.26L116.374 28.617H116.308L115.422 31.7676H114.558ZM121.962 31.8556C121.532 31.8556 121.162 31.7638 120.851 31.5801C120.542 31.3945 120.304 31.1341 120.135 30.7988C119.968 30.4617 119.885 30.0668 119.885 29.6142C119.885 29.1672 119.968 28.7733 120.135 28.4324C120.304 28.0914 120.539 27.8253 120.84 27.6341C121.143 27.4428 121.497 27.3471 121.902 27.3471C122.148 27.3471 122.387 27.3878 122.618 27.4693C122.849 27.5507 123.057 27.6786 123.24 27.8528C123.424 28.027 123.569 28.2534 123.675 28.5318C123.781 28.8083 123.834 29.1445 123.834 29.5403V29.8414H120.365V29.2051H123.002C123.002 28.9816 122.956 28.7837 122.865 28.6113C122.774 28.4371 122.646 28.2998 122.482 28.1994C122.319 28.099 122.128 28.0488 121.908 28.0488C121.669 28.0488 121.461 28.1075 121.283 28.225C121.107 28.3405 120.97 28.492 120.874 28.6795C120.779 28.8651 120.732 29.0668 120.732 29.2846V29.7818C120.732 30.0734 120.783 30.3216 120.885 30.5261C120.989 30.7306 121.134 30.8869 121.32 30.9949C121.505 31.1009 121.722 31.1539 121.97 31.1539C122.131 31.1539 122.278 31.1312 122.411 31.0858C122.543 31.0384 122.658 30.9683 122.754 30.8755C122.851 30.7827 122.925 30.6681 122.976 30.5318L123.78 30.6767C123.716 30.9134 123.6 31.1208 123.433 31.2988C123.269 31.475 123.061 31.6123 122.811 31.7108C122.563 31.8074 122.28 31.8556 121.962 31.8556ZM126.657 31.8556C126.227 31.8556 125.857 31.7638 125.546 31.5801C125.238 31.3945 124.999 31.1341 124.83 30.7988C124.664 30.4617 124.58 30.0668 124.58 29.6142C124.58 29.1672 124.664 28.7733 124.83 28.4324C124.999 28.0914 125.234 27.8253 125.535 27.6341C125.838 27.4428 126.192 27.3471 126.597 27.3471C126.844 27.3471 127.082 27.3878 127.313 27.4693C127.544 27.5507 127.752 27.6786 127.936 27.8528C128.119 28.027 128.264 28.2534 128.37 28.5318C128.476 28.8083 128.529 29.1445 128.529 29.5403V29.8414H125.061V29.2051H127.697C127.697 28.9816 127.651 28.7837 127.561 28.6113C127.47 28.4371 127.342 28.2998 127.177 28.1994C127.014 28.099 126.823 28.0488 126.603 28.0488C126.365 28.0488 126.156 28.1075 125.978 28.225C125.802 28.3405 125.666 28.492 125.569 28.6795C125.474 28.8651 125.427 29.0668 125.427 29.2846V29.7818C125.427 30.0734 125.478 30.3216 125.58 30.5261C125.685 30.7306 125.829 30.8869 126.015 30.9949C126.201 31.1009 126.418 31.1539 126.666 31.1539C126.827 31.1539 126.973 31.1312 127.106 31.0858C127.239 31.0384 127.353 30.9683 127.45 30.8755C127.546 30.7827 127.62 30.6681 127.671 30.5318L128.475 30.6767C128.411 30.9134 128.295 31.1208 128.129 31.2988C127.964 31.475 127.757 31.6123 127.507 31.7108C127.258 31.8074 126.975 31.8556 126.657 31.8556ZM130.253 30.2875L130.247 29.2505H130.395L132.134 27.4039H133.151L131.168 29.5062H131.034L130.253 30.2875ZM129.472 31.7676V25.9494H130.321V31.7676H129.472ZM132.227 31.7676L130.665 29.6937L131.25 29.1L133.27 31.7676H132.227Z" fill="#6B7280"/>
<path d="M179.809 26.9494V32.7676H178.929V27.8301H178.895L177.503 28.7392V27.8983L178.954 26.9494H179.809ZM183.512 32.7676V28.4039H184.327V29.1142H184.381C184.472 28.8736 184.621 28.6861 184.827 28.5517C185.034 28.4153 185.281 28.3471 185.569 28.3471C185.86 28.3471 186.105 28.4153 186.302 28.5517C186.5 28.688 186.647 28.8755 186.742 29.1142H186.787C186.892 28.8812 187.057 28.6956 187.285 28.5574C187.512 28.4172 187.783 28.3471 188.097 28.3471C188.493 28.3471 188.816 28.4712 189.066 28.7193C189.318 28.9674 189.444 29.3414 189.444 29.8414V32.7676H188.594V29.921C188.594 29.6255 188.514 29.4115 188.353 29.2789C188.192 29.1464 187.999 29.0801 187.776 29.0801C187.499 29.0801 187.285 29.1653 187.131 29.3358C186.978 29.5043 186.901 29.7212 186.901 29.9863V32.7676H186.054V29.867C186.054 29.6303 185.981 29.4399 185.833 29.296C185.685 29.152 185.493 29.0801 185.256 29.0801C185.095 29.0801 184.946 29.1227 184.81 29.2079C184.676 29.2913 184.567 29.4077 184.483 29.5574C184.402 29.707 184.361 29.8803 184.361 30.0772V32.7676H183.512ZM192.42 32.8556C192.011 32.8556 191.654 32.7619 191.349 32.5744C191.044 32.3869 190.807 32.1246 190.639 31.7875C190.47 31.4503 190.386 31.0564 190.386 30.6056C190.386 30.153 190.47 29.7572 190.639 29.4181C190.807 29.0791 191.044 28.8159 191.349 28.6284C191.654 28.4409 192.011 28.3471 192.42 28.3471C192.829 28.3471 193.186 28.4409 193.491 28.6284C193.796 28.8159 194.033 29.0791 194.201 29.4181C194.37 29.7572 194.454 30.153 194.454 30.6056C194.454 31.0564 194.37 31.4503 194.201 31.7875C194.033 32.1246 193.796 32.3869 193.491 32.5744C193.186 32.7619 192.829 32.8556 192.42 32.8556ZM192.423 32.1426C192.688 32.1426 192.908 32.0725 193.082 31.9324C193.256 31.7922 193.385 31.6056 193.468 31.3727C193.554 31.1397 193.596 30.8831 193.596 30.6028C193.596 30.3244 193.554 30.0687 193.468 29.8358C193.385 29.6009 193.256 29.4125 193.082 29.2704C192.908 29.1284 192.688 29.0574 192.423 29.0574C192.156 29.0574 191.934 29.1284 191.758 29.2704C191.584 29.4125 191.454 29.6009 191.369 29.8358C191.286 30.0687 191.244 30.3244 191.244 30.6028C191.244 30.8831 191.286 31.1397 191.369 31.3727C191.454 31.6056 191.584 31.7922 191.758 31.9324C191.934 32.0725 192.156 32.1426 192.423 32.1426ZM196.252 30.1767V32.7676H195.402V28.4039H196.218V29.1142H196.272C196.372 28.8831 196.529 28.6975 196.743 28.5574C196.959 28.4172 197.231 28.3471 197.559 28.3471C197.856 28.3471 198.116 28.4096 198.34 28.5346C198.563 28.6577 198.737 28.8414 198.86 29.0858C198.983 29.3301 199.044 29.6322 199.044 29.992V32.7676H198.195V30.0943C198.195 29.778 198.113 29.5308 197.948 29.3528C197.783 29.1729 197.557 29.0829 197.269 29.0829C197.072 29.0829 196.897 29.1255 196.743 29.2108C196.592 29.296 196.472 29.421 196.383 29.5858C196.295 29.7486 196.252 29.9456 196.252 30.1767ZM202.221 28.4039V29.0858H199.837V28.4039H202.221ZM200.476 27.3585H201.326V31.4863C201.326 31.6511 201.35 31.7752 201.4 31.8585C201.449 31.9399 201.512 31.9958 201.59 32.0261C201.669 32.0545 201.756 32.0687 201.848 32.0687C201.917 32.0687 201.976 32.064 202.027 32.0545C202.079 32.045 202.118 32.0375 202.147 32.0318L202.3 32.7335C202.251 32.7524 202.181 32.7714 202.09 32.7903C201.999 32.8111 201.885 32.8225 201.749 32.8244C201.526 32.8282 201.317 32.7884 201.124 32.7051C200.931 32.6217 200.775 32.493 200.655 32.3187C200.536 32.1445 200.476 31.9257 200.476 31.6625V27.3585ZM204.103 30.1767V32.7676H203.254V26.9494H204.092V29.1142H204.146C204.248 28.8793 204.405 28.6928 204.615 28.5545C204.825 28.4163 205.1 28.3471 205.439 28.3471C205.738 28.3471 205.999 28.4087 206.223 28.5318C206.448 28.6549 206.622 28.8386 206.745 29.0829C206.87 29.3253 206.933 29.6284 206.933 29.992V32.7676H206.084V30.0943C206.084 29.7742 206.001 29.5261 205.836 29.35C205.672 29.1719 205.442 29.0829 205.149 29.0829C204.948 29.0829 204.768 29.1255 204.609 29.2108C204.452 29.296 204.328 29.421 204.237 29.5858C204.148 29.7486 204.103 29.9456 204.103 30.1767Z" fill="#111827"/>
<path d="M253.449 25.9494V31.7676H252.568V26.8301H252.534L251.142 27.7392V26.8983L252.593 25.9494H253.449ZM257.688 33.4039C257.561 33.4039 257.445 33.3935 257.341 33.3727C257.237 33.3538 257.159 33.3329 257.108 33.3102L257.313 32.6142C257.468 32.6558 257.606 32.6738 257.728 32.6681C257.849 32.6625 257.956 32.617 258.049 32.5318C258.143 32.4466 258.227 32.3074 258.299 32.1142L258.404 31.8244L256.807 27.4039H257.716L258.821 30.7903H258.867L259.972 27.4039H260.884L259.086 32.35C259.002 32.5772 258.896 32.7695 258.767 32.9267C258.639 33.0858 258.485 33.2051 258.307 33.2846C258.129 33.3642 257.923 33.4039 257.688 33.4039ZM263.414 31.8556C262.985 31.8556 262.614 31.7638 262.304 31.5801C261.995 31.3945 261.756 31.1341 261.588 30.7988C261.421 30.4617 261.338 30.0668 261.338 29.6142C261.338 29.1672 261.421 28.7733 261.588 28.4324C261.756 28.0914 261.991 27.8253 262.292 27.6341C262.595 27.4428 262.95 27.3471 263.355 27.3471C263.601 27.3471 263.84 27.3878 264.071 27.4693C264.302 27.5507 264.509 27.6786 264.693 27.8528C264.877 28.027 265.021 28.2534 265.128 28.5318C265.234 28.8083 265.287 29.1445 265.287 29.5403V29.8414H261.818V29.2051H264.454C264.454 28.9816 264.409 28.7837 264.318 28.6113C264.227 28.4371 264.099 28.2998 263.934 28.1994C263.771 28.099 263.58 28.0488 263.36 28.0488C263.122 28.0488 262.914 28.1075 262.735 28.225C262.559 28.3405 262.423 28.492 262.326 28.6795C262.232 28.8651 262.184 29.0668 262.184 29.2846V29.7818C262.184 30.0734 262.235 30.3216 262.338 30.5261C262.442 30.7306 262.587 30.8869 262.772 30.9949C262.958 31.1009 263.175 31.1539 263.423 31.1539C263.584 31.1539 263.731 31.1312 263.863 31.0858C263.996 31.0384 264.11 30.9683 264.207 30.8755C264.304 30.7827 264.378 30.6681 264.429 30.5318L265.233 30.6767C265.168 30.9134 265.053 31.1208 264.886 31.2988C264.721 31.475 264.514 31.6123 264.264 31.7108C264.016 31.8074 263.733 31.8556 263.414 31.8556ZM267.499 31.8642C267.222 31.8642 266.972 31.813 266.749 31.7108C266.526 31.6066 266.348 31.456 266.218 31.2591C266.089 31.0621 266.025 30.8206 266.025 30.5346C266.025 30.2884 266.072 30.0858 266.167 29.9267C266.261 29.7676 266.389 29.6416 266.55 29.5488C266.711 29.456 266.891 29.3859 267.09 29.3386C267.289 29.2913 267.491 29.2553 267.698 29.2306C267.959 29.2003 268.171 29.1757 268.334 29.1568C268.497 29.1359 268.615 29.1028 268.689 29.0574C268.763 29.0119 268.8 28.938 268.8 28.8358V28.8159C268.8 28.5678 268.73 28.3755 268.59 28.2392C268.452 28.1028 268.245 28.0346 267.971 28.0346C267.685 28.0346 267.459 28.0981 267.294 28.225C267.132 28.35 267.019 28.4892 266.956 28.6426L266.158 28.4608C266.253 28.1956 266.391 27.9816 266.573 27.8187C266.757 27.6539 266.968 27.5346 267.206 27.4608C267.445 27.385 267.696 27.3471 267.959 27.3471C268.133 27.3471 268.318 27.368 268.513 27.4096C268.71 27.4494 268.894 27.5233 269.064 27.6312C269.237 27.7392 269.378 27.8935 269.488 28.0943C269.597 28.2931 269.652 28.5517 269.652 28.8699V31.7676H268.823V31.171H268.789C268.734 31.2808 268.651 31.3888 268.542 31.4949C268.432 31.6009 268.291 31.689 268.118 31.7591C267.946 31.8291 267.74 31.8642 267.499 31.8642ZM267.684 31.1824C267.918 31.1824 268.119 31.1359 268.286 31.0431C268.454 30.9503 268.582 30.8291 268.669 30.6795C268.758 30.528 268.803 30.3661 268.803 30.1937V29.6312C268.773 29.6615 268.714 29.6899 268.627 29.7164C268.542 29.7411 268.444 29.7628 268.334 29.7818C268.224 29.7988 268.117 29.8149 268.013 29.8301C267.909 29.8433 267.822 29.8547 267.752 29.8642C267.587 29.885 267.436 29.92 267.3 29.9693C267.166 30.0185 267.058 30.0895 266.976 30.1824C266.897 30.2733 266.857 30.3945 266.857 30.546C266.857 30.7562 266.935 30.9153 267.09 31.0233C267.245 31.1293 267.443 31.1824 267.684 31.1824ZM270.784 31.7676V27.4039H271.605V28.0971H271.65C271.73 27.8623 271.87 27.6776 272.071 27.5431C272.273 27.4068 272.503 27.3386 272.758 27.3386C272.811 27.3386 272.874 27.3405 272.946 27.3443C273.02 27.3481 273.077 27.3528 273.119 27.3585V28.171C273.085 28.1615 273.024 28.1511 272.937 28.1397C272.85 28.1265 272.763 28.1199 272.676 28.1199C272.475 28.1199 272.296 28.1625 272.139 28.2477C271.984 28.331 271.86 28.4475 271.77 28.5971C271.679 28.7449 271.633 28.9134 271.633 29.1028V31.7676H270.784Z" fill="#6B7280"/>
<path d="M317.04 31.7676H316.109L318.202 25.9494H319.216L321.31 31.7676H320.378L318.734 27.0062H318.688L317.04 31.7676ZM317.197 29.4892H320.219V30.2278H317.197V29.4892ZM322.932 25.9494V31.7676H322.082V25.9494H322.932ZM324.924 25.9494V31.7676H324.074V25.9494H324.924Z" fill="#6B7280"/>
<path d="M61.9866 190.804H62.8954L64.4756 194.662H64.5338L66.114 190.804H67.0228V195.768H66.3103V192.176H66.2642L64.8004 195.76H64.209L62.7451 192.173H62.6991V195.768H61.9866V190.804Z" fill="#111827" fill-opacity="0.4"/>
<rect x="60.2566" y="139.768" width="8.35398" height="43" rx="4.17699" fill="#E5E7EB"/>
<path d="M104.147 191.449V190.804H107.988V191.449H106.44V195.768H105.693V191.449H104.147Z" fill="#111827" fill-opacity="0.4"/>
<rect x="102.027" y="117.768" width="8.35398" height="65" rx="4.17699" fill="#E5E7EB"/>
<path d="M146.996 195.768L145.619 190.804H146.407L147.374 194.648H147.42L148.426 190.804H149.206L150.212 194.65H150.258L151.223 190.804H152.013L150.634 195.768H149.88L148.835 192.05H148.797L147.752 195.768H146.996Z" fill="#111827" fill-opacity="0.4"/>
<rect x="143.796" y="100.768" width="8.35398" height="82" rx="4.17699" fill="#E5E7EB"/>
<path d="M187.687 191.449V190.804H191.528V191.449H189.98V195.768H189.233V191.449H187.687Z" fill="#111827" fill-opacity="0.4"/>
<rect x="185.566" y="84.7676" width="8.35398" height="98" rx="4.17699" fill="#111827"/>
<path d="M230.148 195.768V190.804H233.226V191.449H230.897V192.961H233.005V193.603H230.897V195.768H230.148Z" fill="#111827" fill-opacity="0.4"/>
<rect x="227.336" y="153.768" width="8.35398" height="29" rx="4.17699" fill="#E5E7EB"/>
<path d="M275.276 192.108C275.25 191.878 275.144 191.701 274.956 191.575C274.769 191.447 274.533 191.383 274.249 191.383C274.045 191.383 273.869 191.416 273.72 191.48C273.572 191.543 273.456 191.63 273.374 191.742C273.293 191.852 273.253 191.977 273.253 192.118C273.253 192.236 273.28 192.337 273.335 192.423C273.391 192.509 273.465 192.581 273.555 192.639C273.648 192.695 273.746 192.743 273.851 192.782C273.956 192.819 274.057 192.85 274.154 192.874L274.639 193C274.797 193.039 274.96 193.091 275.126 193.157C275.292 193.224 275.447 193.311 275.589 193.419C275.731 193.527 275.846 193.661 275.933 193.821C276.022 193.981 276.066 194.173 276.066 194.396C276.066 194.677 275.994 194.927 275.848 195.145C275.704 195.363 275.495 195.535 275.22 195.661C274.947 195.787 274.617 195.85 274.229 195.85C273.858 195.85 273.536 195.791 273.265 195.673C272.993 195.555 272.781 195.388 272.627 195.171C272.474 194.953 272.389 194.695 272.373 194.396H273.124C273.139 194.575 273.197 194.725 273.299 194.844C273.402 194.962 273.534 195.05 273.694 195.108C273.855 195.165 274.032 195.193 274.224 195.193C274.436 195.193 274.624 195.16 274.789 195.094C274.956 195.026 275.086 194.932 275.182 194.813C275.277 194.691 275.325 194.55 275.325 194.389C275.325 194.242 275.283 194.121 275.199 194.027C275.116 193.934 275.004 193.856 274.862 193.795C274.721 193.733 274.562 193.679 274.384 193.632L273.798 193.472C273.4 193.364 273.085 193.205 272.853 192.995C272.622 192.785 272.506 192.507 272.506 192.161C272.506 191.875 272.584 191.626 272.739 191.412C272.894 191.199 273.104 191.033 273.369 190.915C273.634 190.796 273.933 190.736 274.266 190.736C274.602 190.736 274.898 190.795 275.155 190.913C275.414 191.031 275.617 191.193 275.766 191.4C275.914 191.605 275.992 191.841 275.998 192.108H275.276Z" fill="#111827" fill-opacity="0.4"/>
<rect x="269.106" y="117.768" width="8.35398" height="65" rx="4.17699" fill="#E5E7EB"/>
<path d="M317.046 192.108C317.02 191.878 316.914 191.701 316.726 191.575C316.539 191.447 316.303 191.383 316.019 191.383C315.815 191.383 315.639 191.416 315.49 191.48C315.342 191.543 315.226 191.63 315.144 191.742C315.063 191.852 315.022 191.977 315.022 192.118C315.022 192.236 315.05 192.337 315.105 192.423C315.161 192.509 315.235 192.581 315.325 192.639C315.417 192.695 315.516 192.743 315.621 192.782C315.726 192.819 315.827 192.85 315.924 192.874L316.409 193C316.567 193.039 316.729 193.091 316.896 193.157C317.062 193.224 317.217 193.311 317.359 193.419C317.501 193.527 317.616 193.661 317.703 193.821C317.792 193.981 317.836 194.173 317.836 194.396C317.836 194.677 317.764 194.927 317.618 195.145C317.474 195.363 317.265 195.535 316.99 195.661C316.717 195.787 316.387 195.85 315.999 195.85C315.628 195.85 315.306 195.791 315.035 195.673C314.763 195.555 314.551 195.388 314.397 195.171C314.244 194.953 314.159 194.695 314.143 194.396H314.894C314.909 194.575 314.967 194.725 315.068 194.844C315.172 194.962 315.304 195.05 315.464 195.108C315.625 195.165 315.802 195.193 315.994 195.193C316.206 195.193 316.394 195.16 316.559 195.094C316.725 195.026 316.856 194.932 316.952 194.813C317.047 194.691 317.095 194.55 317.095 194.389C317.095 194.242 317.053 194.121 316.969 194.027C316.886 193.934 316.774 193.856 316.632 193.795C316.491 193.733 316.332 193.679 316.154 193.632L315.568 193.472C315.17 193.364 314.855 193.205 314.623 192.995C314.391 192.785 314.276 192.507 314.276 192.161C314.276 191.875 314.353 191.626 314.509 191.412C314.664 191.199 314.874 191.033 315.139 190.915C315.404 190.796 315.703 190.736 316.035 190.736C316.372 190.736 316.668 190.795 316.925 190.913C317.183 191.031 317.387 191.193 317.536 191.4C317.684 191.605 317.762 191.841 317.768 192.108H317.046Z" fill="#111827" fill-opacity="0.4"/>
<rect x="310.876" y="100.768" width="8.35398" height="82" rx="4.17699" fill="#E5E7EB"/>
<rect x="175.124" y="58.7676" width="32.3717" height="21" rx="5" fill="#111827"/>
<path d="M187.242 71.8354C186.894 71.8354 186.587 71.7757 186.321 71.6561C186.056 71.5365 185.848 71.3717 185.698 71.1617C185.548 70.9516 185.473 70.7125 185.475 70.4443C185.473 70.2342 185.516 70.0412 185.604 69.865C185.692 69.6873 185.813 69.5395 185.965 69.4215C186.117 69.302 186.286 69.226 186.474 69.1937V69.1646C186.226 69.1048 186.028 68.9723 185.88 68.7671C185.731 68.5619 185.658 68.326 185.659 68.0594C185.658 67.8058 185.725 67.5796 185.86 67.3808C185.998 67.1805 186.186 67.0229 186.425 66.9082C186.664 66.7935 186.936 66.7361 187.242 66.7361C187.544 66.7361 187.814 66.7943 188.051 66.9106C188.29 67.0254 188.479 67.1829 188.616 67.3833C188.753 67.582 188.823 67.8074 188.824 68.0594C188.823 68.326 188.747 68.5619 188.597 68.7671C188.446 68.9723 188.251 69.1048 188.01 69.1646V69.1937C188.196 69.226 188.363 69.302 188.512 69.4215C188.662 69.5395 188.782 69.6873 188.871 69.865C188.961 70.0412 189.007 70.2342 189.009 70.4443C189.007 70.7125 188.931 70.9516 188.781 71.1617C188.631 71.3717 188.422 71.5365 188.156 71.6561C187.891 71.7757 187.586 71.8354 187.242 71.8354ZM187.242 71.2223C187.447 71.2223 187.625 71.1883 187.775 71.1205C187.925 71.051 188.042 70.9549 188.124 70.8321C188.206 70.7076 188.248 70.5622 188.25 70.3958C188.248 70.2229 188.203 70.0702 188.114 69.9377C188.027 69.8053 187.908 69.701 187.758 69.6251C187.608 69.5492 187.436 69.5112 187.242 69.5112C187.046 69.5112 186.873 69.5492 186.721 69.6251C186.569 69.701 186.449 69.8053 186.362 69.9377C186.275 70.0702 186.232 70.2229 186.234 70.3958C186.232 70.5622 186.272 70.7076 186.352 70.8321C186.435 70.9549 186.552 71.051 186.704 71.1205C186.856 71.1883 187.035 71.2223 187.242 71.2223ZM187.242 68.9126C187.407 68.9126 187.553 68.8794 187.681 68.8132C187.808 68.7469 187.908 68.6548 187.981 68.5369C188.055 68.4189 188.093 68.2808 188.095 68.1225C188.093 67.9673 188.056 67.8316 187.983 67.7153C187.912 67.599 187.813 67.5093 187.685 67.4463C187.558 67.3816 187.41 67.3493 187.242 67.3493C187.071 67.3493 186.92 67.3816 186.791 67.4463C186.663 67.5093 186.564 67.599 186.493 67.7153C186.422 67.8316 186.387 67.9673 186.389 68.1225C186.387 68.2808 186.423 68.4189 186.495 68.5369C186.568 68.6548 186.668 68.7469 186.796 68.8132C186.925 68.8794 187.074 68.9126 187.242 68.9126ZM189.773 70.7981V70.1922L191.918 66.804H192.395V67.6959H192.092L190.558 70.1244V70.1631H193.498V70.7981H189.773ZM192.126 71.7676V70.6139L192.131 70.3376V66.804H192.841V71.7676H192.126ZM195.981 71.8354C195.677 71.8354 195.404 71.7773 195.162 71.6609C194.921 71.543 194.729 71.3814 194.585 71.1762C194.441 70.971 194.364 70.7367 194.355 70.4734H195.082C195.099 70.6866 195.194 70.862 195.365 70.9993C195.536 71.1366 195.742 71.2053 195.981 71.2053C196.171 71.2053 196.34 71.1617 196.487 71.0744C196.636 70.9856 196.752 70.8636 196.836 70.7085C196.922 70.5533 196.965 70.3764 196.965 70.1777C196.965 69.9757 196.921 69.7956 196.834 69.6372C196.747 69.4789 196.626 69.3545 196.473 69.264C196.321 69.1735 196.146 69.1275 195.949 69.1258C195.799 69.1258 195.648 69.1517 195.496 69.2034C195.344 69.2551 195.221 69.323 195.128 69.407L194.442 69.3052L194.721 66.804H197.45V67.4463H195.343L195.186 68.835H195.215C195.312 68.7413 195.44 68.6629 195.6 68.5999C195.762 68.5369 195.935 68.5054 196.119 68.5054C196.421 68.5054 196.69 68.5773 196.926 68.7211C197.164 68.8649 197.35 69.0612 197.486 69.31C197.623 69.5572 197.691 69.8416 197.689 70.1631C197.691 70.4847 197.618 70.7715 197.471 71.0235C197.326 71.2756 197.124 71.4743 196.865 71.6197C196.609 71.7635 196.314 71.8354 195.981 71.8354Z" fill="white"/>
<defs>
<filter id="filter0_d_808_2871" x="0.175092" y="0.175092" width="367.65" height="216.882" filterUnits="userSpaceOnUse" color-interpolation-filters="sRGB">
<feFlood flood-opacity="0" result="BackgroundImageFix"/>
<feColorMatrix in="SourceAlpha" type="matrix" values="0 0 0 0 0 0 0 0 0 0 0 0 0 0 0 0 0 0 127 0" result="hardAlpha"/>
<feOffset/>
<feGaussianBlur stdDeviation="3.41245"/>
<feComposite in2="hardAlpha" operator="out"/>
<feColorMatrix type="matrix" values="0 0 0 0 0.117647 0 0 0 0 0.25098 0 0 0 0 0.686275 0 0 0 0.1 0"/>
<feBlend mode="normal" in2="BackgroundImageFix" result="effect1_dropShadow_808_2871"/>
<feBlend mode="normal" in="SourceGraphic" in2="effect1_dropShadow_808_2871" result="shape"/>
</filter>
</defs>
</svg>
