<svg width="14" height="15" viewBox="0 0 14 15" fill="none" xmlns="http://www.w3.org/2000/svg">
<path d="M12.6667 13.931H10.6667C10.4778 13.931 10.3194 13.8671 10.1917 13.7393C10.0639 13.6115 9.99999 13.4532 9.99999 13.2643C9.99999 13.0754 10.0639 12.9171 10.1917 12.7893C10.3194 12.6615 10.4778 12.5977 10.6667 12.5977H12.6667V5.93099H3.33332V7.93099C3.33332 8.11988 3.26943 8.27821 3.14166 8.40599C3.01388 8.53377 2.85555 8.59766 2.66666 8.59766C2.47777 8.59766 2.31943 8.53377 2.19166 8.40599C2.06388 8.27821 1.99999 8.11988 1.99999 7.93099V3.26432C1.99999 2.89766 2.13055 2.58377 2.39166 2.32266C2.65277 2.06155 2.96666 1.93099 3.33332 1.93099H3.99999V1.26432C3.99999 1.07543 4.06388 0.917101 4.19166 0.789323C4.31943 0.661545 4.47777 0.597656 4.66666 0.597656C4.85555 0.597656 5.01388 0.661545 5.14166 0.789323C5.26943 0.917101 5.33332 1.07543 5.33332 1.26432V1.93099H10.6667V1.26432C10.6667 1.07543 10.7305 0.917101 10.8583 0.789323C10.9861 0.661545 11.1444 0.597656 11.3333 0.597656C11.5222 0.597656 11.6805 0.661545 11.8083 0.789323C11.9361 0.917101 12 1.07543 12 1.26432V1.93099H12.6667C13.0333 1.93099 13.3472 2.06155 13.6083 2.32266C13.8694 2.58377 14 2.89766 14 3.26432V12.5977C14 12.9643 13.8694 13.2782 13.6083 13.5393C13.3472 13.8004 13.0333 13.931 12.6667 13.931ZM6.11666 12.5977H1.33332C1.14443 12.5977 0.986101 12.5338 0.858323 12.406C0.730545 12.2782 0.666656 12.1199 0.666656 11.931C0.666656 11.7421 0.730545 11.5838 0.858323 11.456C0.986101 11.3282 1.14443 11.2643 1.33332 11.2643H6.11666L4.86666 9.99766C4.74443 9.87543 4.68055 9.72266 4.67499 9.53932C4.66943 9.35599 4.73332 9.19766 4.86666 9.06432C4.98888 8.9421 5.14443 8.88099 5.33332 8.88099C5.52221 8.88099 5.67777 8.9421 5.79999 9.06432L8.19999 11.4643C8.33332 11.5977 8.39999 11.7532 8.39999 11.931C8.39999 12.1088 8.33332 12.2643 8.19999 12.3977L5.79999 14.7977C5.67777 14.9199 5.52499 14.9838 5.34166 14.9893C5.15832 14.9949 4.99999 14.931 4.86666 14.7977C4.74443 14.6754 4.68332 14.5199 4.68332 14.331C4.68332 14.1421 4.74443 13.9865 4.86666 13.8643L6.11666 12.5977ZM3.33332 4.59766H12.6667V3.26432H3.33332V4.59766Z" fill="#111827"/>
</svg>
