<svg width="22" height="23" viewBox="0 0 22 23" fill="none" xmlns="http://www.w3.org/2000/svg">
<path d="M11 12.3125V11.7708M15.3333 12.3125V11.7708M6.66667 12.3125V11.7708M11 21.25C12.9284 21.25 14.8134 20.6782 16.4168 19.6068C18.0202 18.5355 19.2699 17.0127 20.0078 15.2312C20.7458 13.4496 20.9389 11.4892 20.5627 9.59787C20.1865 7.70656 19.2579 5.96927 17.8943 4.60571C16.5307 3.24215 14.7934 2.31355 12.9021 1.93735C11.0108 1.56114 9.05042 1.75422 7.26884 2.49218C5.48726 3.23013 3.96452 4.47982 2.89317 6.08319C1.82183 7.68657 1.25 9.57164 1.25 11.5C1.25 13.06 1.61617 14.5333 2.26833 15.8409C2.75908 16.8278 2.07658 18.1593 1.81658 19.131C1.75898 19.3459 1.75897 19.5722 1.81655 19.7871C1.87414 20.0021 1.98728 20.1981 2.14462 20.3554C2.30195 20.5127 2.49793 20.6259 2.71286 20.6834C2.92778 20.741 3.15408 20.741 3.369 20.6834C4.34075 20.4234 5.67217 19.7409 6.65908 20.2328C8.00806 20.9026 9.49388 21.2507 11 21.25Z" stroke="#111827" stroke-width="2" stroke-linecap="round" stroke-linejoin="round"/>
</svg>
