<svg width="25" height="25" viewBox="0 0 25 25" fill="none" xmlns="http://www.w3.org/2000/svg">
<mask id="mask0_882_1322" style="mask-type:alpha" maskUnits="userSpaceOnUse" x="0" y="0" width="25" height="25">
<rect x="0.640381" y="0.19043" width="24" height="24" fill="#D9D9D9"/>
</mask>
<g mask="url(#mask0_882_1322)">
<path d="M12.6404 17.1904C12.9237 17.1904 13.1612 17.0946 13.3529 16.9029C13.5445 16.7113 13.6404 16.4738 13.6404 16.1904C13.6404 15.9071 13.5445 15.6696 13.3529 15.4779C13.1612 15.2863 12.9237 15.1904 12.6404 15.1904C12.357 15.1904 12.1195 15.2863 11.9279 15.4779C11.7362 15.6696 11.6404 15.9071 11.6404 16.1904C11.6404 16.4738 11.7362 16.7113 11.9279 16.9029C12.1195 17.0946 12.357 17.1904 12.6404 17.1904ZM12.6404 13.1904C12.9237 13.1904 13.1612 13.0946 13.3529 12.9029C13.5445 12.7113 13.6404 12.4738 13.6404 12.1904V8.19043C13.6404 7.9071 13.5445 7.6696 13.3529 7.47793C13.1612 7.28626 12.9237 7.19043 12.6404 7.19043C12.357 7.19043 12.1195 7.28626 11.9279 7.47793C11.7362 7.6696 11.6404 7.9071 11.6404 8.19043V12.1904C11.6404 12.4738 11.7362 12.7113 11.9279 12.9029C12.1195 13.0946 12.357 13.1904 12.6404 13.1904ZM12.6404 22.1904C11.257 22.1904 9.95705 21.9279 8.74038 21.4029C7.52371 20.8779 6.46538 20.1654 5.56538 19.2654C4.66538 18.3654 3.95288 17.3071 3.42788 16.0904C2.90288 14.8738 2.64038 13.5738 2.64038 12.1904C2.64038 10.8071 2.90288 9.5071 3.42788 8.29043C3.95288 7.07376 4.66538 6.01543 5.56538 5.11543C6.46538 4.21543 7.52371 3.50293 8.74038 2.97793C9.95705 2.45293 11.257 2.19043 12.6404 2.19043C14.0237 2.19043 15.3237 2.45293 16.5404 2.97793C17.757 3.50293 18.8154 4.21543 19.7154 5.11543C20.6154 6.01543 21.3279 7.07376 21.8529 8.29043C22.3779 9.5071 22.6404 10.8071 22.6404 12.1904C22.6404 13.5738 22.3779 14.8738 21.8529 16.0904C21.3279 17.3071 20.6154 18.3654 19.7154 19.2654C18.8154 20.1654 17.757 20.8779 16.5404 21.4029C15.3237 21.9279 14.0237 22.1904 12.6404 22.1904ZM12.6404 20.1904C14.8737 20.1904 16.7654 19.4154 18.3154 17.8654C19.8654 16.3154 20.6404 14.4238 20.6404 12.1904C20.6404 9.9571 19.8654 8.06543 18.3154 6.51543C16.7654 4.96543 14.8737 4.19043 12.6404 4.19043C10.407 4.19043 8.51538 4.96543 6.96538 6.51543C5.41538 8.06543 4.64038 9.9571 4.64038 12.1904C4.64038 14.4238 5.41538 16.3154 6.96538 17.8654C8.51538 19.4154 10.407 20.1904 12.6404 20.1904Z" fill="#DC2626"/>
</g>
</svg>
