<svg width="73" height="21" viewBox="0 0 73 21" fill="none" xmlns="http://www.w3.org/2000/svg">
<rect width="73" height="21" rx="4" fill="#16A34A" fill-opacity="0.1"/>
<path d="M14.2074 9.1108H12.8778C12.8267 8.8267 12.7315 8.5767 12.5923 8.3608C12.4531 8.14489 12.2827 7.96165 12.081 7.81108C11.8793 7.66051 11.6534 7.54687 11.4034 7.47017C11.1563 7.39347 10.8935 7.35511 10.6151 7.35511C10.1122 7.35511 9.66193 7.48153 9.2642 7.73438C8.86932 7.98722 8.55682 8.35795 8.3267 8.84659C8.09943 9.33523 7.9858 9.93182 7.9858 10.6364C7.9858 11.3466 8.09943 11.946 8.3267 12.4347C8.55682 12.9233 8.87074 13.2926 9.26847 13.5426C9.66619 13.7926 10.1136 13.9176 10.6108 13.9176C10.8864 13.9176 11.1477 13.8807 11.3949 13.8068C11.6449 13.7301 11.8707 13.6179 12.0724 13.4702C12.2741 13.3224 12.4446 13.142 12.5838 12.929C12.7259 12.7131 12.8239 12.4659 12.8778 12.1875L14.2074 12.1918C14.1364 12.6207 13.9986 13.0156 13.794 13.3764C13.5923 13.7344 13.3324 14.044 13.0142 14.3054C12.6989 14.5639 12.3381 14.7642 11.9318 14.9062C11.5256 15.0483 11.0824 15.1193 10.6023 15.1193C9.84659 15.1193 9.1733 14.9403 8.58239 14.5824C7.99148 14.2216 7.52557 13.706 7.18466 13.0355C6.84659 12.3651 6.67756 11.5653 6.67756 10.6364C6.67756 9.70455 6.84801 8.90483 7.18892 8.23722C7.52983 7.56676 7.99574 7.05256 8.58665 6.6946C9.17756 6.33381 9.84943 6.15341 10.6023 6.15341C11.0653 6.15341 11.4972 6.22017 11.8977 6.35369C12.3011 6.48437 12.6634 6.67756 12.9844 6.93324C13.3054 7.18608 13.571 7.49574 13.7812 7.86222C13.9915 8.22585 14.1335 8.64205 14.2074 9.1108ZM18.4379 15.1321C17.8242 15.1321 17.2887 14.9915 16.8313 14.7102C16.3739 14.429 16.0188 14.0355 15.766 13.5298C15.5131 13.0241 15.3867 12.4332 15.3867 11.7571C15.3867 11.0781 15.5131 10.4844 15.766 9.97585C16.0188 9.46733 16.3739 9.07244 16.8313 8.79119C17.2887 8.50994 17.8242 8.36932 18.4379 8.36932C19.0515 8.36932 19.587 8.50994 20.0444 8.79119C20.5018 9.07244 20.8569 9.46733 21.1097 9.97585C21.3626 10.4844 21.489 11.0781 21.489 11.7571C21.489 12.4332 21.3626 13.0241 21.1097 13.5298C20.8569 14.0355 20.5018 14.429 20.0444 14.7102C19.587 14.9915 19.0515 15.1321 18.4379 15.1321ZM18.4421 14.0625C18.8398 14.0625 19.1694 13.9574 19.4308 13.7472C19.6921 13.5369 19.8853 13.2571 20.0103 12.9077C20.1381 12.5582 20.2021 12.1733 20.2021 11.7528C20.2021 11.3352 20.1381 10.9517 20.0103 10.6023C19.8853 10.25 19.6921 9.96733 19.4308 9.75426C19.1694 9.54119 18.8398 9.43466 18.4421 9.43466C18.0415 9.43466 17.7092 9.54119 17.445 9.75426C17.1836 9.96733 16.989 10.25 16.8612 10.6023C16.7362 10.9517 16.6737 11.3352 16.6737 11.7528C16.6737 12.1733 16.7362 12.5582 16.8612 12.9077C16.989 13.2571 17.1836 13.5369 17.445 13.7472C17.7092 13.9574 18.0415 14.0625 18.4421 14.0625ZM24.1854 11.1136V15H22.9112V8.45455H24.1342V9.51989H24.2152C24.3658 9.1733 24.6016 8.89489 24.9226 8.68466C25.2464 8.47443 25.6541 8.36932 26.1456 8.36932C26.5916 8.36932 26.9822 8.46307 27.3175 8.65057C27.6527 8.83523 27.9126 9.1108 28.0973 9.47727C28.282 9.84375 28.3743 10.2969 28.3743 10.8366V15H27.1001V10.9901C27.1001 10.5156 26.9766 10.1449 26.7294 9.87784C26.4822 9.60795 26.1428 9.47301 25.7109 9.47301C25.4155 9.47301 25.1527 9.53693 24.9226 9.66477C24.6953 9.79261 24.5149 9.98011 24.3814 10.2273C24.2507 10.4716 24.1854 10.767 24.1854 11.1136ZM33.1982 8.45455V9.47727H29.4993V8.45455H33.1982ZM30.5135 15V7.69602C30.5135 7.28693 30.603 6.94744 30.782 6.67756C30.9609 6.40483 31.1982 6.2017 31.4936 6.06818C31.7891 5.93182 32.1101 5.86364 32.4567 5.86364C32.7124 5.86364 32.9311 5.88494 33.1129 5.92756C33.2947 5.96733 33.4297 6.00426 33.5178 6.03835L33.2195 7.0696C33.1598 7.05256 33.0831 7.03267 32.9893 7.00994C32.8956 6.98437 32.782 6.97159 32.6484 6.97159C32.3388 6.97159 32.1172 7.0483 31.9837 7.2017C31.853 7.35511 31.7876 7.5767 31.7876 7.86648V15H30.5135ZM34.5128 15V8.45455H35.7869V15H34.5128ZM35.1562 7.4446C34.9347 7.4446 34.7443 7.37074 34.5852 7.22301C34.429 7.07244 34.3509 6.89347 34.3509 6.68608C34.3509 6.47585 34.429 6.29687 34.5852 6.14915C34.7443 5.99858 34.9347 5.9233 35.1562 5.9233C35.3778 5.9233 35.5668 5.99858 35.723 6.14915C35.8821 6.29687 35.9616 6.47585 35.9616 6.68608C35.9616 6.89347 35.8821 7.07244 35.723 7.22301C35.5668 7.37074 35.3778 7.4446 35.1562 7.4446ZM37.5011 15V8.45455H38.7326V9.49432H38.8008C38.9201 9.14205 39.1303 8.86506 39.4315 8.66335C39.7354 8.45881 40.0792 8.35653 40.4627 8.35653C40.5423 8.35653 40.636 8.35937 40.744 8.36506C40.8548 8.37074 40.9414 8.37784 41.0039 8.38636V9.60511C40.9528 9.59091 40.8619 9.57528 40.7312 9.55824C40.6005 9.53835 40.4698 9.52841 40.3391 9.52841C40.038 9.52841 39.7695 9.59233 39.5337 9.72017C39.3008 9.84517 39.1161 10.0199 38.9798 10.2443C38.8434 10.4659 38.7752 10.7187 38.7752 11.0028V15H37.5011ZM42.1065 15V8.45455H43.3295V9.51989H43.4105C43.5469 9.15909 43.7699 8.87784 44.0795 8.67614C44.3892 8.47159 44.7599 8.36932 45.1918 8.36932C45.6293 8.36932 45.9957 8.47159 46.2912 8.67614C46.5895 8.88068 46.8097 9.16193 46.9517 9.51989H47.0199C47.1761 9.17045 47.4247 8.89205 47.7656 8.68466C48.1065 8.47443 48.5128 8.36932 48.9844 8.36932C49.5781 8.36932 50.0625 8.5554 50.4375 8.92756C50.8153 9.29972 51.0043 9.8608 51.0043 10.6108V15H49.7301V10.7301C49.7301 10.2869 49.6094 9.96591 49.3679 9.76705C49.1264 9.56818 48.8381 9.46875 48.5028 9.46875C48.0881 9.46875 47.7656 9.59659 47.5355 9.85227C47.3054 10.1051 47.1903 10.4304 47.1903 10.8281V15H45.9205V10.6491C45.9205 10.294 45.8097 10.0085 45.5881 9.79261C45.3665 9.5767 45.0781 9.46875 44.723 9.46875C44.4815 9.46875 44.2585 9.53267 44.054 9.66051C43.8523 9.78551 43.6889 9.96023 43.5639 10.1847C43.4418 10.4091 43.3807 10.669 43.3807 10.9645V15H42.1065ZM55.533 15.1321C54.8881 15.1321 54.3327 14.9943 53.8668 14.7188C53.4038 14.4403 53.0458 14.0497 52.793 13.5469C52.543 13.0412 52.418 12.4489 52.418 11.7699C52.418 11.0994 52.543 10.5085 52.793 9.99716C53.0458 9.4858 53.3981 9.08665 53.8498 8.79972C54.3043 8.51278 54.8356 8.36932 55.4435 8.36932C55.8129 8.36932 56.1708 8.4304 56.5174 8.55256C56.864 8.67472 57.1751 8.86648 57.4506 9.12784C57.7262 9.3892 57.9435 9.72869 58.1026 10.1463C58.2617 10.5611 58.3413 11.0653 58.3413 11.6591V12.1108H53.1381V11.1562H57.0927C57.0927 10.821 57.0245 10.5241 56.8881 10.2656C56.7518 10.0043 56.56 9.7983 56.3129 9.64773C56.0685 9.49716 55.7816 9.42188 55.4521 9.42188C55.0941 9.42188 54.7816 9.50994 54.5146 9.68608C54.2504 9.85937 54.0458 10.0866 53.9009 10.3679C53.7589 10.6463 53.6879 10.9489 53.6879 11.2756V12.0213C53.6879 12.4588 53.7646 12.831 53.918 13.1378C54.0742 13.4446 54.2915 13.679 54.57 13.8409C54.8484 14 55.1737 14.0795 55.5458 14.0795C55.7873 14.0795 56.0075 14.0455 56.2063 13.9773C56.4052 13.9062 56.5771 13.8011 56.7219 13.6619C56.8668 13.5227 56.9776 13.3509 57.0543 13.1463L58.2603 13.3636C58.1637 13.7187 57.9904 14.0298 57.7404 14.2969C57.4933 14.5611 57.1822 14.767 56.8072 14.9148C56.435 15.0597 56.0103 15.1321 55.533 15.1321ZM62.2053 15.1278C61.6768 15.1278 61.2053 14.9929 60.7905 14.723C60.3786 14.4503 60.0547 14.0625 59.8189 13.5597C59.5859 13.054 59.4695 12.4474 59.4695 11.7401C59.4695 11.0327 59.5874 10.4276 59.8232 9.92472C60.0618 9.42187 60.3885 9.03693 60.8033 8.76989C61.218 8.50284 61.6882 8.36932 62.2138 8.36932C62.62 8.36932 62.9467 8.4375 63.1939 8.57386C63.4439 8.70739 63.6371 8.86364 63.7734 9.04261C63.9126 9.22159 64.0206 9.37926 64.0973 9.51562H64.174V6.27273H65.4482V15H64.2038V13.9815H64.0973C64.0206 14.1207 63.9098 14.2798 63.7649 14.4588C63.6229 14.6378 63.4268 14.794 63.1768 14.9276C62.9268 15.0611 62.603 15.1278 62.2053 15.1278ZM62.4865 14.0412C62.853 14.0412 63.1626 13.9446 63.4155 13.7514C63.6712 13.5554 63.8643 13.2841 63.995 12.9375C64.1286 12.5909 64.1953 12.1875 64.1953 11.7273C64.1953 11.2727 64.13 10.875 63.9993 10.5341C63.8686 10.1932 63.6768 9.92756 63.424 9.73722C63.1712 9.54687 62.8587 9.4517 62.4865 9.4517C62.103 9.4517 61.7834 9.55114 61.5277 9.75C61.272 9.94886 61.0788 10.2202 60.9482 10.5639C60.8203 10.9077 60.7564 11.2955 60.7564 11.7273C60.7564 12.1648 60.8217 12.5582 60.9524 12.9077C61.0831 13.2571 61.2763 13.5341 61.532 13.7386C61.7905 13.9403 62.1087 14.0412 62.4865 14.0412Z" fill="#16A34A"/>
</svg>
