<svg width="20" height="21" viewBox="0 0 20 21" fill="none" xmlns="http://www.w3.org/2000/svg">
<path d="M1.95122 20.5C1.41463 20.5 0.955122 20.309 0.572683 19.927C0.190894 19.5457 0 19.0871 0 18.5512V4.90926C0 4.37332 0.190894 3.91437 0.572683 3.5324C0.955122 3.15108 1.41463 2.96041 1.95122 2.96041H10.6585L8.70732 4.90926H1.95122V18.5512H15.6098V11.7789L17.561 9.83008V18.5512C17.561 19.0871 17.3701 19.5457 16.9883 19.927C16.6059 20.309 16.1463 20.5 15.6098 20.5H1.95122ZM12.8537 3.52071L14.2439 4.8849L7.80488 11.3161V12.7046H9.17073L15.6341 6.24909L17.0244 7.61328L10.561 14.0688C10.3821 14.2475 10.175 14.3897 9.93951 14.4956C9.70341 14.6009 9.45529 14.6535 9.19512 14.6535H6.82927C6.55285 14.6535 6.3213 14.5603 6.13463 14.3738C5.94732 14.1867 5.85366 13.9551 5.85366 13.679V11.3161C5.85366 11.0562 5.90244 10.8084 6 10.5726C6.09756 10.3374 6.23577 10.1305 6.41463 9.95189L12.8537 3.52071ZM17.0244 7.61328L12.8537 3.52071L15.2927 1.08465C15.6829 0.694884 16.1506 0.5 16.6956 0.5C17.24 0.5 17.6992 0.694884 18.0732 1.08465L19.439 2.4732C19.813 2.84673 20 3.30146 20 3.83739C20 4.37332 19.813 4.82805 19.439 5.20158L17.0244 7.61328Z" fill="#111827"/>
</svg>
