<svg width="26" height="27" viewBox="0 0 26 27" fill="none" xmlns="http://www.w3.org/2000/svg">
<path d="M13 14.3125V13.7708M17.3333 14.3125V13.7708M8.66667 14.3125V13.7708M13 23.25C14.9284 23.25 16.8134 22.6782 18.4168 21.6068C20.0202 20.5355 21.2699 19.0127 22.0078 17.2312C22.7458 15.4496 22.9389 13.4892 22.5627 11.5979C22.1865 9.70656 21.2579 7.96927 19.8943 6.60571C18.5307 5.24215 16.7934 4.31355 14.9021 3.93735C13.0108 3.56114 11.0504 3.75422 9.26884 4.49218C7.48726 5.23013 5.96452 6.47982 4.89317 8.08319C3.82183 9.68657 3.25 11.5716 3.25 13.5C3.25 15.06 3.61617 16.5333 4.26833 17.8409C4.75908 18.8278 4.07658 20.1593 3.81658 21.131C3.75898 21.3459 3.75897 21.5722 3.81655 21.7871C3.87414 22.0021 3.98728 22.1981 4.14462 22.3554C4.30195 22.5127 4.49793 22.6259 4.71286 22.6834C4.92778 22.741 5.15408 22.741 5.369 22.6834C6.34075 22.4234 7.67217 21.7409 8.65908 22.2328C10.0081 22.9026 11.4939 23.2507 13 23.25Z" stroke="#111827" stroke-width="2" stroke-linecap="round" stroke-linejoin="round"/>
</svg>
