<svg width="12" height="13" viewBox="0 0 12 13" fill="none" xmlns="http://www.w3.org/2000/svg">
<path d="M3.35587 10.6206C3.09219 10.6206 2.86655 10.5268 2.67894 10.3392C2.49101 10.1513 2.39704 9.92548 2.39704 9.6618V3.42945C2.26121 3.42945 2.14727 3.38358 2.05522 3.29185C1.9635 3.19981 1.91763 3.08587 1.91763 2.95003C1.91763 2.8142 1.9635 2.70026 2.05522 2.60821C2.14727 2.51649 2.26121 2.47062 2.39704 2.47062H4.31469C4.31469 2.33479 4.36072 2.22085 4.45276 2.1288C4.54449 2.03707 4.65827 1.99121 4.7941 1.99121H6.71175C6.84758 1.99121 6.96152 2.03707 7.05357 2.1288C7.1453 2.22085 7.19116 2.33479 7.19116 2.47062H9.10881C9.24464 2.47062 9.35842 2.51649 9.45015 2.60821C9.5422 2.70026 9.58822 2.8142 9.58822 2.95003C9.58822 3.08587 9.5422 3.19981 9.45015 3.29185C9.35842 3.38358 9.24464 3.42945 9.10881 3.42945V9.6618C9.10881 9.92548 9.01501 10.1513 8.82739 10.3392C8.63947 10.5268 8.41366 10.6206 8.14999 10.6206H3.35587ZM3.35587 3.42945V9.6618H8.14999V3.42945H3.35587ZM4.31469 8.22356C4.31469 8.3594 4.36072 8.47318 4.45276 8.5649C4.54449 8.65695 4.65827 8.70298 4.7941 8.70298C4.92994 8.70298 5.04388 8.65695 5.13592 8.5649C5.22765 8.47318 5.27352 8.3594 5.27352 8.22356V4.86768C5.27352 4.73185 5.22765 4.61791 5.13592 4.52586C5.04388 4.43413 4.92994 4.38827 4.7941 4.38827C4.65827 4.38827 4.54449 4.43413 4.45276 4.52586C4.36072 4.61791 4.31469 4.73185 4.31469 4.86768V8.22356ZM6.23234 8.22356C6.23234 8.3594 6.27836 8.47318 6.37041 8.5649C6.46214 8.65695 6.57592 8.70298 6.71175 8.70298C6.84758 8.70298 6.96152 8.65695 7.05357 8.5649C7.1453 8.47318 7.19116 8.3594 7.19116 8.22356V4.86768C7.19116 4.73185 7.1453 4.61791 7.05357 4.52586C6.96152 4.43413 6.84758 4.38827 6.71175 4.38827C6.57592 4.38827 6.46214 4.43413 6.37041 4.52586C6.27836 4.61791 6.23234 4.73185 6.23234 4.86768V8.22356Z" fill="#DC2626"/>
</svg>
