<svg width="10" height="14" viewBox="0 0 10 14" fill="none" xmlns="http://www.w3.org/2000/svg">
<path d="M5 13.6663C3.82222 13.6663 2.86111 13.4802 2.11666 13.108C1.37222 12.7358 0.999995 12.2552 0.999995 11.6663C0.999995 11.4552 1.04722 11.2608 1.14166 11.083C1.23611 10.9052 1.37777 10.7386 1.56666 10.583C1.72222 10.4719 1.89166 10.4275 2.07499 10.4497C2.25833 10.4719 2.40555 10.5608 2.51666 10.7163C2.62777 10.8719 2.66944 11.0413 2.64166 11.2247C2.61388 11.408 2.52222 11.5552 2.36666 11.6663C2.51111 11.8441 2.84444 11.9997 3.36666 12.133C3.88888 12.2663 4.43333 12.333 5 12.333C5.56666 12.333 6.11111 12.2663 6.63333 12.133C7.15555 11.9997 7.48888 11.8441 7.63333 11.6663C7.47777 11.5552 7.38611 11.408 7.35833 11.2247C7.33055 11.0413 7.37222 10.8719 7.48333 10.7163C7.59444 10.5608 7.74166 10.4719 7.92499 10.4497C8.10833 10.4275 8.27777 10.4719 8.43333 10.583C8.62222 10.7386 8.76388 10.9052 8.85833 11.083C8.95277 11.2608 9 11.4552 9 11.6663C9 12.2552 8.62777 12.7358 7.88333 13.108C7.13888 13.4802 6.17777 13.6663 5 13.6663ZM5.01666 9.99968C6.11666 9.18856 6.94444 8.37468 7.5 7.55801C8.05555 6.74134 8.33333 5.9219 8.33333 5.09968C8.33333 3.96634 7.97222 3.11079 7.25 2.53301C6.52777 1.95523 5.77777 1.66634 5 1.66634C4.22222 1.66634 3.47222 1.95523 2.74999 2.53301C2.02777 3.11079 1.66666 3.96634 1.66666 5.09968C1.66666 5.84412 1.93888 6.61912 2.48333 7.42467C3.02777 8.23023 3.87222 9.08856 5.01666 9.99968ZM5 11.3497C4.86666 11.3497 4.73333 11.3275 4.6 11.283C4.46666 11.2386 4.34444 11.1719 4.23333 11.083C2.92222 10.0386 1.94444 9.01912 1.29999 8.02468C0.65555 7.03023 0.333328 6.05523 0.333328 5.09968C0.333328 4.31079 0.474995 3.61912 0.758328 3.02467C1.04166 2.43023 1.40555 1.93301 1.85 1.53301C2.29444 1.13301 2.79444 0.833008 3.35 0.633008C3.90555 0.433008 4.45555 0.333008 5 0.333008C5.54444 0.333008 6.09444 0.433008 6.65 0.633008C7.20555 0.833008 7.70555 1.13301 8.15 1.53301C8.59444 1.93301 8.95833 2.43023 9.24166 3.02467C9.52499 3.61912 9.66666 4.31079 9.66666 5.09968C9.66666 6.05523 9.34444 7.03023 8.7 8.02468C8.05555 9.01912 7.07777 10.0386 5.76666 11.083C5.65555 11.1719 5.53333 11.2386 5.39999 11.283C5.26666 11.3275 5.13333 11.3497 5 11.3497ZM5 6.33301C5.36666 6.33301 5.68055 6.20245 5.94166 5.94134C6.20277 5.68023 6.33333 5.36634 6.33333 4.99967C6.33333 4.63301 6.20277 4.31912 5.94166 4.05801C5.68055 3.7969 5.36666 3.66634 5 3.66634C4.63333 3.66634 4.31944 3.7969 4.05833 4.05801C3.79722 4.31912 3.66666 4.63301 3.66666 4.99967C3.66666 5.36634 3.79722 5.68023 4.05833 5.94134C4.31944 6.20245 4.63333 6.33301 5 6.33301Z" fill="#111827"/>
</svg>
