<svg width="18" height="16" viewBox="0 0 18 16" fill="none" xmlns="http://www.w3.org/2000/svg">
<path d="M3.56098 16C3.13171 16 2.7641 15.8472 2.45815 15.5416C2.15272 15.2366 2 14.8697 2 14.4409V3.52741C2 3.09866 2.15272 2.7315 2.45815 2.42592C2.7641 2.12086 3.13171 1.96833 3.56098 1.96833H10.5268L8.96585 3.52741H3.56098V14.4409H14.4878V9.02314L16.0488 7.46407V14.4409C16.0488 14.8697 15.8961 15.2366 15.5906 15.5416C15.2847 15.8472 14.9171 16 14.4878 16H3.56098ZM12.2829 2.41657L13.3951 3.50792L8.2439 8.65286V9.7637H9.33658L14.5073 4.59927L15.6195 5.69062L10.4488 10.8551C10.3057 10.998 10.14 11.1118 9.95161 11.1965C9.76273 11.2807 9.56423 11.3228 9.3561 11.3228H7.46341C7.24228 11.3228 7.05704 11.2482 6.90771 11.099C6.75785 10.9494 6.68293 10.7641 6.68293 10.5432V8.65286C6.68293 8.44498 6.72195 8.24672 6.8 8.05807C6.87805 7.86995 6.98862 7.70442 7.13171 7.56151L12.2829 2.41657ZM15.6195 5.69062L12.2829 2.41657L14.2341 0.467722C14.5463 0.155908 14.9205 0 15.3565 0C15.792 0 16.1593 0.155908 16.4585 0.467722L17.5512 1.57856C17.8504 1.87739 18 2.24117 18 2.66991C18 3.09866 17.8504 3.46244 17.5512 3.76127L15.6195 5.69062Z" fill="#6B7280"/>
</svg>
