<svg width="20" height="20" viewBox="0 0 20 20" fill="none" xmlns="http://www.w3.org/2000/svg">
<mask id="mask0_159_564" style="mask-type:alpha" maskUnits="userSpaceOnUse" x="0" y="0" width="24" height="24">
<rect width="24" height="24" fill="#D9D9D9"/>
</mask>
<g mask="url(#mask0_159_564)">
<path d="M9.99999 18.3337C8.52777 18.3337 7.32638 18.101 6.39582 17.6357C5.46527 17.1705 4.99999 16.5698 4.99999 15.8337C4.99999 15.5698 5.05902 15.3267 5.17707 15.1045C5.29513 14.8823 5.47221 14.6739 5.70832 14.4795C5.90277 14.3406 6.11457 14.285 6.34374 14.3128C6.57291 14.3406 6.75693 14.4517 6.89582 14.6462C7.03471 14.8406 7.0868 15.0524 7.05207 15.2816C7.01735 15.5107 6.90277 15.6948 6.70832 15.8337C6.88888 16.0559 7.30555 16.2503 7.95832 16.417C8.6111 16.5837 9.29166 16.667 9.99999 16.667C10.7083 16.667 11.3889 16.5837 12.0417 16.417C12.6944 16.2503 13.1111 16.0559 13.2917 15.8337C13.0972 15.6948 12.9826 15.5107 12.9479 15.2816C12.9132 15.0524 12.9653 14.8406 13.1042 14.6462C13.243 14.4517 13.4271 14.3406 13.6562 14.3128C13.8854 14.285 14.0972 14.3406 14.2917 14.4795C14.5278 14.6739 14.7049 14.8823 14.8229 15.1045C14.941 15.3267 15 15.5698 15 15.8337C15 16.5698 14.5347 17.1705 13.6042 17.6357C12.6736 18.101 11.4722 18.3337 9.99999 18.3337ZM10.0208 13.7503C11.3958 12.7364 12.4305 11.7191 13.125 10.6982C13.8194 9.67741 14.1667 8.6531 14.1667 7.62533C14.1667 6.20866 13.7153 5.13921 12.8125 4.41699C11.9097 3.69477 10.9722 3.33366 9.99999 3.33366C9.02777 3.33366 8.09027 3.69477 7.18749 4.41699C6.28471 5.13921 5.83332 6.20866 5.83332 7.62533C5.83332 8.55588 6.1736 9.52463 6.85416 10.5316C7.53471 11.5385 8.59027 12.6114 10.0208 13.7503ZM9.99999 15.4378C9.83332 15.4378 9.66666 15.41 9.49999 15.3545C9.33332 15.2989 9.18055 15.2156 9.04166 15.1045C7.40277 13.7989 6.18055 12.5246 5.37499 11.2816C4.56943 10.0385 4.16666 8.81977 4.16666 7.62533C4.16666 6.63921 4.34374 5.77463 4.69791 5.03158C5.05207 4.28852 5.50693 3.66699 6.06249 3.16699C6.61805 2.66699 7.24305 2.29199 7.93749 2.04199C8.63193 1.79199 9.31943 1.66699 9.99999 1.66699C10.6805 1.66699 11.368 1.79199 12.0625 2.04199C12.7569 2.29199 13.3819 2.66699 13.9375 3.16699C14.493 3.66699 14.9479 4.28852 15.3021 5.03158C15.6562 5.77463 15.8333 6.63921 15.8333 7.62533C15.8333 8.81977 15.4305 10.0385 14.625 11.2816C13.8194 12.5246 12.5972 13.7989 10.9583 15.1045C10.8194 15.2156 10.6667 15.2989 10.5 15.3545C10.3333 15.41 10.1667 15.4378 9.99999 15.4378ZM9.99999 9.16699C10.4583 9.16699 10.8507 9.0038 11.1771 8.67741C11.5035 8.35102 11.6667 7.95866 11.6667 7.50033C11.6667 7.04199 11.5035 6.64963 11.1771 6.32324C10.8507 5.99685 10.4583 5.83366 9.99999 5.83366C9.54166 5.83366 9.1493 5.99685 8.82291 6.32324C8.49652 6.64963 8.33332 7.04199 8.33332 7.50033C8.33332 7.95866 8.49652 8.35102 8.82291 8.67741C9.1493 9.0038 9.54166 9.16699 9.99999 9.16699Z" fill="#6B7280"/>
</g>
</svg>
