<svg width="36" height="36" viewBox="0 0 36 36" fill="none" xmlns="http://www.w3.org/2000/svg">
<rect width="36" height="36" rx="18" fill="#6B7280" fill-opacity="0.1"/>
<mask id="mask0_253_1258" style="mask-type:alpha" maskUnits="userSpaceOnUse" x="6" y="6" width="24" height="24">
<rect x="6" y="6" width="24" height="24" fill="#D9D9D9"/>
</mask>
<g mask="url(#mask0_253_1258)">
<path d="M18 27.75C17.8833 27.75 17.775 27.7417 17.675 27.725C17.575 27.7083 17.475 27.6833 17.375 27.65C15.125 26.9 13.3333 25.5125 12 23.4875C10.6667 21.4625 10 19.2833 10 16.95V12.225C10 11.8083 10.1208 11.4333 10.3625 11.1C10.6042 10.7667 10.9167 10.525 11.3 10.375L17.3 8.125C17.5333 8.04167 17.7667 8 18 8C18.2333 8 18.4667 8.04167 18.7 8.125L24.7 10.375C25.0833 10.525 25.3958 10.7667 25.6375 11.1C25.8792 11.4333 26 11.8083 26 12.225V16.95C26 19.2833 25.3333 21.4625 24 23.4875C22.6667 25.5125 20.875 26.9 18.625 27.65C18.525 27.6833 18.425 27.7083 18.325 27.725C18.225 27.7417 18.1167 27.75 18 27.75ZM18 25.75C19.7333 25.2 21.1667 24.1 22.3 22.45C23.4333 20.8 24 18.9667 24 16.95V12.225L18 9.975L12 12.225V16.95C12 18.9667 12.5667 20.8 13.7 22.45C14.8333 24.1 16.2667 25.2 18 25.75Z" fill="#6B7280"/>
<path d="M16.7358 19.6904L21.1205 15.1604C21.224 15.0535 21.3447 15 21.4826 15C21.6206 15 21.7413 15.0535 21.8448 15.1604C21.9483 15.2673 22 15.3942 22 15.5412C22 15.6882 21.9483 15.8151 21.8448 15.922L17.098 20.8396C16.9945 20.9465 16.8738 21 16.7358 21C16.5979 21 16.4771 20.9465 16.3737 20.8396L14.149 18.5412C14.0455 18.4343 13.9959 18.3073 14.0003 18.1604C14.0046 18.0134 14.0585 17.8864 14.1619 17.7795C14.2654 17.6726 14.3883 17.6192 14.5306 17.6192C14.6728 17.6192 14.7957 17.6726 14.8992 17.7795L16.7358 19.6904Z" fill="#6B7280" stroke="#6B7280"/>
</g>
</svg>
