<svg width="20" height="20" viewBox="0 0 20 20" fill="none" xmlns="http://www.w3.org/2000/svg">
<g clip-path="url(#clip0_159_542)">
<path d="M17.9 11.417L11.25 7.50033V2.91699C11.25 2.22533 10.6917 1.66699 10 1.66699C9.30834 1.66699 8.75001 2.22533 8.75001 2.91699V7.50033L2.10001 11.417C1.83334 11.567 1.66667 11.8587 1.66667 12.167C1.66667 12.7503 2.22501 13.167 2.78334 13.0087L8.75001 11.2587V15.8337L6.86667 16.9587C6.74167 17.0337 6.66667 17.1753 6.66667 17.317V17.7337V17.8003C6.66667 18.0753 6.92501 18.2753 7.18334 18.2087L9.61667 17.6003L10 17.5003L10.3167 17.5753L10.6667 17.667L12.25 18.067L12.8083 18.2087C13.075 18.2753 13.325 18.0753 13.325 17.8003V17.492V17.317C13.325 17.167 13.25 17.0337 13.125 16.9587L11.25 15.8337V11.2503L17.2167 13.0003C17.775 13.167 18.3333 12.7503 18.3333 12.167C18.3333 11.8587 18.1667 11.567 17.9 11.417Z" fill="#6B7280"/>
</g>
<defs>
<clipPath id="clip0_159_542">
<rect width="20" height="20" fill="white"/>
</clipPath>
</defs>
</svg>
