<svg width="24" height="25" viewBox="0 0 24 25" fill="none" xmlns="http://www.w3.org/2000/svg">
<mask id="mask0_672_355" style="mask-type:alpha" maskUnits="userSpaceOnUse" x="0" y="0" width="24" height="25">
<rect y="0.5" width="24" height="24" fill="#D9D9D9"/>
</mask>
<g mask="url(#mask0_672_355)">
<path d="M4.33333 8.08366C4.02639 8.08366 3.7691 7.97984 3.56146 7.7722C3.35382 7.56456 3.25 7.30727 3.25 7.00033C3.25 6.69338 3.35382 6.43609 3.56146 6.22845C3.7691 6.02081 4.02639 5.91699 4.33333 5.91699H21.6667C21.9736 5.91699 22.2309 6.02081 22.4385 6.22845C22.6462 6.43609 22.75 6.69338 22.75 7.00033C22.75 7.30727 22.6462 7.56456 22.4385 7.7722C22.2309 7.97984 21.9736 8.08366 21.6667 8.08366H4.33333ZM4.33333 21.0837C4.02639 21.0837 3.7691 20.9798 3.56146 20.7722C3.35382 20.5646 3.25 20.3073 3.25 20.0003C3.25 19.6934 3.35382 19.4361 3.56146 19.2285C3.7691 19.0208 4.02639 18.917 4.33333 18.917H21.6667C21.9736 18.917 22.2309 19.0208 22.4385 19.2285C22.6462 19.4361 22.75 19.6934 22.75 20.0003C22.75 20.3073 22.6462 20.5646 22.4385 20.7722C22.2309 20.9798 21.9736 21.0837 21.6667 21.0837H4.33333ZM4.33333 14.5837C4.02639 14.5837 3.7691 14.4798 3.56146 14.2722C3.35382 14.0646 3.25 13.8073 3.25 13.5003C3.25 13.1934 3.35382 12.9361 3.56146 12.7285C3.7691 12.5208 4.02639 12.417 4.33333 12.417H21.6667C21.9736 12.417 22.2309 12.5208 22.4385 12.7285C22.6462 12.9361 22.75 13.1934 22.75 13.5003C22.75 13.8073 22.6462 14.0646 22.4385 14.2722C22.2309 14.4798 21.9736 14.5837 21.6667 14.5837H4.33333Z" fill="#111827"/>
</g>
</svg>
