<svg width="64" height="55" viewBox="0 0 64 55" fill="none" xmlns="http://www.w3.org/2000/svg">
<path d="M26.6496 27.8157C24.8602 27.0818 23.2521 25.9799 21.913 24.6003C19.3736 21.9837 17.803 18.3683 17.803 14.3752C17.803 10.3827 19.3736 6.76739 21.913 4.15067C24.4729 1.51312 28.1544 0.194336 31.8361 0.194336C35.5173 0.194336 39.199 1.51312 41.7586 4.15067C44.298 6.76735 45.8689 10.3826 45.8689 14.3752C45.8689 18.3683 44.298 21.9837 41.7586 24.6003C40.4199 25.9798 38.8114 27.0818 37.0224 27.8157C35.366 28.4947 33.6011 28.8352 31.8361 28.8352C30.0705 28.8352 28.3062 28.4947 26.6496 27.8157ZM31.8362 3.07784C28.8958 3.07784 25.9555 4.13106 23.9114 6.23803C22.6943 7.49179 21.7559 9.0332 21.1999 10.7547C21.0464 11.3328 21.2512 11.6058 21.8136 11.5745C23.6581 11.5015 27.6326 11.4432 28.4491 11.4009C27.7478 12.2204 27.3228 13.2963 27.3228 14.4743C27.3228 15.7584 27.8279 16.9214 28.6447 17.763C28.936 18.0635 29.2676 18.323 29.6298 18.5321C30.3123 18.9272 31.074 19.1247 31.8362 19.125C32.5981 19.1247 33.3597 18.9272 34.0422 18.5321C34.4044 18.3229 34.7357 18.0635 35.0273 17.763C35.8441 16.9214 36.3491 15.7584 36.3491 14.4743C36.3491 13.2963 35.9238 12.2204 35.2232 11.4009C36.0393 11.4432 40.0139 11.5015 41.8581 11.5745C42.4206 11.6057 42.6256 11.3328 42.4718 10.7547C41.9161 9.03323 40.9776 7.49183 39.7602 6.23803C37.7161 4.13102 34.7761 3.07784 31.8361 3.07784H31.8362ZM34.3683 11.8695C33.0617 10.5231 30.6098 10.5231 29.3032 11.8695C28.6553 12.5372 28.2544 13.46 28.2544 14.4789C28.2544 15.4983 28.6553 16.4209 29.3032 17.0888C29.553 17.3458 29.839 17.5654 30.1533 17.7377C31.1974 18.3112 32.4745 18.3112 33.5186 17.7377C33.8326 17.5654 34.119 17.3457 34.3684 17.0888C35.0166 16.4208 35.4175 15.4983 35.4175 14.4789C35.4176 13.46 35.0166 12.5372 34.3684 11.8695H34.3683ZM32.4862 15.8418C32.9761 15.594 33.3133 15.0745 33.3133 14.4743C33.3133 13.8382 32.9344 13.2932 32.3966 13.0656C32.0407 12.915 31.6314 12.915 31.2754 13.0656C30.7376 13.2932 30.3587 13.8382 30.3587 14.4743C30.3587 15.0744 30.6956 15.594 31.1855 15.8418C31.5914 16.0466 32.0808 16.0466 32.4862 15.8418ZM34.1618 25.702C36.3232 25.2321 38.2552 24.1204 39.7602 22.5694C41.3327 20.9491 42.4395 18.8498 42.858 16.5024C43.0087 15.8657 42.7428 15.6707 42.2771 15.686C41.3378 15.6654 40.3981 15.6694 39.5026 15.8433C36.3119 16.4632 35.1708 18.0497 34.6062 21.7021C34.4011 23.0288 34.2708 24.5814 34.1618 25.702H34.1618ZM29.5098 25.702C29.4012 24.5813 29.2705 23.0288 29.0657 21.7021C28.5011 18.0497 27.3597 16.4632 24.1691 15.8433C23.2738 15.6694 22.3338 15.6654 21.3945 15.686C20.929 15.6707 20.6629 15.8657 20.8138 16.5024C21.232 18.8498 22.3392 20.9491 23.9113 22.5694C25.4167 24.1204 27.3484 25.2321 29.5098 25.702Z" fill="#2563EB"/>
<path d="M1.10826 50.0244V38.6252H5.81834C5.92917 38.6252 6.07166 38.6305 6.24581 38.641C6.41996 38.6463 6.58092 38.6622 6.72869 38.6885C7.38837 38.7888 7.93194 39.0078 8.35941 39.3456C8.79216 39.6833 9.11144 40.1108 9.31726 40.628C9.52836 41.1399 9.6339 41.7099 9.6339 42.3379C9.6339 43.2667 9.39906 44.0662 8.92937 44.7365C8.45968 45.4014 7.73932 45.813 6.76827 45.9714L5.95291 46.0426H3.01604V50.0244H1.10826ZM7.65488 50.0244L5.4067 45.3856L7.34615 44.9581L9.81597 50.0244H7.65488ZM3.01604 44.2615H5.73918C5.84473 44.2615 5.96347 44.2562 6.0954 44.2457C6.22734 44.2351 6.34872 44.214 6.45954 44.1823C6.77619 44.1032 7.02423 43.9633 7.20366 43.7628C7.38837 43.5622 7.51766 43.3353 7.59155 43.082C7.67071 42.8287 7.71029 42.5806 7.71029 42.3379C7.71029 42.0951 7.67071 41.8471 7.59155 41.5938C7.51766 41.3352 7.38837 41.1056 7.20366 40.9051C7.02423 40.7045 6.77619 40.5647 6.45954 40.4855C6.34872 40.4538 6.22734 40.4354 6.0954 40.4301C5.96347 40.4195 5.84473 40.4143 5.73918 40.4143H3.01604V44.2615ZM11.56 50.0244V38.6252H18.922V40.4143H13.4678V43.2245H17.972V45.0135H13.4678V48.2354H18.922V50.0244H11.56ZM20.8212 50.0244V38.6252H22.7527L28.0407 46.6601V38.6252H29.9722V50.0244H28.0407L22.7527 41.9896V50.0244H20.8212ZM37.0061 50.2619C35.8662 50.2619 34.8898 50.0139 34.0771 49.5178C33.2644 49.0164 32.639 48.3198 32.201 47.4279C31.7682 46.536 31.5519 45.5017 31.5519 44.3248C31.5519 43.148 31.7682 42.1136 32.201 41.2217C32.639 40.3298 33.2644 39.6358 34.0771 39.1398C34.8898 38.6384 35.8662 38.3877 37.0061 38.3877C38.3201 38.3877 39.4152 38.7176 40.2913 39.3772C41.1673 40.0316 41.7821 40.9156 42.1357 42.0291L40.2121 42.5595C39.9904 41.8154 39.6131 41.2349 39.0801 40.818C38.5471 40.3958 37.8557 40.1847 37.0061 40.1847C36.2408 40.1847 35.6023 40.3562 35.0904 40.6992C34.5837 41.0423 34.2011 41.5252 33.9425 42.1479C33.6892 42.7653 33.5599 43.491 33.5547 44.3248C33.5547 45.1586 33.6813 45.8869 33.9346 46.5097C34.1932 47.1271 34.5785 47.6074 35.0904 47.9504C35.6023 48.2934 36.2408 48.4649 37.0061 48.4649C37.8557 48.4649 38.5471 48.2538 39.0801 47.8317C39.6131 47.4095 39.9904 46.8289 40.2121 46.0901L42.1357 46.6205C41.7821 47.734 41.1673 48.6206 40.2913 49.2803C39.4152 49.9347 38.3201 50.2619 37.0061 50.2619ZM42.773 50.0244L46.3669 38.6252H49.1613L52.7552 50.0244H50.792L47.5305 39.7968H47.958L44.7362 50.0244H42.773ZM44.7757 47.5546V45.7735H50.7603V47.5546H44.7757ZM54.1864 50.0244V38.6252H58.8965C59.0073 38.6252 59.1498 38.6305 59.3239 38.641C59.4981 38.6463 59.659 38.6622 59.8068 38.6885C60.4665 38.7888 61.0101 39.0078 61.4375 39.3456C61.8703 39.6833 62.1896 40.1108 62.3954 40.628C62.6065 41.1399 62.712 41.7099 62.712 42.3379C62.712 43.2667 62.4772 44.0662 62.0075 44.7365C61.5378 45.4014 60.8174 45.813 59.8464 45.9714L59.031 46.0426H56.0942V50.0244H54.1864ZM60.733 50.0244L58.4848 45.3856L60.4243 44.9581L62.8941 50.0244H60.733ZM56.0942 44.2615H58.8173C58.9228 44.2615 59.0416 44.2562 59.1735 44.2457C59.3055 44.2351 59.4268 44.214 59.5377 44.1823C59.8543 44.1032 60.1023 43.9633 60.2818 43.7628C60.4665 43.5622 60.5958 43.3353 60.6697 43.082C60.7488 42.8287 60.7884 42.5806 60.7884 42.3379C60.7884 42.0951 60.7488 41.8471 60.6697 41.5938C60.5958 41.3352 60.4665 41.1056 60.2818 40.9051C60.1023 40.7045 59.8543 40.5647 59.5377 40.4855C59.4268 40.4538 59.3055 40.4354 59.1735 40.4301C59.0416 40.4195 58.9228 40.4143 58.8173 40.4143H56.0942V44.2615Z" fill="white"/>
</svg>
