<svg width="58" height="49" viewBox="0 0 58 49" fill="none" xmlns="http://www.w3.org/2000/svg">
<path d="M23.911 24.7829C22.3055 24.1244 20.8626 23.1357 19.6611 21.8979C17.3827 19.5501 15.9735 16.3064 15.9735 12.7236C15.9735 9.14132 17.3827 5.89757 19.6611 3.54976C21.958 1.18326 25.2611 0 28.5645 0C31.8674 0 35.1707 1.18326 37.4673 3.54976C39.7457 5.89754 41.1552 9.14129 41.1552 12.7236C41.1552 16.3064 39.7457 19.5501 37.4673 21.8979C36.2662 23.1356 34.823 24.1243 33.2178 24.7829C31.7316 25.3921 30.1481 25.6975 28.5645 25.6975C26.9804 25.6975 25.3973 25.3921 23.911 24.7829ZM28.5645 2.58718C25.9264 2.58718 23.2883 3.53216 21.4542 5.42261C20.3622 6.54753 19.5202 7.93053 19.0213 9.47512C18.8836 9.99385 19.0673 10.2387 19.572 10.2107C21.2269 10.1452 24.793 10.0929 25.5255 10.0549C24.8964 10.7902 24.515 11.7555 24.515 12.8125C24.515 13.9646 24.9682 15.0081 25.701 15.7632C25.9625 16.0329 26.2599 16.2656 26.5849 16.4533C27.1973 16.8078 27.8807 16.985 28.5645 16.9853C29.2482 16.985 29.9315 16.8078 30.5439 16.4533C30.8688 16.2656 31.1661 16.0329 31.4278 15.7632C32.1606 15.0081 32.6138 13.9647 32.6138 12.8125C32.6138 11.7555 32.2321 10.7902 31.6035 10.0549C32.3357 10.0929 35.9019 10.1452 37.5566 10.2107C38.0612 10.2387 38.2453 9.99382 38.1072 9.47512C37.6086 7.93056 36.7665 6.54756 35.6743 5.42261C33.8403 3.53213 31.2024 2.58718 28.5645 2.58718H28.5645ZM30.8365 10.4754C29.6642 9.26736 27.4642 9.26736 26.2919 10.4754C25.7106 11.0744 25.3509 11.9024 25.3509 12.8166C25.3509 13.7313 25.7106 14.559 26.2919 15.1583C26.516 15.3889 26.7726 15.5859 27.0546 15.7406C27.9914 16.2551 29.1373 16.2551 30.0741 15.7406C30.3559 15.5859 30.6128 15.3888 30.8366 15.1583C31.4182 14.559 31.7779 13.7312 31.7779 12.8166C31.7779 11.9025 31.4182 11.0745 30.8366 10.4754H30.8365ZM29.1478 14.0394C29.5873 13.8171 29.8899 13.351 29.8899 12.8124C29.8899 12.2417 29.5499 11.7527 29.0674 11.5486C28.748 11.4135 28.3808 11.4135 28.0614 11.5486C27.5789 11.7527 27.2389 12.2417 27.2389 12.8124C27.2389 13.3509 27.5412 13.8171 27.9808 14.0394C28.345 14.2232 28.784 14.2232 29.1478 14.0394ZM30.6512 22.8863C32.5905 22.4648 34.3239 21.4673 35.6743 20.0756C37.0851 18.6219 38.0783 16.7384 38.4538 14.6322C38.5889 14.0609 38.3504 13.8859 37.9325 13.8996C37.0897 13.8812 36.2466 13.8848 35.4431 14.0408C32.5804 14.597 31.5565 16.0204 31.0499 19.2975C30.8659 20.4879 30.749 21.8809 30.6512 22.8863H30.6512ZM26.4772 22.8863C26.3798 21.8809 26.2625 20.4879 26.0788 19.2975C25.5722 16.0205 24.5482 14.597 21.6854 14.0408C20.8821 13.8848 20.0387 13.8812 19.1959 13.8996C18.7783 13.8859 18.5395 14.0609 18.6749 14.6322C19.0501 16.7384 20.0436 18.6219 21.4541 20.0756C22.8048 21.4673 24.538 22.4647 26.4772 22.8863Z" fill="#2563EB"/>
<path d="M0.994365 44.4561V34.2283H5.22042C5.31985 34.2283 5.4477 34.233 5.60396 34.2425C5.76022 34.2472 5.90463 34.2614 6.03722 34.2851C6.6291 34.3751 7.11681 34.5716 7.50035 34.8746C7.88863 35.1777 8.1751 35.5612 8.35977 36.0253C8.54917 36.4846 8.64387 36.9959 8.64387 37.5594C8.64387 38.3928 8.43316 39.1102 8.01174 39.7115C7.59032 40.3081 6.94398 40.6775 6.07273 40.8195L5.34116 40.8834H2.70609V44.4561H0.994365ZM6.86822 44.4561L4.85108 40.2939L6.59122 39.9104L8.80723 44.4561H6.86822ZM2.70609 39.2854H5.14939C5.24409 39.2854 5.35063 39.2806 5.46901 39.2712C5.58738 39.2617 5.69629 39.2427 5.79573 39.2143C6.07983 39.1433 6.30238 39.0178 6.46337 38.8379C6.6291 38.658 6.74511 38.4544 6.8114 38.2271C6.88243 37.9998 6.91794 37.7772 6.91794 37.5594C6.91794 37.3416 6.88243 37.1191 6.8114 36.8918C6.74511 36.6598 6.6291 36.4538 6.46337 36.2739C6.30238 36.0939 6.07983 35.9684 5.79573 35.8974C5.69629 35.869 5.58738 35.8524 5.46901 35.8477C5.35063 35.8382 5.24409 35.8335 5.14939 35.8335H2.70609V39.2854ZM10.372 44.4561V34.2283H16.9775V35.8335H12.0838V38.3549H16.1251V39.9601H12.0838V42.8509H16.9775V44.4561H10.372ZM18.6815 44.4561V34.2283H20.4146L25.1591 41.4374V34.2283H26.8921V44.4561H25.1591L20.4146 37.2469V44.4561H18.6815ZM33.2031 44.6691C32.1804 44.6691 31.3044 44.4466 30.5752 44.0015C29.846 43.5517 29.2849 42.9266 28.8919 42.1264C28.5036 41.3262 28.3094 40.3981 28.3094 39.3422C28.3094 38.2863 28.5036 37.3582 28.8919 36.558C29.2849 35.7577 29.846 35.1351 30.5752 34.69C31.3044 34.2401 32.1804 34.0152 33.2031 34.0152C34.3822 34.0152 35.3647 34.3112 36.1507 34.903C36.9367 35.4902 37.4884 36.2833 37.8056 37.2824L36.0797 37.7583C35.8808 37.0906 35.5423 36.5698 35.064 36.1957C34.5858 35.8169 33.9655 35.6275 33.2031 35.6275C32.5166 35.6275 31.9436 35.7814 31.4843 36.0892C31.0297 36.397 30.6864 36.8302 30.4544 37.389C30.2271 37.943 30.1111 38.594 30.1064 39.3422C30.1064 40.0903 30.22 40.7438 30.4473 41.3025C30.6793 41.8565 31.025 42.2874 31.4843 42.5952C31.9436 42.903 32.5166 43.0568 33.2031 43.0568C33.9655 43.0568 34.5858 42.8674 35.064 42.4886C35.5423 42.1098 35.8808 41.589 36.0797 40.9261L37.8056 41.4019C37.4884 42.401 36.9367 43.1965 36.1507 43.7884C35.3647 44.3756 34.3822 44.6691 33.2031 44.6691ZM38.3774 44.4561L41.602 34.2283H44.1092L47.3338 44.4561H45.5723L42.6461 35.2795H43.0296L40.1388 44.4561H38.3774ZM40.1743 42.24V40.642H45.5439V42.24H40.1743ZM48.6179 44.4561V34.2283H52.844C52.9434 34.2283 53.0712 34.233 53.2275 34.2425C53.3838 34.2472 53.5282 34.2614 53.6608 34.2851C54.2526 34.3751 54.7404 34.5716 55.1239 34.8746C55.5122 35.1777 55.7986 35.5612 55.9833 36.0253C56.1727 36.4846 56.2674 36.9959 56.2674 37.5594C56.2674 38.3928 56.0567 39.1102 55.6353 39.7115C55.2139 40.3081 54.5675 40.6775 53.6963 40.8195L52.9647 40.8834H50.3296V44.4561H48.6179ZM54.4918 44.4561L52.4746 40.2939L54.2148 39.9104L56.4308 44.4561H54.4918ZM50.3296 39.2854H52.7729C52.8676 39.2854 52.9742 39.2806 53.0925 39.2712C53.2109 39.2617 53.3198 39.2427 53.4193 39.2143C53.7034 39.1433 53.9259 39.0178 54.0869 38.8379C54.2526 38.658 54.3686 38.4544 54.4349 38.2271C54.506 37.9998 54.5415 37.7772 54.5415 37.5594C54.5415 37.3416 54.506 37.1191 54.4349 36.8918C54.3686 36.6598 54.2526 36.4538 54.0869 36.2739C53.9259 36.0939 53.7034 35.9684 53.4193 35.8974C53.3198 35.869 53.2109 35.8524 53.0925 35.8477C52.9742 35.8382 52.8676 35.8335 52.7729 35.8335H50.3296V39.2854Z" fill="#111827"/>
</svg>
