<svg width="56" height="57" viewBox="0 0 56 57" fill="none" xmlns="http://www.w3.org/2000/svg">
<path d="M17.6257 54.8005C14.0756 53.3445 10.8851 51.1582 8.2284 48.4212C3.19024 43.2298 0.0742188 36.057 0.0742188 28.1347C0.0742188 20.2135 3.19024 13.0409 8.2284 7.84932C13.3073 2.61646 20.6112 0 27.9158 0C35.2191 0 42.5236 2.61646 47.6018 7.84932C52.64 13.0408 55.7567 20.2135 55.7567 28.1347C55.7567 36.057 52.64 43.2298 47.6018 48.4212C44.9459 51.1581 41.7547 53.3444 38.2053 54.8005C34.919 56.1477 31.4174 56.8231 27.9158 56.8231C24.4128 56.8231 20.9124 56.1476 17.6257 54.8005ZM27.9158 5.72084C22.0823 5.72084 16.2488 7.81041 12.1932 11.9906C9.77856 14.4781 7.91677 17.5362 6.81366 20.9516C6.50901 22.0987 6.91534 22.6402 8.03124 22.5781C11.6906 22.4333 19.5761 22.3177 21.1959 22.2337C19.8046 23.8596 18.9615 25.9941 18.9615 28.3313C18.9615 30.8789 19.9635 33.1862 21.5839 34.856C22.162 35.4523 22.8199 35.967 23.5385 36.382C24.8926 37.1658 26.4036 37.5576 27.9158 37.5582C29.4274 37.5577 30.9385 37.1658 32.2926 36.382C33.0112 35.9669 33.6685 35.4523 34.2471 34.856C35.8675 33.1862 36.8696 30.879 36.8696 28.3313C36.8696 25.9942 36.0257 23.8595 34.6357 22.2337C36.2548 22.3177 44.1404 22.4333 47.7992 22.5781C48.9152 22.6401 49.3221 22.0986 49.0168 20.9516C47.9143 17.5363 46.0523 14.4781 43.6372 11.9906C39.5817 7.81034 33.7488 5.72084 27.9157 5.72084H27.9158ZM32.9397 23.1634C30.3474 20.4922 25.4828 20.4922 22.8905 23.1634C21.605 24.4881 20.8096 26.3189 20.8096 28.3404C20.8096 30.363 21.605 32.1932 22.8905 33.5184C23.386 34.0283 23.9534 34.464 24.5771 34.8059C26.6485 35.9437 29.1824 35.9437 31.2539 34.8059C31.8769 34.464 32.4449 34.0282 32.9398 33.5184C34.2259 32.1932 35.0212 30.3629 35.0212 28.3404C35.0213 26.319 34.2259 24.4881 32.9398 23.1634H32.9397ZM29.2055 31.0444C30.1775 30.5527 30.8465 29.522 30.8465 28.3312C30.8465 27.0692 30.0947 25.9879 29.0277 25.5365C28.3216 25.2377 27.5096 25.2377 26.8033 25.5365C25.7363 25.988 24.9846 27.0693 24.9846 28.3312C24.9846 29.5219 25.653 30.5527 26.625 31.0444C27.4303 31.4508 28.4011 31.4508 29.2055 31.0444ZM32.5299 50.6069C36.8181 49.6747 40.6511 47.469 43.6372 44.3918C46.7568 41.1773 48.9528 37.0123 49.7832 32.355C50.082 31.0918 49.5546 30.7048 48.6306 30.7352C46.7669 30.6945 44.9026 30.7024 43.1259 31.0474C36.7957 32.2772 34.5318 35.4248 33.4116 42.6712C33.0047 45.3033 32.7461 48.3836 32.5299 50.6069H32.5299ZM23.3004 50.6069C23.0849 48.3835 22.8256 45.3033 22.4194 42.6712C21.2991 35.4249 19.0347 32.2772 12.7044 31.0474C10.9282 30.7024 9.06337 30.6945 7.19969 30.7352C6.27615 30.7048 5.7483 31.0917 6.04764 32.355C6.8773 37.0123 9.07406 41.1773 12.1931 44.3918C15.1798 47.469 19.0121 49.6746 23.3004 50.6069Z" fill="#2563EB"/>
</svg>
