<svg width="30" height="31" viewBox="0 0 30 31" fill="none" xmlns="http://www.w3.org/2000/svg">
<path d="M9.4562 29.5248C7.5435 28.7404 5.82456 27.5625 4.39323 26.0879C1.67882 23.2909 0 19.4264 0 15.1581C0 10.8904 1.67882 7.02602 4.39323 4.22897C7.12958 1.40967 11.0647 0 15.0002 0C18.935 0 22.8704 1.40967 25.6064 4.22897C28.3208 7.02598 30 10.8904 30 15.1581C30 19.4264 28.3208 23.2909 25.6064 26.0879C24.1755 27.5624 22.4562 28.7403 20.5438 29.5248C18.7733 30.2506 16.8868 30.6145 15.0002 30.6145C13.1129 30.6145 11.227 30.2506 9.4562 29.5248ZM15.0002 3.08222C11.8573 3.08222 8.71436 4.20801 6.52934 6.46018C5.2284 7.80034 4.22533 9.44797 3.63101 11.2881C3.46687 11.9061 3.68579 12.1978 4.287 12.1644C6.25855 12.0864 10.507 12.0241 11.3797 11.9788C10.6301 12.8548 10.1759 14.0048 10.1759 15.264C10.1759 16.6366 10.7158 17.8797 11.5888 18.7793C11.9002 19.1006 12.2547 19.3779 12.6418 19.6015C13.3714 20.0238 14.1855 20.2349 15.0002 20.2352C15.8146 20.2349 16.6288 20.0238 17.3583 19.6015C17.7454 19.3779 18.0996 19.1006 18.4113 18.7793C19.2843 17.8797 19.8242 16.6367 19.8242 15.264C19.8242 14.0049 19.3696 12.8548 18.6207 11.9788C19.493 12.0241 23.7415 12.0864 25.7128 12.1644C26.314 12.1978 26.5332 11.906 26.3688 11.2881C25.7748 9.44801 24.7716 7.80038 23.4704 6.46018C21.2854 4.20797 18.1428 3.08222 15.0001 3.08222H15.0002ZM17.7069 12.4797C16.3102 11.0406 13.6894 11.0406 12.2927 12.4797C11.6002 13.1934 11.1716 14.1798 11.1716 15.2689C11.1716 16.3586 11.6002 17.3447 12.2927 18.0587C12.5597 18.3334 12.8654 18.5681 13.2014 18.7524C14.3174 19.3654 15.6826 19.3654 16.7987 18.7524C17.1343 18.5681 17.4403 18.3334 17.707 18.0587C18.3999 17.3447 18.8284 16.3586 18.8284 15.2689C18.8284 14.1799 18.3999 13.1935 17.707 12.4797H17.7069ZM15.695 16.7258C16.2187 16.4609 16.5792 15.9056 16.5792 15.264C16.5792 14.5841 16.1741 14.0015 15.5993 13.7583C15.2188 13.5973 14.7813 13.5973 14.4008 13.7583C13.826 14.0015 13.421 14.5841 13.421 15.264C13.421 15.9055 13.7811 16.4609 14.3047 16.7258C14.7386 16.9447 15.2617 16.9447 15.695 16.7258ZM17.4861 27.2654C19.7965 26.7632 21.8616 25.5748 23.4704 23.9169C25.1512 22.1851 26.3343 19.9411 26.7817 17.4319C26.9427 16.7513 26.6585 16.5428 26.1607 16.5592C25.1566 16.5373 24.1522 16.5415 23.1949 16.7274C19.7844 17.39 18.5647 19.0858 17.9612 22.9899C17.7419 24.4081 17.6026 26.0676 17.4862 27.2654H17.4861ZM12.5135 27.2654C12.3974 26.0676 12.2578 24.4081 12.0389 22.9899C11.4353 19.0859 10.2153 17.39 6.80475 16.7274C5.8478 16.5415 4.84308 16.5373 3.83899 16.5592C3.34141 16.5428 3.05702 16.7513 3.2183 17.4319C3.66529 19.9411 4.84884 22.1851 6.52926 23.9169C8.13841 25.5748 10.2032 26.7632 12.5135 27.2654Z" fill="#2563EB"/>
</svg>
