<svg width="21" height="16" viewBox="0 0 21 16" fill="none" xmlns="http://www.w3.org/2000/svg">
<g clip-path="url(#clip0_766_3521)">
<path d="M3.67623 15.9502V14.8985C3.67623 14.4953 3.4334 14.2325 3.01719 14.2325C2.80912 14.2325 2.58368 14.3026 2.42759 14.5305C2.30625 14.3376 2.13286 14.2325 1.87274 14.2325C1.69927 14.2325 1.52596 14.285 1.38717 14.4778V14.2675H1.02301V15.9502H1.38717V15.0212C1.38717 14.7233 1.54326 14.583 1.78608 14.583C2.02875 14.583 2.15024 14.7408 2.15024 15.0212V15.9502H2.5144V15.0212C2.5144 14.7233 2.68771 14.583 2.91316 14.583C3.15598 14.583 3.27731 14.7408 3.27731 15.0212V15.9502H3.67623ZM9.06916 14.2675H8.47964V13.7593H8.11548V14.2675H7.786V14.6005H8.1154V15.3718C8.1154 15.7574 8.27149 15.9852 8.68771 15.9852C8.8438 15.9852 9.01711 15.9327 9.1386 15.8626L9.03449 15.547C8.93045 15.6171 8.80912 15.6347 8.72238 15.6347C8.54899 15.6347 8.47964 15.5295 8.47964 15.3542V14.6005H9.06916V14.2675ZM12.1559 14.2324C11.9478 14.2324 11.8091 14.3376 11.7224 14.4778V14.2675H11.3582V15.9502H11.7224V15.0037C11.7224 14.7233 11.8437 14.5655 12.0692 14.5655C12.1385 14.5655 12.2253 14.5831 12.2946 14.6006L12.3986 14.2501C12.3293 14.2325 12.2253 14.2325 12.1559 14.2325M7.4912 14.4078C7.31773 14.2851 7.07498 14.2326 6.81486 14.2326C6.39873 14.2326 6.1213 14.4429 6.1213 14.7759C6.1213 15.0564 6.32937 15.2141 6.69353 15.2667L6.86692 15.2843C7.05768 15.3192 7.16172 15.3719 7.16172 15.4595C7.16172 15.5822 7.02301 15.6698 6.78018 15.6698C6.53736 15.6698 6.34667 15.5822 6.22526 15.4946L6.05187 15.775C6.24263 15.9152 6.50276 15.9853 6.7628 15.9853C7.24837 15.9853 7.52588 15.7575 7.52588 15.442C7.52588 15.144 7.30043 14.9862 6.95357 14.9337L6.78018 14.9161C6.62409 14.8985 6.50276 14.8636 6.50276 14.7584C6.50276 14.6357 6.62409 14.5656 6.81486 14.5656C7.02301 14.5656 7.23107 14.6532 7.33511 14.7058L7.4912 14.4078ZM17.1675 14.2326C16.9593 14.2326 16.8206 14.3377 16.7339 14.4779V14.2676H16.3697V15.9502H16.7339V15.0038C16.7339 14.7234 16.8553 14.5656 17.0806 14.5656C17.1501 14.5656 17.2368 14.5832 17.3062 14.6006L17.4102 14.2501C17.3408 14.2326 17.2368 14.2326 17.1675 14.2326ZM12.5201 15.1089C12.5201 15.6172 12.8668 15.9853 13.4045 15.9853C13.6472 15.9853 13.8206 15.9328 13.994 15.7926L13.8206 15.4946C13.6819 15.5997 13.5432 15.6523 13.3871 15.6523C13.0923 15.6523 12.8842 15.442 12.8842 15.1089C12.8842 14.7935 13.0923 14.5831 13.3871 14.5656C13.5432 14.5656 13.6819 14.6181 13.8206 14.7234L13.994 14.4254C13.8206 14.2851 13.6472 14.2326 13.4045 14.2326C12.8668 14.2326 12.5201 14.6006 12.5201 15.1089ZM15.8842 15.1089V14.2676H15.5201V14.4779C15.3986 14.3202 15.2253 14.2326 14.9998 14.2326C14.5316 14.2326 14.1675 14.6006 14.1675 15.1089C14.1675 15.6172 14.5316 15.9853 14.9998 15.9853C15.2426 15.9853 15.416 15.8977 15.5201 15.7399V15.9502H15.8842V15.1089ZM14.5489 15.1089C14.5489 14.811 14.7397 14.5656 15.0518 14.5656C15.3466 14.5656 15.5547 14.7935 15.5547 15.1089C15.5547 15.4069 15.3466 15.6523 15.0518 15.6523C14.7397 15.6347 14.5489 15.4069 14.5489 15.1089ZM10.1964 14.2326C9.71082 14.2326 9.36397 14.5831 9.36397 15.1089C9.36397 15.6348 9.71075 15.9853 10.2137 15.9853C10.4564 15.9853 10.6993 15.9152 10.89 15.7575L10.7166 15.4946C10.5779 15.5997 10.4045 15.6698 10.2311 15.6698C10.0056 15.6698 9.78018 15.5647 9.72812 15.2666H10.9594V15.1265C10.9768 14.5831 10.6647 14.2326 10.1964 14.2326ZM10.1963 14.548C10.4217 14.548 10.5779 14.6883 10.6125 14.9512H9.74542C9.7801 14.7234 9.93619 14.548 10.1963 14.548ZM19.2309 15.1089V13.6016H18.8668V14.4779C18.7453 14.3202 18.572 14.2326 18.3465 14.2326C17.8783 14.2326 17.5142 14.6006 17.5142 15.1089C17.5142 15.6172 17.8783 15.9853 18.3465 15.9853C18.5893 15.9853 18.7627 15.8977 18.8668 15.7399V15.9502H19.2309V15.1089ZM17.8957 15.1089C17.8957 14.811 18.0864 14.5656 18.3986 14.5656C18.6934 14.5656 18.9014 14.7935 18.9014 15.1089C18.9014 15.4069 18.6934 15.6523 18.3986 15.6523C18.0864 15.6347 17.8957 15.4069 17.8957 15.1089ZM5.72231 15.1089V14.2676H5.35815V14.4779C5.23674 14.3202 5.06335 14.2326 4.8379 14.2326C4.36971 14.2326 4.00555 14.6006 4.00555 15.1089C4.00555 15.6172 4.36971 15.9853 4.8379 15.9853C5.08073 15.9853 5.25412 15.8977 5.35815 15.7399V15.9502H5.72231V15.1089ZM4.36971 15.1089C4.36971 14.811 4.56048 14.5656 4.87258 14.5656C5.16738 14.5656 5.37553 14.7935 5.37553 15.1089C5.37553 15.4069 5.16738 15.6523 4.87258 15.6523C4.56048 15.6347 4.36971 15.4069 4.36971 15.1089Z" fill="black"/>
<path d="M7.37 1.49023H12.8324V11.4109H7.37V1.49023Z" fill="#FF5F00"/>
<path d="M7.71675 6.45059C7.71675 4.43494 8.65314 2.64708 10.0924 1.49022C9.03467 0.64891 7.69945 0.140625 6.24282 0.140625C2.79185 0.140625 0 2.96254 0 6.45059C0 9.93864 2.79185 12.7606 6.24274 12.7606C7.69937 12.7606 9.03459 12.2523 10.0924 11.4109C8.65314 10.2716 7.71675 8.46624 7.71675 6.45059Z" fill="#EB001B"/>
<path d="M20.2021 6.45059C20.2021 9.93856 17.4102 12.7606 13.9593 12.7606C12.5027 12.7606 11.1675 12.2523 10.1097 11.4109C11.5663 10.2541 12.4854 8.46624 12.4854 6.45059C12.4854 4.43494 11.5489 2.64708 10.1097 1.49022C11.1674 0.64891 12.5027 0.140625 13.9593 0.140625C17.4102 0.140625 20.2021 2.98011 20.2021 6.45059Z" fill="#F79E1B"/>
</g>
<defs>
<clipPath id="clip0_766_3521">
<rect width="20.2222" height="15.7196" fill="white" transform="translate(0 0.140625)"/>
</clipPath>
</defs>
</svg>
