<svg width="16" height="13" viewBox="0 0 16 13" fill="none" xmlns="http://www.w3.org/2000/svg">
<g clip-path="url(#clip0_253_1472)">
<path d="M2.88791 12.1384V11.3353C2.88791 11.0273 2.70246 10.8266 2.38458 10.8266C2.22568 10.8266 2.0535 10.8801 1.93429 11.0542C1.84162 10.9069 1.7092 10.8266 1.51053 10.8266C1.37805 10.8266 1.24569 10.8667 1.13969 11.014V10.8534H0.861572V12.1384H1.13969V11.4289C1.13969 11.2014 1.2589 11.0943 1.44435 11.0943C1.62968 11.0943 1.72247 11.2148 1.72247 11.4289V12.1384H2.00059V11.4289C2.00059 11.2014 2.13295 11.0943 2.30513 11.0943C2.49058 11.0943 2.58325 11.2148 2.58325 11.4289V12.1384H2.88791ZM7.00665 10.8534H6.55641V10.4652H6.27829V10.8534H6.02666V11.1076H6.27823V11.6967C6.27823 11.9912 6.39744 12.1652 6.71532 12.1652C6.83453 12.1652 6.96689 12.1251 7.05968 12.0715L6.98016 11.8305C6.90071 11.8841 6.80804 11.8975 6.7418 11.8975C6.60938 11.8975 6.55641 11.8172 6.55641 11.6833V11.1076H7.00665V10.8534ZM9.36407 10.8265C9.20517 10.8265 9.09923 10.9069 9.03299 11.014V10.8534H8.75487V12.1384H9.03299V11.4156C9.03299 11.2014 9.12565 11.0809 9.29783 11.0809C9.3508 11.0809 9.41704 11.0943 9.47001 11.1077L9.54947 10.84C9.4965 10.8266 9.41704 10.8266 9.36407 10.8266M5.80151 10.9605C5.66903 10.8668 5.48364 10.8266 5.28497 10.8266C4.96716 10.8266 4.75528 10.9873 4.75528 11.2416C4.75528 11.4558 4.91419 11.5763 5.19231 11.6164L5.32473 11.6299C5.47042 11.6566 5.54988 11.6968 5.54988 11.7637C5.54988 11.8574 5.44394 11.9243 5.25849 11.9243C5.07304 11.9243 4.9274 11.8574 4.83467 11.7905L4.70225 12.0046C4.84795 12.1117 5.04661 12.1653 5.24522 12.1653C5.61606 12.1653 5.828 11.9913 5.828 11.7503C5.828 11.5227 5.65582 11.4022 5.39091 11.3621L5.25849 11.3487C5.13928 11.3353 5.04661 11.3086 5.04661 11.2283C5.04661 11.1345 5.13928 11.081 5.28497 11.081C5.44394 11.081 5.60285 11.1479 5.6823 11.1881L5.80151 10.9605ZM13.1915 10.8266C13.0326 10.8266 12.9266 10.907 12.8604 11.014V10.8534H12.5823V12.1385H12.8604V11.4156C12.8604 11.2015 12.9531 11.081 13.1252 11.081C13.1783 11.081 13.2445 11.0944 13.2975 11.1078L13.3769 10.8401C13.324 10.8266 13.2445 10.8266 13.1915 10.8266ZM9.64219 11.4959C9.64219 11.8841 9.90704 12.1653 10.3176 12.1653C10.503 12.1653 10.6355 12.1251 10.7679 12.018L10.6355 11.7905C10.5295 11.8708 10.4236 11.9109 10.3044 11.9109C10.0792 11.9109 9.92031 11.7503 9.92031 11.4959C9.92031 11.255 10.0792 11.0943 10.3044 11.081C10.4236 11.081 10.5295 11.1211 10.6355 11.2015L10.7679 10.9739C10.6355 10.8668 10.503 10.8266 10.3176 10.8266C9.90704 10.8266 9.64219 11.1078 9.64219 11.4959ZM12.2115 11.4959V10.8534H11.9334V11.014C11.8406 10.8936 11.7082 10.8266 11.536 10.8266C11.1785 10.8266 10.9004 11.1078 10.9004 11.4959C10.9004 11.8841 11.1785 12.1653 11.536 12.1653C11.7214 12.1653 11.8539 12.0984 11.9334 11.9779V12.1385H12.2115V11.4959ZM11.1917 11.4959C11.1917 11.2684 11.3374 11.081 11.5757 11.081C11.8009 11.081 11.9599 11.255 11.9599 11.4959C11.9599 11.7235 11.8009 11.9109 11.5757 11.9109C11.3374 11.8975 11.1917 11.7235 11.1917 11.4959ZM7.86755 10.8266C7.4967 10.8266 7.2318 11.0943 7.2318 11.4959C7.2318 11.8976 7.49664 12.1653 7.88076 12.1653C8.06615 12.1653 8.2516 12.1117 8.3973 11.9913L8.26481 11.7905C8.15888 11.8708 8.02645 11.9243 7.89403 11.9243C7.72185 11.9243 7.54967 11.844 7.50991 11.6164H8.45027V11.5094C8.46354 11.0943 8.22518 10.8266 7.86755 10.8266ZM7.86749 11.0676C8.03961 11.0676 8.15888 11.1747 8.1853 11.3755H7.52313C7.54961 11.2015 7.66882 11.0676 7.86749 11.0676ZM14.7675 11.4959V10.3447H14.4893V11.014C14.3966 10.8936 14.2642 10.8266 14.092 10.8266C13.7344 10.8266 13.4563 11.1078 13.4563 11.4959C13.4563 11.8841 13.7344 12.1653 14.092 12.1653C14.2775 12.1653 14.4099 12.0984 14.4893 11.9779V12.1385H14.7675V11.4959ZM13.7477 11.4959C13.7477 11.2684 13.8934 11.081 14.1318 11.081C14.3569 11.081 14.5158 11.255 14.5158 11.4959C14.5158 11.7235 14.3569 11.9109 14.1318 11.9109C13.8934 11.8975 13.7477 11.7235 13.7477 11.4959ZM4.45056 11.4959V10.8534H4.17244V11.014C4.07972 10.8936 3.94729 10.8266 3.77511 10.8266C3.41754 10.8266 3.13942 11.1078 3.13942 11.4959C3.13942 11.8841 3.41754 12.1653 3.77511 12.1653C3.96056 12.1653 4.09299 12.0984 4.17244 11.9779V12.1385H4.45056V11.4959ZM3.41754 11.4959C3.41754 11.2684 3.56324 11.081 3.8016 11.081C4.02675 11.081 4.18571 11.255 4.18571 11.4959C4.18571 11.7235 4.02675 11.9109 3.8016 11.9109C3.56324 11.8975 3.41754 11.7235 3.41754 11.4959Z" fill="black"/>
<path d="M5.70886 1.0957H9.88063V8.67239H5.70886V1.0957Z" fill="#FF5F00"/>
<path d="M5.9737 4.88355C5.9737 3.34414 6.68885 1.9787 7.78804 1.09518C6.98024 0.452645 5.96049 0.0644531 4.84802 0.0644531C2.21242 0.0644531 0.0802002 2.21963 0.0802002 4.88355C0.0802002 7.54747 2.21242 9.70265 4.84796 9.70265C5.96043 9.70265 6.98018 9.31446 7.78804 8.67186C6.68885 7.80176 5.9737 6.42296 5.9737 4.88355Z" fill="#EB001B"/>
<path d="M15.5091 4.88355C15.5091 7.54741 13.3769 9.70265 10.7414 9.70265C9.62888 9.70265 8.60914 9.31446 7.80127 8.67186C8.91374 7.7884 9.61567 6.42296 9.61567 4.88355C9.61567 3.34414 8.90047 1.9787 7.80127 1.09518C8.60908 0.452645 9.62888 0.0644531 10.7414 0.0644531C13.3769 0.0644531 15.5091 2.23304 15.5091 4.88355Z" fill="#F79E1B"/>
</g>
<defs>
<clipPath id="clip0_253_1472">
<rect width="15.4443" height="12.0055" fill="white" transform="translate(0.0802002 0.0644531)"/>
</clipPath>
</defs>
</svg>
