<svg width="26" height="27" viewBox="0 0 26 27" fill="none" xmlns="http://www.w3.org/2000/svg">
<mask id="mask0_351_1182" style="mask-type:alpha" maskUnits="userSpaceOnUse" x="0" y="0" width="24" height="25">
<rect y="0.194336" width="24" height="24" fill="#D9D9D9"/>
</mask>
<g mask="url(#mask0_351_1182)">
<path d="M4.33333 7.77799C4.02639 7.77799 3.7691 7.67418 3.56146 7.46654C3.35382 7.2589 3.25 7.00161 3.25 6.69466C3.25 6.38772 3.35382 6.13043 3.56146 5.92279C3.7691 5.71515 4.02639 5.61133 4.33333 5.61133H21.6667C21.9736 5.61133 22.2309 5.71515 22.4385 5.92279C22.6462 6.13043 22.75 6.38772 22.75 6.69466C22.75 7.00161 22.6462 7.2589 22.4385 7.46654C22.2309 7.67418 21.9736 7.77799 21.6667 7.77799H4.33333ZM4.33333 20.778C4.02639 20.778 3.7691 20.6742 3.56146 20.4665C3.35382 20.2589 3.25 20.0016 3.25 19.6947C3.25 19.3877 3.35382 19.1304 3.56146 18.9228C3.7691 18.7151 4.02639 18.6113 4.33333 18.6113H21.6667C21.9736 18.6113 22.2309 18.7151 22.4385 18.9228C22.6462 19.1304 22.75 19.3877 22.75 19.6947C22.75 20.0016 22.6462 20.2589 22.4385 20.4665C22.2309 20.6742 21.9736 20.778 21.6667 20.778H4.33333ZM4.33333 14.278C4.02639 14.278 3.7691 14.1742 3.56146 13.9665C3.35382 13.7589 3.25 13.5016 3.25 13.1947C3.25 12.8877 3.35382 12.6304 3.56146 12.4228C3.7691 12.2151 4.02639 12.1113 4.33333 12.1113H21.6667C21.9736 12.1113 22.2309 12.2151 22.4385 12.4228C22.6462 12.6304 22.75 12.8877 22.75 13.1947C22.75 13.5016 22.6462 13.7589 22.4385 13.9665C22.2309 14.1742 21.9736 14.278 21.6667 14.278H4.33333Z" fill="white"/>
</g>
</svg>
