<svg width="24" height="25" viewBox="0 0 24 25" fill="none" xmlns="http://www.w3.org/2000/svg">
<mask id="mask0_672_367" style="mask-type:alpha" maskUnits="userSpaceOnUse" x="0" y="0" width="24" height="25">
<rect y="0.5" width="24" height="24" fill="#D9D9D9"/>
</mask>
<g mask="url(#mask0_672_367)">
<path d="M5.41659 21.0837C5.10964 21.0837 4.85235 20.9798 4.64471 20.7722C4.43707 20.5646 4.33325 20.3073 4.33325 20.0003C4.33325 19.6934 4.43707 19.4361 4.64471 19.2284C4.85235 19.0208 5.10964 18.917 5.41659 18.917H6.49992V11.3337C6.49992 9.83505 6.95131 8.50345 7.85408 7.33887C8.75686 6.17428 9.93047 5.41144 11.3749 5.05033V4.29199C11.3749 3.8406 11.5329 3.45692 11.8489 3.14095C12.1648 2.82498 12.5485 2.66699 12.9999 2.66699C13.4513 2.66699 13.835 2.82498 14.151 3.14095C14.4669 3.45692 14.6249 3.8406 14.6249 4.29199V5.05033C16.0694 5.41144 17.243 6.17428 18.1458 7.33887C19.0485 8.50345 19.4999 9.83505 19.4999 11.3337V18.917H20.5833C20.8902 18.917 21.1475 19.0208 21.3551 19.2284C21.5628 19.4361 21.6666 19.6934 21.6666 20.0003C21.6666 20.3073 21.5628 20.5646 21.3551 20.7722C21.1475 20.9798 20.8902 21.0837 20.5833 21.0837H5.41659ZM12.9999 24.3337C12.4041 24.3337 11.894 24.1215 11.4697 23.6972C11.0454 23.2729 10.8333 22.7628 10.8333 22.167H15.1666C15.1666 22.7628 14.9544 23.2729 14.5301 23.6972C14.1058 24.1215 13.5958 24.3337 12.9999 24.3337ZM8.66658 18.917H17.3333V11.3337C17.3333 10.142 16.9089 9.12185 16.0603 8.27324C15.2117 7.42463 14.1916 7.00033 12.9999 7.00033C11.8083 7.00033 10.7881 7.42463 9.9395 8.27324C9.09089 9.12185 8.66658 10.142 8.66658 11.3337V18.917Z" fill="#111827"/>
</g>
</svg>
