<svg width="26" height="27" viewBox="0 0 26 27" fill="none" xmlns="http://www.w3.org/2000/svg">
<mask id="mask0_351_1194" style="mask-type:alpha" maskUnits="userSpaceOnUse" x="0" y="0" width="24" height="25">
<rect y="0.5" width="24" height="24" fill="#D9D9D9"/>
</mask>
<g mask="url(#mask0_351_1194)">
<path d="M5.41668 21.0837C5.10973 21.0837 4.85244 20.9798 4.6448 20.7722C4.43716 20.5646 4.33334 20.3073 4.33334 20.0003C4.33334 19.6934 4.43716 19.4361 4.6448 19.2284C4.85244 19.0208 5.10973 18.917 5.41668 18.917H6.50001V11.3337C6.50001 9.83505 6.9514 8.50345 7.85418 7.33887C8.75695 6.17428 9.93057 5.41144 11.375 5.05033V4.29199C11.375 3.8406 11.533 3.45692 11.849 3.14095C12.1649 2.82498 12.5486 2.66699 13 2.66699C13.4514 2.66699 13.8351 2.82498 14.1511 3.14095C14.467 3.45692 14.625 3.8406 14.625 4.29199V5.05033C16.0695 5.41144 17.2431 6.17428 18.1458 7.33887C19.0486 8.50345 19.5 9.83505 19.5 11.3337V18.917H20.5833C20.8903 18.917 21.1476 19.0208 21.3552 19.2284C21.5629 19.4361 21.6667 19.6934 21.6667 20.0003C21.6667 20.3073 21.5629 20.5646 21.3552 20.7722C21.1476 20.9798 20.8903 21.0837 20.5833 21.0837H5.41668ZM13 24.3337C12.4042 24.3337 11.8941 24.1215 11.4698 23.6972C11.0455 23.2729 10.8333 22.7628 10.8333 22.167H15.1667C15.1667 22.7628 14.9545 23.2729 14.5302 23.6972C14.1059 24.1215 13.5958 24.3337 13 24.3337ZM8.66668 18.917H17.3333V11.3337C17.3333 10.142 16.909 9.12185 16.0604 8.27324C15.2118 7.42463 14.1917 7.00033 13 7.00033C11.8083 7.00033 10.7882 7.42463 9.93959 8.27324C9.09098 9.12185 8.66668 10.142 8.66668 11.3337V18.917Z" fill="white"/>
</g>
</svg>
