<svg width="25" height="25" viewBox="0 0 25 25" fill="none" xmlns="http://www.w3.org/2000/svg">
<path d="M22.6401 6.18994V18.1899C22.6401 18.7399 22.4445 19.2109 22.0531 19.6029C21.6611 19.9943 21.1901 20.1899 20.6401 20.1899H4.64014C4.09014 20.1899 3.61947 19.9943 3.22814 19.6029C2.83614 19.2109 2.64014 18.7399 2.64014 18.1899V6.18994C2.64014 5.63994 2.83614 5.16927 3.22814 4.77794C3.61947 4.38594 4.09014 4.18994 4.64014 4.18994H20.6401C21.1901 4.18994 21.6611 4.38594 22.0531 4.77794C22.4445 5.16927 22.6401 5.63994 22.6401 6.18994ZM4.64014 8.18994H20.6401V6.18994H4.64014V8.18994ZM4.64014 12.1899V18.1899H20.6401V12.1899H4.64014Z" fill="#2563EB"/>
</svg>
