<svg width="26" height="27" viewBox="0 0 26 27" fill="none" xmlns="http://www.w3.org/2000/svg">
<path d="M4.33325 19.9993C4.33325 18.8501 4.7898 17.7479 5.60246 16.9352C6.41511 16.1226 7.51731 15.666 8.66658 15.666H17.3333C18.4825 15.666 19.5847 16.1226 20.3974 16.9352C21.21 17.7479 21.6666 18.8501 21.6666 19.9993C21.6666 20.574 21.4383 21.1251 21.032 21.5314C20.6257 21.9377 20.0746 22.166 19.4999 22.166H6.49992C5.92528 22.166 5.37418 21.9377 4.96785 21.5314C4.56152 21.1251 4.33325 20.574 4.33325 19.9993Z" stroke="#111827" stroke-width="2" stroke-linejoin="round"/>
<path d="M13 11.333C14.7949 11.333 16.25 9.87793 16.25 8.08301C16.25 6.28808 14.7949 4.83301 13 4.83301C11.2051 4.83301 9.75 6.28808 9.75 8.08301C9.75 9.87793 11.2051 11.333 13 11.333Z" stroke="#111827" stroke-width="2"/>
</svg>
