<svg width="368" height="243" viewBox="0 0 368 243" fill="none" xmlns="http://www.w3.org/2000/svg">
<g filter="url(#filter0_d_808_2940)">
<rect x="7" y="6.92114" width="354" height="229.262" rx="15" fill="white"/>
</g>
<path d="M42.6738 202.861L87.0057 171.588L100.57 99.39L153.353 154.357L192.343 131.821L225.625 166.183L276.905 99.39L311.312 131.821L347.042 71.9778" stroke="#111827" stroke-width="1.36498"/>
<path d="M25.5329 48.0195C25.2291 48.0195 24.9561 47.9614 24.7137 47.845C24.473 47.7271 24.2807 47.5655 24.1369 47.3603C23.9931 47.1551 23.9163 46.9208 23.9066 46.6574H24.6337C24.6515 46.8707 24.746 47.046 24.9173 47.1834C25.0886 47.3207 25.2938 47.3894 25.5329 47.3894C25.7235 47.3894 25.8924 47.3458 26.0394 47.2585C26.1881 47.1696 26.3044 47.0477 26.3884 46.8925C26.4741 46.7374 26.5169 46.5605 26.5169 46.3618C26.5169 46.1598 26.4732 45.9796 26.386 45.8213C26.2987 45.663 26.1784 45.5385 26.0249 45.4481C25.873 45.3576 25.6985 45.3115 25.5014 45.3099C25.3511 45.3099 25.2 45.3358 25.0482 45.3875C24.8963 45.4392 24.7735 45.507 24.6798 45.5911L23.9939 45.4893L24.2726 42.9881H27.0016V43.6303H24.8955L24.7379 45.0191H24.767C24.864 44.9254 24.9924 44.847 25.1524 44.784C25.3139 44.721 25.4868 44.6895 25.671 44.6895C25.9732 44.6895 26.2422 44.7614 26.4781 44.9052C26.7156 45.049 26.9022 45.2453 27.038 45.4941C27.1753 45.7413 27.2431 46.0257 27.2415 46.3472C27.2431 46.6688 27.1704 46.9556 27.0234 47.2076C26.878 47.4597 26.676 47.6584 26.4175 47.8038C26.1606 47.9476 25.8657 48.0195 25.5329 48.0195ZM28.1365 47.9517V44.229H28.832V44.8349H28.8781C28.9556 44.6297 29.0825 44.4697 29.2586 44.355C29.4347 44.2387 29.6456 44.1805 29.8912 44.1805C30.14 44.1805 30.3484 44.2387 30.5164 44.355C30.6861 44.4713 30.8113 44.6313 30.8921 44.8349H30.9309C31.0198 44.6362 31.1611 44.4778 31.355 44.3599C31.5489 44.2403 31.78 44.1805 32.0482 44.1805C32.3859 44.1805 32.6613 44.2863 32.8746 44.498C33.0895 44.7097 33.197 45.0288 33.197 45.4553V47.9517H32.4723V45.5232C32.4723 45.2711 32.4036 45.0886 32.2663 44.9755C32.129 44.8624 31.965 44.8058 31.7743 44.8058C31.5384 44.8058 31.355 44.8785 31.2241 45.0239C31.0933 45.1677 31.0278 45.3527 31.0278 45.5789V47.9517H30.3056V45.4771C30.3056 45.2752 30.2426 45.1128 30.1166 44.99C29.9905 44.8672 29.8265 44.8058 29.6246 44.8058C29.4872 44.8058 29.3604 44.8422 29.244 44.9149C29.1293 44.986 29.0364 45.0853 28.9653 45.213C28.8959 45.3406 28.8611 45.4885 28.8611 45.6565V47.9517H28.1365Z" fill="#111827" fill-opacity="0.4"/>
<path d="M26.7841 60.543V65.5066H26.0328V61.2943H26.0037L24.8161 62.0699V61.3525L26.0546 60.543H26.7841ZM28.1365 65.5066V61.7839H28.832V62.3898H28.8781C28.9556 62.1846 29.0825 62.0247 29.2586 61.9099C29.4347 61.7936 29.6456 61.7354 29.8912 61.7354C30.14 61.7354 30.3484 61.7936 30.5164 61.9099C30.6861 62.0263 30.8113 62.1862 30.8921 62.3898H30.9309C31.0198 62.1911 31.1611 62.0327 31.355 61.9148C31.5489 61.7952 31.78 61.7354 32.0482 61.7354C32.3859 61.7354 32.6614 61.8413 32.8746 62.0529C33.0895 62.2646 33.197 62.5837 33.197 63.0103V65.5066H32.4723V63.0781C32.4723 62.8261 32.4036 62.6435 32.2663 62.5304C32.129 62.4173 31.965 62.3607 31.7743 62.3607C31.5384 62.3607 31.355 62.4334 31.2241 62.5789C31.0933 62.7227 31.0278 62.9077 31.0278 63.1339V65.5066H30.3056V63.0321C30.3056 62.8301 30.2426 62.6677 30.1166 62.5449C29.9905 62.4221 29.8265 62.3607 29.6246 62.3607C29.4872 62.3607 29.3604 62.3971 29.244 62.4698C29.1293 62.5409 29.0364 62.6403 28.9653 62.7679C28.8959 62.8955 28.8611 63.0434 28.8611 63.2114V65.5066H28.1365Z" fill="#111827" fill-opacity="0.4"/>
<path d="M18.9546 83.1294C18.6509 83.1294 18.3778 83.0712 18.1355 82.9549C17.8947 82.8369 17.7024 82.6754 17.5586 82.4702C17.4148 82.265 17.3381 82.0307 17.3284 81.7673H18.0555C18.0733 81.9806 18.1678 82.1559 18.339 82.2932C18.5103 82.4306 18.7155 82.4992 18.9546 82.4992C19.1453 82.4992 19.3141 82.4556 19.4612 82.3684C19.6098 82.2795 19.7262 82.1575 19.8102 82.0024C19.8958 81.8473 19.9386 81.6704 19.9386 81.4716C19.9386 81.2697 19.895 81.0895 19.8078 80.9312C19.7205 80.7728 19.6001 80.6484 19.4466 80.5579C19.2948 80.4674 19.1203 80.4214 18.9231 80.4198C18.7729 80.4198 18.6218 80.4456 18.4699 80.4973C18.318 80.549 18.1952 80.6169 18.1015 80.7009L17.4156 80.5991L17.6944 78.098H20.4234V78.7402H18.3172L18.1597 80.1289H18.1888C18.2857 80.0352 18.4142 79.9569 18.5741 79.8939C18.7357 79.8308 18.9086 79.7993 19.0928 79.7993C19.3949 79.7993 19.664 79.8712 19.8999 80.015C20.1374 80.1588 20.324 80.3551 20.4597 80.604C20.597 80.8512 20.6649 81.1356 20.6633 81.4571C20.6649 81.7786 20.5922 82.0654 20.4452 82.3175C20.2998 82.5695 20.0978 82.7683 19.8393 82.9137C19.5824 83.0575 19.2875 83.1294 18.9546 83.1294ZM23.2766 83.1439C22.8936 83.1423 22.5664 83.0413 22.295 82.841C22.0236 82.6406 21.8159 82.349 21.6721 81.966C21.5283 81.5831 21.4564 81.1218 21.4564 80.5822C21.4564 80.0441 21.5283 79.5844 21.6721 79.2031C21.8175 78.8218 22.026 78.531 22.2974 78.3306C22.5705 78.1303 22.8969 78.0301 23.2766 78.0301C23.6563 78.0301 23.9818 78.1311 24.2533 78.333C24.5247 78.5334 24.7323 78.8242 24.8761 79.2055C25.0216 79.5852 25.0943 80.0441 25.0943 80.5822C25.0943 81.1234 25.0224 81.5855 24.8786 81.9685C24.7348 82.3498 24.5271 82.6414 24.2557 82.8434C23.9843 83.0438 23.6579 83.1439 23.2766 83.1439ZM23.2766 82.4968C23.6126 82.4968 23.8752 82.3328 24.0642 82.0048C24.2549 81.6768 24.3502 81.2026 24.3502 80.5822C24.3502 80.1701 24.3066 79.822 24.2193 79.5376C24.1337 79.2516 24.0101 79.0351 23.8485 78.8881C23.6886 78.7394 23.4979 78.6651 23.2766 78.6651C22.9421 78.6651 22.6795 78.8299 22.4889 79.1595C22.2982 79.4891 22.2021 79.9633 22.2005 80.5822C22.2005 80.9958 22.2433 81.3456 22.3289 81.6316C22.4162 81.916 22.5398 82.1317 22.6997 82.2787C22.8597 82.4241 23.052 82.4968 23.2766 82.4968ZM27.6821 83.1439C27.2992 83.1423 26.972 83.0413 26.7005 82.841C26.4291 82.6406 26.2215 82.349 26.0777 81.966C25.9339 81.5831 25.862 81.1218 25.862 80.5822C25.862 80.0441 25.9339 79.5844 26.0777 79.2031C26.2231 78.8218 26.4315 78.531 26.703 78.3306C26.976 78.1303 27.3024 78.0301 27.6821 78.0301C28.0618 78.0301 28.3874 78.1311 28.6588 78.333C28.9303 78.5334 29.1379 78.8242 29.2817 79.2055C29.4271 79.5852 29.4998 80.0441 29.4998 80.5822C29.4998 81.1234 29.4279 81.5855 29.2841 81.9685C29.1403 82.3498 28.9327 82.6414 28.6612 82.8434C28.3898 83.0438 28.0634 83.1439 27.6821 83.1439ZM27.6821 82.4968C28.0182 82.4968 28.2807 82.3328 28.4698 82.0048C28.6604 81.6768 28.7558 81.2026 28.7558 80.5822C28.7558 80.1701 28.7121 79.822 28.6249 79.5376C28.5392 79.2516 28.4156 79.0351 28.2541 78.8881C28.0941 78.7394 27.9034 78.6651 27.6821 78.6651C27.3476 78.6651 27.0851 78.8299 26.8944 79.1595C26.7038 79.4891 26.6076 79.9633 26.606 80.5822C26.606 80.9958 26.6488 81.3456 26.7345 81.6316C26.8217 81.916 26.9453 82.1317 27.1053 82.2787C27.2652 82.4241 27.4575 82.4968 27.6821 82.4968ZM31.0358 81.7988L31.0309 80.9142H31.157L32.6402 79.3388H33.5079L31.8162 81.1323H31.7023L31.0358 81.7988ZM30.3693 83.0615V78.098H31.0939V83.0615H30.3693ZM32.7202 83.0615L31.3872 81.2923L31.8865 80.7857L33.6097 83.0615H32.7202Z" fill="#111827" fill-opacity="0.4"/>
<path d="M20.2058 95.6526V100.616H19.4545V96.404H19.4254L18.2378 97.1795V96.4621L19.4763 95.6526H20.2058ZM23.2765 100.699C22.8936 100.697 22.5664 100.596 22.2949 100.396C22.0235 100.195 21.8159 99.9037 21.6721 99.5207C21.5283 99.1378 21.4564 98.6765 21.4564 98.1368C21.4564 97.5988 21.5283 97.1391 21.6721 96.7578C21.8175 96.3765 22.0259 96.0857 22.2974 95.8853C22.5704 95.685 22.8968 95.5848 23.2765 95.5848C23.6562 95.5848 23.9818 95.6858 24.2532 95.8877C24.5247 96.0881 24.7323 96.3789 24.8761 96.7602C25.0215 97.1399 25.0942 97.5988 25.0942 98.1368C25.0942 98.6781 25.0223 99.1402 24.8785 99.5232C24.7347 99.9045 24.5271 100.196 24.2556 100.398C23.9842 100.598 23.6578 100.699 23.2765 100.699ZM23.2765 100.052C23.6126 100.052 23.8751 99.8875 24.0642 99.5595C24.2548 99.2315 24.3502 98.7573 24.3502 98.1368C24.3502 97.7248 24.3065 97.3766 24.2193 97.0923C24.1336 96.8063 24.01 96.5898 23.8485 96.4427C23.6885 96.2941 23.4979 96.2198 23.2765 96.2198C22.942 96.2198 22.6795 96.3846 22.4888 96.7142C22.2982 97.0438 22.202 97.518 22.2004 98.1368C22.2004 98.5505 22.2432 98.9003 22.3289 99.1863C22.4161 99.4706 22.5397 99.6863 22.6997 99.8334C22.8596 99.9788 23.0519 100.052 23.2765 100.052ZM27.682 100.699C27.2991 100.697 26.9719 100.596 26.7005 100.396C26.429 100.195 26.2214 99.9037 26.0776 99.5207C25.9338 99.1378 25.8619 98.6765 25.8619 98.1368C25.8619 97.5988 25.9338 97.1391 26.0776 96.7578C26.223 96.3765 26.4314 96.0857 26.7029 95.8853C26.9759 95.685 27.3023 95.5848 27.682 95.5848C28.0617 95.5848 28.3873 95.6858 28.6587 95.8877C28.9302 96.0881 29.1378 96.3789 29.2816 96.7602C29.427 97.1399 29.4997 97.5988 29.4997 98.1368C29.4997 98.6781 29.4278 99.1402 29.284 99.5232C29.1402 99.9045 28.9326 100.196 28.6612 100.398C28.3897 100.598 28.0633 100.699 27.682 100.699ZM27.682 100.052C28.0181 100.052 28.2807 99.8875 28.4697 99.5595C28.6604 99.2315 28.7557 98.7573 28.7557 98.1368C28.7557 97.7248 28.7121 97.3766 28.6248 97.0923C28.5392 96.8063 28.4156 96.5898 28.254 96.4427C28.094 96.2941 27.9034 96.2198 27.682 96.2198C27.3476 96.2198 27.085 96.3846 26.8944 96.7142C26.7037 97.0438 26.6076 97.518 26.6059 98.1368C26.6059 98.5505 26.6488 98.9003 26.7344 99.1863C26.8216 99.4706 26.9452 99.6863 27.1052 99.8334C27.2652 99.9788 27.4574 100.052 27.682 100.052ZM31.0357 99.3535L31.0309 98.4689H31.1569L32.6401 96.8935H33.5078L31.8161 98.687H31.7022L31.0357 99.3535ZM30.3692 100.616V95.6526H31.0939V100.616H30.3692ZM32.7201 100.616L31.3871 98.847L31.8864 98.3404L33.6096 100.616H32.7201Z" fill="#111827" fill-opacity="0.4"/>
<path d="M23.3601 118.239C23.0563 118.239 22.7833 118.181 22.5409 118.065C22.3002 117.947 22.1079 117.785 21.9641 117.58C21.8203 117.375 21.7436 117.14 21.7339 116.877H22.4609C22.4787 117.09 22.5732 117.266 22.7445 117.403C22.9158 117.54 23.121 117.609 23.3601 117.609C23.5508 117.609 23.7196 117.565 23.8666 117.478C24.0153 117.389 24.1316 117.267 24.2156 117.112C24.3013 116.957 24.3441 116.78 24.3441 116.581C24.3441 116.379 24.3005 116.199 24.2132 116.041C24.126 115.882 24.0056 115.758 23.8521 115.668C23.7002 115.577 23.5257 115.531 23.3286 115.529C23.1783 115.529 23.0273 115.555 22.8754 115.607C22.7235 115.659 22.6007 115.727 22.507 115.811L21.8211 115.709L22.0998 113.208H24.8288V113.85H22.7227L22.5652 115.239H22.5942C22.6912 115.145 22.8196 115.066 22.9796 115.003C23.1412 114.94 23.3141 114.909 23.4983 114.909C23.8004 114.909 24.0694 114.981 24.3053 115.125C24.5428 115.268 24.7295 115.465 24.8652 115.714C25.0025 115.961 25.0704 116.245 25.0688 116.567C25.0704 116.888 24.9977 117.175 24.8506 117.427C24.7052 117.679 24.5032 117.878 24.2447 118.023C23.9878 118.167 23.693 118.239 23.3601 118.239ZM27.682 118.254C27.2991 118.252 26.9719 118.151 26.7005 117.951C26.429 117.75 26.2214 117.459 26.0776 117.076C25.9338 116.693 25.8619 116.231 25.8619 115.692C25.8619 115.154 25.9338 114.694 26.0776 114.313C26.223 113.931 26.4314 113.641 26.7029 113.44C26.9759 113.24 27.3023 113.14 27.682 113.14C28.0617 113.14 28.3873 113.241 28.6587 113.443C28.9302 113.643 29.1378 113.934 29.2816 114.315C29.427 114.695 29.4997 115.154 29.4997 115.692C29.4997 116.233 29.4278 116.695 29.284 117.078C29.1402 117.459 28.9326 117.751 28.6612 117.953C28.3897 118.153 28.0633 118.254 27.682 118.254ZM27.682 117.606C28.0181 117.606 28.2807 117.442 28.4697 117.114C28.6604 116.786 28.7557 116.312 28.7557 115.692C28.7557 115.28 28.7121 114.932 28.6248 114.647C28.5392 114.361 28.4156 114.145 28.254 113.998C28.094 113.849 27.9034 113.775 27.682 113.775C27.3476 113.775 27.085 113.94 26.8944 114.269C26.7037 114.599 26.6076 115.073 26.6059 115.692C26.6059 116.105 26.6488 116.455 26.7344 116.741C26.8216 117.026 26.9452 117.241 27.1052 117.388C27.2652 117.534 27.4574 117.606 27.682 117.606ZM31.0357 116.908L31.0309 116.024H31.1569L32.6401 114.448H33.5078L31.8161 116.242H31.7022L31.0357 116.908ZM30.3692 118.171V113.208H31.0939V118.171H30.3692ZM32.7201 118.171L31.3871 116.402L31.8864 115.895L33.6096 118.171H32.7201Z" fill="#111827" fill-opacity="0.4"/>
<path d="M21.7684 135.726V135.183L23.448 133.443C23.6273 133.254 23.7752 133.088 23.8915 132.946C24.0094 132.802 24.0975 132.666 24.1557 132.537C24.2138 132.407 24.2429 132.27 24.2429 132.125C24.2429 131.96 24.2041 131.818 24.1266 131.698C24.049 131.577 23.9432 131.484 23.8091 131.419C23.675 131.353 23.5239 131.32 23.3559 131.32C23.1781 131.32 23.023 131.356 22.8905 131.429C22.758 131.502 22.6563 131.604 22.5852 131.737C22.5141 131.869 22.4785 132.024 22.4785 132.202H21.7636C21.7636 131.9 21.833 131.636 21.972 131.41C22.1109 131.183 22.3016 131.008 22.544 130.884C22.7863 130.758 23.0618 130.695 23.3704 130.695C23.6823 130.695 23.9569 130.757 24.1944 130.881C24.4336 131.004 24.6202 131.172 24.7543 131.385C24.8884 131.597 24.9555 131.836 24.9555 132.103C24.9555 132.287 24.9207 132.467 24.8512 132.643C24.7834 132.819 24.6646 133.016 24.495 133.232C24.3253 133.447 24.0894 133.708 23.7873 134.015L22.8009 135.047V135.084H25.0354V135.726H21.7684ZM27.682 135.808C27.2991 135.807 26.9719 135.706 26.7005 135.506C26.429 135.305 26.2214 135.014 26.0776 134.631C25.9338 134.248 25.8619 133.786 25.8619 133.247C25.8619 132.709 25.9338 132.249 26.0776 131.868C26.223 131.486 26.4314 131.196 26.7029 130.995C26.9759 130.795 27.3023 130.695 27.682 130.695C28.0617 130.695 28.3873 130.796 28.6587 130.998C28.9302 131.198 29.1378 131.489 29.2816 131.87C29.427 132.25 29.4997 132.709 29.4997 133.247C29.4997 133.788 29.4278 134.25 29.284 134.633C29.1402 135.014 28.9326 135.306 28.6612 135.508C28.3897 135.708 28.0633 135.808 27.682 135.808ZM27.682 135.161C28.0181 135.161 28.2807 134.997 28.4697 134.669C28.6604 134.341 28.7557 133.867 28.7557 133.247C28.7557 132.835 28.7121 132.487 28.6248 132.202C28.5392 131.916 28.4156 131.7 28.254 131.553C28.094 131.404 27.9034 131.33 27.682 131.33C27.3476 131.33 27.085 131.494 26.8944 131.824C26.7037 132.154 26.6076 132.628 26.6059 133.247C26.6059 133.66 26.6488 134.01 26.7344 134.296C26.8216 134.581 26.9452 134.796 27.1052 134.943C27.2652 135.089 27.4574 135.161 27.682 135.161ZM31.0357 134.463L31.0309 133.579H31.1569L32.6401 132.003H33.5078L31.8161 133.797H31.7022L31.0357 134.463ZM30.3692 135.726V130.763H31.0939V135.726H30.3692ZM32.7201 135.726L31.3871 133.957L31.8864 133.45L33.6096 135.726H32.7201Z" fill="#111827" fill-opacity="0.4"/>
<path d="M24.6113 148.317V153.281H23.86V149.069H23.8309L22.6433 149.844V149.127L23.8818 148.317H24.6113ZM27.682 153.363C27.2991 153.362 26.9719 153.261 26.7005 153.06C26.429 152.86 26.2214 152.568 26.0776 152.185C25.9338 151.802 25.8619 151.341 25.8619 150.801C25.8619 150.263 25.9338 149.804 26.0776 149.422C26.223 149.041 26.4314 148.75 26.7029 148.55C26.9759 148.35 27.3023 148.249 27.682 148.249C28.0617 148.249 28.3873 148.35 28.6587 148.552C28.9302 148.753 29.1378 149.043 29.2816 149.425C29.427 149.804 29.4997 150.263 29.4997 150.801C29.4997 151.343 29.4278 151.805 29.284 152.188C29.1402 152.569 28.9326 152.861 28.6612 153.063C28.3897 153.263 28.0633 153.363 27.682 153.363ZM27.682 152.716C28.0181 152.716 28.2807 152.552 28.4697 152.224C28.6604 151.896 28.7557 151.422 28.7557 150.801C28.7557 150.389 28.7121 150.041 28.6248 149.757C28.5392 149.471 28.4156 149.254 28.254 149.107C28.094 148.959 27.9034 148.884 27.682 148.884C27.3476 148.884 27.085 149.049 26.8944 149.379C26.7037 149.708 26.6076 150.183 26.6059 150.801C26.6059 151.215 26.6488 151.565 26.7344 151.851C26.8216 152.135 26.9452 152.351 27.1052 152.498C27.2652 152.643 27.4574 152.716 27.682 152.716ZM31.0357 152.018L31.0309 151.133H31.1569L32.6401 149.558H33.5078L31.8161 151.352H31.7022L31.0357 152.018ZM30.3692 153.281V148.317H31.0939V153.281H30.3692ZM32.7201 153.281L31.3871 151.512L31.8864 151.005L33.6096 153.281H32.7201Z" fill="#111827" fill-opacity="0.4"/>
<path d="M31.481 170.918C31.0981 170.916 30.7709 170.815 30.4995 170.615C30.228 170.415 30.0204 170.123 29.8766 169.74C29.7328 169.357 29.6609 168.896 29.6609 168.356C29.6609 167.818 29.7328 167.359 29.8766 166.977C30.022 166.596 30.2305 166.305 30.5019 166.105C30.775 165.904 31.1013 165.804 31.481 165.804C31.8607 165.804 32.1863 165.905 32.4578 166.107C32.7292 166.308 32.9368 166.598 33.0806 166.98C33.2261 167.359 33.2988 167.818 33.2988 168.356C33.2988 168.898 33.2269 169.36 33.0831 169.743C32.9393 170.124 32.7316 170.416 32.4602 170.618C32.1887 170.818 31.8624 170.918 31.481 170.918ZM31.481 170.271C31.8171 170.271 32.0797 170.107 32.2687 169.779C32.4594 169.451 32.5547 168.977 32.5547 168.356C32.5547 167.944 32.5111 167.596 32.4238 167.312C32.3382 167.026 32.2146 166.809 32.053 166.662C31.8931 166.514 31.7024 166.439 31.481 166.439C31.1466 166.439 30.884 166.604 30.6934 166.934C30.5027 167.263 30.4066 167.738 30.405 168.356C30.405 168.77 30.4478 169.12 30.5334 169.406C30.6207 169.69 30.7443 169.906 30.9042 170.053C31.0642 170.198 31.2565 170.271 31.481 170.271Z" fill="#111827" fill-opacity="0.4"/>
<path d="M44.4051 214.677H45.1516V218.196C45.1516 218.514 45.0886 218.786 44.9625 219.012C44.8381 219.239 44.6628 219.412 44.4366 219.531C44.2104 219.649 43.9454 219.708 43.6417 219.708C43.3621 219.708 43.1109 219.657 42.8879 219.555C42.6665 219.454 42.4912 219.306 42.362 219.112C42.2343 218.916 42.1705 218.679 42.1705 218.399H42.9146C42.9146 218.537 42.9461 218.655 43.0091 218.756C43.0737 218.856 43.1618 218.934 43.2733 218.991C43.3864 219.046 43.5156 219.073 43.661 219.073C43.8194 219.073 43.9535 219.04 44.0634 218.974C44.1748 218.906 44.2597 218.806 44.3178 218.676C44.376 218.545 44.4051 218.385 44.4051 218.196V214.677ZM47.2668 219.723C47.0309 219.723 46.8176 219.679 46.6269 219.592C46.4363 219.503 46.2852 219.374 46.1737 219.206C46.0639 219.038 46.0089 218.832 46.0089 218.588C46.0089 218.378 46.0493 218.205 46.1301 218.07C46.2109 217.934 46.32 217.826 46.4573 217.747C46.5946 217.668 46.7481 217.608 46.9178 217.568C47.0874 217.528 47.2603 217.497 47.4364 217.476C47.6594 217.45 47.8404 217.429 47.9793 217.413C48.1183 217.395 48.2193 217.367 48.2823 217.328C48.3453 217.289 48.3768 217.226 48.3768 217.139V217.122C48.3768 216.91 48.317 216.746 48.1974 216.63C48.0795 216.514 47.9034 216.456 47.6691 216.456C47.4251 216.456 47.2328 216.51 47.0923 216.618C46.9533 216.725 46.8572 216.843 46.8039 216.974L46.1228 216.819C46.2036 216.593 46.3216 216.41 46.4767 216.271C46.6334 216.131 46.8136 216.029 47.0171 215.966C47.2207 215.901 47.4348 215.869 47.6594 215.869C47.8081 215.869 47.9656 215.887 48.132 215.922C48.3 215.956 48.4568 216.019 48.6022 216.111C48.7492 216.203 48.8696 216.335 48.9633 216.506C49.057 216.676 49.1039 216.897 49.1039 217.168V219.64H48.3962V219.131H48.3671C48.3202 219.225 48.25 219.317 48.1562 219.407C48.0625 219.498 47.9422 219.573 47.7951 219.633C47.6481 219.693 47.472 219.723 47.2668 219.723ZM47.4243 219.141C47.6247 219.141 47.7959 219.101 47.9381 219.022C48.0819 218.943 48.191 218.84 48.2653 218.712C48.3412 218.583 48.3792 218.444 48.3792 218.297V217.818C48.3534 217.843 48.3033 217.868 48.229 217.89C48.1562 217.911 48.073 217.93 47.9793 217.946C47.8856 217.961 47.7943 217.974 47.7055 217.987C47.6166 217.999 47.5423 218.008 47.4825 218.016C47.3419 218.034 47.2135 218.064 47.0971 218.106C46.9824 218.148 46.8903 218.209 46.8208 218.288C46.753 218.365 46.719 218.469 46.719 218.598C46.719 218.777 46.7853 218.913 46.9178 219.005C47.0503 219.096 47.2191 219.141 47.4243 219.141ZM50.7937 217.43V219.64H50.0691V215.917H50.7647V216.523H50.8107C50.8963 216.326 51.0305 216.168 51.213 216.048C51.3972 215.929 51.6291 215.869 51.9086 215.869C52.1623 215.869 52.3844 215.922 52.5751 216.029C52.7658 216.134 52.9136 216.291 53.0186 216.499C53.1237 216.708 53.1762 216.965 53.1762 217.272V219.64H52.4515V217.36C52.4515 217.09 52.3812 216.879 52.2406 216.727C52.1001 216.573 51.907 216.497 51.6614 216.497C51.4934 216.497 51.3439 216.533 51.213 216.606C51.0838 216.678 50.9812 216.785 50.9052 216.926C50.8309 217.065 50.7937 217.233 50.7937 217.43Z" fill="#111827" fill-opacity="0.4"/>
<path d="M68.8523 219.64V214.677H71.9303V215.321H69.6012V216.834H71.7097V217.476H69.6012V219.64H68.8523ZM74.1243 219.715C73.7575 219.715 73.4416 219.637 73.1766 219.48C72.9133 219.322 72.7097 219.1 72.5659 218.814C72.4237 218.526 72.3526 218.189 72.3526 217.803C72.3526 217.422 72.4237 217.086 72.5659 216.795C72.7097 216.504 72.91 216.277 73.1669 216.114C73.4255 215.951 73.7276 215.869 74.0734 215.869C74.2834 215.869 74.487 215.904 74.6841 215.973C74.8812 216.043 75.0582 216.152 75.2149 216.3C75.3716 216.449 75.4952 216.642 75.5857 216.88C75.6762 217.116 75.7214 217.402 75.7214 217.74V217.997H72.7622V217.454H75.0113C75.0113 217.263 74.9725 217.095 74.895 216.947C74.8174 216.799 74.7084 216.682 74.5678 216.596C74.4288 216.51 74.2656 216.468 74.0782 216.468C73.8746 216.468 73.6969 216.518 73.545 216.618C73.3948 216.716 73.2784 216.846 73.196 217.006C73.1152 217.164 73.0748 217.336 73.0748 217.522V217.946C73.0748 218.195 73.1185 218.407 73.2057 218.581C73.2946 218.756 73.4182 218.889 73.5765 218.981C73.7349 219.071 73.9199 219.117 74.1315 219.117C74.2689 219.117 74.3941 219.097 74.5072 219.058C74.6203 219.018 74.718 218.958 74.8005 218.879C74.8829 218.8 74.9459 218.702 74.9895 218.586L75.6754 218.709C75.6204 218.911 75.5219 219.088 75.3797 219.24C75.2391 219.391 75.0622 219.508 74.8489 219.592C74.6373 219.674 74.3957 219.715 74.1243 219.715ZM76.5836 219.64V214.677H77.3083V216.521H77.3519C77.3939 216.443 77.4545 216.354 77.5337 216.252C77.6129 216.15 77.7227 216.061 77.8633 215.985C78.0039 215.908 78.1897 215.869 78.4207 215.869C78.7213 215.869 78.9895 215.945 79.2254 216.097C79.4613 216.249 79.6463 216.468 79.7804 216.754C79.9161 217.04 79.984 217.384 79.984 217.786C79.984 218.188 79.9169 218.533 79.7828 218.821C79.6487 219.107 79.4645 219.327 79.2302 219.483C78.9959 219.636 78.7285 219.713 78.428 219.713C78.2018 219.713 78.0168 219.675 77.873 219.599C77.7308 219.523 77.6193 219.434 77.5385 219.332C77.4577 219.231 77.3955 219.14 77.3519 219.061H77.2913V219.64H76.5836ZM77.2937 217.779C77.2937 218.041 77.3317 218.27 77.4077 218.467C77.4836 218.664 77.5935 218.819 77.7373 218.93C77.8811 219.04 78.0572 219.095 78.2656 219.095C78.4821 219.095 78.6631 219.037 78.8085 218.923C78.9539 218.806 79.0638 218.649 79.1381 218.45C79.2141 218.251 79.252 218.028 79.252 217.779C79.252 217.533 79.2149 217.313 79.1405 217.117C79.0678 216.922 78.958 216.767 78.8109 216.654C78.6655 216.541 78.4837 216.485 78.2656 216.485C78.0556 216.485 77.8778 216.539 77.7324 216.647C77.5886 216.755 77.4796 216.906 77.4052 217.1C77.3309 217.294 77.2937 217.52 77.2937 217.779Z" fill="#111827" fill-opacity="0.4"/>
<path d="M94.8757 214.677H95.7845L97.3647 218.535H97.4229L99.0031 214.677H99.912V219.64H99.1994V216.048H99.1534L97.6895 219.633H97.0981L95.6343 216.046H95.5882V219.64H94.8757V214.677ZM102.026 219.723C101.79 219.723 101.577 219.679 101.386 219.592C101.195 219.503 101.044 219.374 100.933 219.206C100.823 219.038 100.768 218.832 100.768 218.588C100.768 218.378 100.808 218.205 100.889 218.07C100.97 217.934 101.079 217.826 101.216 217.747C101.354 217.668 101.507 217.608 101.677 217.568C101.847 217.528 102.02 217.497 102.196 217.476C102.419 217.45 102.6 217.429 102.739 217.413C102.877 217.395 102.978 217.367 103.041 217.328C103.104 217.289 103.136 217.226 103.136 217.139V217.122C103.136 216.91 103.076 216.746 102.957 216.63C102.839 216.514 102.663 216.456 102.428 216.456C102.184 216.456 101.992 216.51 101.851 216.618C101.713 216.725 101.616 216.843 101.563 216.974L100.882 216.819C100.963 216.593 101.081 216.41 101.236 216.271C101.393 216.131 101.573 216.029 101.776 215.966C101.98 215.901 102.194 215.869 102.419 215.869C102.567 215.869 102.725 215.887 102.891 215.922C103.059 215.956 103.216 216.019 103.361 216.111C103.508 216.203 103.629 216.335 103.722 216.506C103.816 216.676 103.863 216.897 103.863 217.168V219.64H103.155V219.131H103.126C103.079 219.225 103.009 219.317 102.915 219.407C102.822 219.498 102.701 219.573 102.554 219.633C102.407 219.693 102.231 219.723 102.026 219.723ZM102.183 219.141C102.384 219.141 102.555 219.101 102.697 219.022C102.841 218.943 102.95 218.84 103.024 218.712C103.1 218.583 103.138 218.444 103.138 218.297V217.818C103.113 217.843 103.062 217.868 102.988 217.89C102.915 217.911 102.832 217.93 102.739 217.946C102.645 217.961 102.554 217.974 102.465 217.987C102.376 217.999 102.301 218.008 102.242 218.016C102.101 218.034 101.973 218.064 101.856 218.106C101.742 218.148 101.649 218.209 101.58 218.288C101.512 218.365 101.478 218.469 101.478 218.598C101.478 218.777 101.544 218.913 101.677 219.005C101.809 219.096 101.978 219.141 102.183 219.141ZM104.828 219.64V215.917H105.529V216.509H105.567C105.635 216.308 105.755 216.151 105.926 216.036C106.099 215.92 106.295 215.862 106.513 215.862C106.558 215.862 106.611 215.863 106.673 215.867C106.736 215.87 106.785 215.874 106.82 215.879V216.572C106.791 216.564 106.74 216.555 106.665 216.545C106.591 216.534 106.517 216.528 106.442 216.528C106.271 216.528 106.118 216.565 105.984 216.637C105.852 216.708 105.747 216.808 105.669 216.935C105.592 217.061 105.553 217.205 105.553 217.367V219.64H104.828Z" fill="#111827" fill-opacity="0.4"/>
<path d="M121.965 219.64H121.17L122.956 214.677H123.821L125.607 219.64H124.812L123.409 215.578H123.37L121.965 219.64ZM122.098 217.696H124.677V218.327H122.098V217.696ZM126.266 221.036V215.917H126.974V216.521H127.034C127.076 216.443 127.137 216.354 127.216 216.252C127.295 216.15 127.405 216.061 127.546 215.985C127.686 215.908 127.872 215.869 128.103 215.869C128.404 215.869 128.672 215.945 128.908 216.097C129.144 216.249 129.329 216.468 129.463 216.754C129.598 217.04 129.666 217.384 129.666 217.786C129.666 218.188 129.599 218.533 129.465 218.821C129.331 219.107 129.147 219.327 128.913 219.483C128.678 219.636 128.411 219.713 128.11 219.713C127.884 219.713 127.699 219.675 127.555 219.599C127.413 219.523 127.302 219.434 127.221 219.332C127.14 219.231 127.078 219.14 127.034 219.061H126.991V221.036H126.266ZM126.976 217.779C126.976 218.041 127.014 218.27 127.09 218.467C127.166 218.664 127.276 218.819 127.42 218.93C127.563 219.04 127.739 219.095 127.948 219.095C128.164 219.095 128.345 219.037 128.491 218.923C128.636 218.806 128.746 218.649 128.82 218.45C128.896 218.251 128.934 218.028 128.934 217.779C128.934 217.533 128.897 217.313 128.823 217.117C128.75 216.922 128.64 216.767 128.493 216.654C128.348 216.541 128.166 216.485 127.948 216.485C127.738 216.485 127.56 216.539 127.415 216.647C127.271 216.755 127.162 216.906 127.088 217.1C127.013 217.294 126.976 217.52 126.976 217.779ZM130.478 219.64V215.917H131.179V216.509H131.217C131.285 216.308 131.405 216.151 131.576 216.036C131.749 215.92 131.944 215.862 132.163 215.862C132.208 215.862 132.261 215.863 132.323 215.867C132.386 215.87 132.435 215.874 132.47 215.879V216.572C132.441 216.564 132.39 216.555 132.315 216.545C132.241 216.534 132.167 216.528 132.092 216.528C131.921 216.528 131.768 216.565 131.634 216.637C131.502 216.708 131.397 216.808 131.319 216.935C131.242 217.061 131.203 217.205 131.203 217.367V219.64H130.478Z" fill="#111827" fill-opacity="0.4"/>
<path d="M147.062 214.677H147.971L149.551 218.535H149.609L151.19 214.677H152.098V219.64H151.386V216.048H151.34L149.876 219.633H149.285L147.821 216.046H147.775V219.64H147.062V214.677ZM154.212 219.723C153.977 219.723 153.763 219.679 153.573 219.592C153.382 219.503 153.231 219.374 153.119 219.206C153.01 219.038 152.955 218.832 152.955 218.588C152.955 218.378 152.995 218.205 153.076 218.07C153.157 217.934 153.266 217.826 153.403 217.747C153.54 217.668 153.694 217.608 153.863 217.568C154.033 217.528 154.206 217.497 154.382 217.476C154.605 217.45 154.786 217.429 154.925 217.413C155.064 217.395 155.165 217.367 155.228 217.328C155.291 217.289 155.322 217.226 155.322 217.139V217.122C155.322 216.91 155.263 216.746 155.143 216.63C155.025 216.514 154.849 216.456 154.615 216.456C154.371 216.456 154.179 216.51 154.038 216.618C153.899 216.725 153.803 216.843 153.75 216.974L153.069 216.819C153.149 216.593 153.267 216.41 153.422 216.271C153.579 216.131 153.759 216.029 153.963 215.966C154.166 215.901 154.381 215.869 154.605 215.869C154.754 215.869 154.911 215.887 155.078 215.922C155.246 215.956 155.402 216.019 155.548 216.111C155.695 216.203 155.815 216.335 155.909 216.506C156.003 216.676 156.05 216.897 156.05 217.168V219.64H155.342V219.131H155.313C155.266 219.225 155.196 219.317 155.102 219.407C155.008 219.498 154.888 219.573 154.741 219.633C154.594 219.693 154.418 219.723 154.212 219.723ZM154.37 219.141C154.57 219.141 154.742 219.101 154.884 219.022C155.028 218.943 155.137 218.84 155.211 218.712C155.287 218.583 155.325 218.444 155.325 218.297V217.818C155.299 217.843 155.249 217.868 155.175 217.89C155.102 217.911 155.019 217.93 154.925 217.946C154.831 217.961 154.74 217.974 154.651 217.987C154.562 217.999 154.488 218.008 154.428 218.016C154.288 218.034 154.159 218.064 154.043 218.106C153.928 218.148 153.836 218.209 153.767 218.288C153.699 218.365 153.665 218.469 153.665 218.598C153.665 218.777 153.731 218.913 153.863 219.005C153.996 219.096 154.165 219.141 154.37 219.141ZM157.34 221.036C157.231 221.036 157.133 221.027 157.044 221.009C156.955 220.993 156.889 220.976 156.845 220.956L157.02 220.362C157.152 220.398 157.27 220.413 157.373 220.408C157.477 220.404 157.568 220.365 157.647 220.292C157.728 220.219 157.799 220.101 157.861 219.936L157.95 219.689L156.588 215.917H157.364L158.307 218.806H158.345L159.288 215.917H160.066L158.532 220.137C158.461 220.331 158.37 220.495 158.261 220.629C158.151 220.765 158.02 220.866 157.868 220.934C157.716 221.002 157.54 221.036 157.34 221.036Z" fill="#111827" fill-opacity="0.4"/>
<path d="M176.481 214.677H177.227V218.196C177.227 218.514 177.164 218.786 177.038 219.012C176.914 219.239 176.739 219.412 176.512 219.531C176.286 219.649 176.021 219.708 175.717 219.708C175.438 219.708 175.187 219.657 174.964 219.555C174.742 219.454 174.567 219.306 174.438 219.112C174.31 218.916 174.246 218.679 174.246 218.399H174.99C174.99 218.537 175.022 218.655 175.085 218.756C175.149 218.856 175.238 218.934 175.349 218.991C175.462 219.046 175.591 219.073 175.737 219.073C175.895 219.073 176.029 219.04 176.139 218.974C176.251 218.906 176.335 218.806 176.394 218.676C176.452 218.545 176.481 218.385 176.481 218.196V214.677ZM180.617 218.096V215.917H181.344V219.64H180.632V218.995H180.593C180.507 219.194 180.37 219.36 180.181 219.492C179.994 219.623 179.76 219.689 179.481 219.689C179.242 219.689 179.03 219.636 178.846 219.531C178.663 219.424 178.519 219.267 178.414 219.058C178.311 218.85 178.259 218.592 178.259 218.285V215.917H178.984V218.198C178.984 218.452 179.054 218.654 179.195 218.804C179.335 218.954 179.518 219.029 179.742 219.029C179.878 219.029 180.013 218.995 180.147 218.928C180.283 218.86 180.395 218.757 180.484 218.62C180.575 218.482 180.619 218.308 180.617 218.096ZM183.043 217.43V219.64H182.318V215.917H183.014V216.523H183.06C183.145 216.326 183.279 216.168 183.462 216.048C183.646 215.929 183.878 215.869 184.158 215.869C184.411 215.869 184.633 215.922 184.824 216.029C185.015 216.134 185.163 216.291 185.268 216.499C185.373 216.708 185.425 216.965 185.425 217.272V219.64H184.701V217.36C184.701 217.09 184.63 216.879 184.49 216.727C184.349 216.573 184.156 216.497 183.91 216.497C183.742 216.497 183.593 216.533 183.462 216.606C183.333 216.678 183.23 216.785 183.154 216.926C183.08 217.065 183.043 217.233 183.043 217.43Z" fill="#111827" fill-opacity="0.4"/>
<path d="M202.644 214.677H203.391V218.196C203.391 218.514 203.328 218.786 203.202 219.012C203.077 219.239 202.902 219.412 202.676 219.531C202.45 219.649 202.185 219.708 201.881 219.708C201.601 219.708 201.35 219.657 201.127 219.555C200.906 219.454 200.731 219.306 200.601 219.112C200.474 218.916 200.41 218.679 200.41 218.399H201.154C201.154 218.537 201.185 218.655 201.248 218.756C201.313 218.856 201.401 218.934 201.513 218.991C201.626 219.046 201.755 219.073 201.9 219.073C202.059 219.073 202.193 219.04 202.303 218.974C202.414 218.906 202.499 218.806 202.557 218.676C202.615 218.545 202.644 218.385 202.644 218.196V214.677ZM206.781 218.096V215.917H207.508V219.64H206.795V218.995H206.757C206.671 219.194 206.534 219.36 206.345 219.492C206.157 219.623 205.924 219.689 205.644 219.689C205.405 219.689 205.193 219.636 205.009 219.531C204.827 219.424 204.683 219.267 204.578 219.058C204.474 218.85 204.423 218.592 204.423 218.285V215.917H205.147V218.198C205.147 218.452 205.218 218.654 205.358 218.804C205.499 218.954 205.681 219.029 205.906 219.029C206.042 219.029 206.177 218.995 206.311 218.928C206.446 218.86 206.559 218.757 206.648 218.62C206.738 218.482 206.783 218.308 206.781 218.096ZM209.206 214.677V219.64H208.482V214.677H209.206ZM210.639 221.036C210.531 221.036 210.433 221.027 210.344 221.009C210.255 220.993 210.189 220.976 210.145 220.956L210.319 220.362C210.452 220.398 210.57 220.413 210.673 220.408C210.777 220.404 210.868 220.365 210.947 220.292C211.028 220.219 211.099 220.101 211.16 219.936L211.25 219.689L209.888 215.917H210.664L211.606 218.806H211.645L212.588 215.917H213.366L211.832 220.137C211.761 220.331 211.67 220.495 211.56 220.629C211.45 220.765 211.32 220.866 211.168 220.934C211.016 221.002 210.84 221.036 210.639 221.036Z" fill="#111827" fill-opacity="0.4"/>
<path d="M229.124 219.64H228.329L230.115 214.677H230.981L232.767 219.64H231.972L230.569 215.578H230.53L229.124 219.64ZM229.257 217.696H231.836V218.327H229.257V217.696ZM235.784 218.096V215.917H236.511V219.64H235.798V218.995H235.759C235.674 219.194 235.536 219.36 235.347 219.492C235.16 219.623 234.926 219.689 234.647 219.689C234.408 219.689 234.196 219.636 234.012 219.531C233.829 219.424 233.686 219.267 233.581 219.058C233.477 218.85 233.425 218.592 233.425 218.285V215.917H234.15V218.198C234.15 218.452 234.22 218.654 234.361 218.804C234.502 218.954 234.684 219.029 234.909 219.029C235.044 219.029 235.179 218.995 235.313 218.928C235.449 218.86 235.561 218.757 235.65 218.62C235.741 218.482 235.785 218.308 235.784 218.096ZM239.045 221.114C238.75 221.114 238.495 221.075 238.282 220.997C238.07 220.92 237.897 220.817 237.763 220.69C237.629 220.562 237.529 220.422 237.463 220.27L238.085 220.013C238.129 220.084 238.187 220.16 238.26 220.239C238.334 220.32 238.434 220.388 238.56 220.445C238.688 220.501 238.852 220.53 239.052 220.53C239.327 220.53 239.554 220.463 239.733 220.328C239.913 220.196 240.003 219.984 240.003 219.693V218.962H239.956C239.913 219.041 239.85 219.129 239.767 219.226C239.687 219.323 239.575 219.407 239.433 219.478C239.291 219.549 239.106 219.584 238.878 219.584C238.584 219.584 238.319 219.516 238.083 219.378C237.849 219.239 237.663 219.035 237.526 218.765C237.39 218.494 237.322 218.16 237.322 217.764C237.322 217.368 237.389 217.029 237.523 216.746C237.659 216.464 237.845 216.247 238.081 216.097C238.316 215.945 238.584 215.869 238.883 215.869C239.114 215.869 239.3 215.908 239.443 215.985C239.585 216.061 239.696 216.15 239.775 216.252C239.855 216.354 239.918 216.443 239.961 216.521H240.015V215.917H240.725V219.723C240.725 220.042 240.65 220.305 240.502 220.51C240.353 220.715 240.152 220.867 239.898 220.966C239.646 221.064 239.362 221.114 239.045 221.114ZM239.038 218.983C239.246 218.983 239.422 218.935 239.566 218.838C239.712 218.739 239.822 218.599 239.896 218.416C239.972 218.232 240.01 218.011 240.01 217.755C240.01 217.504 239.973 217.284 239.898 217.093C239.824 216.902 239.715 216.754 239.571 216.647C239.427 216.539 239.25 216.485 239.038 216.485C238.82 216.485 238.638 216.541 238.493 216.654C238.347 216.766 238.237 216.918 238.163 217.11C238.09 217.302 238.054 217.517 238.054 217.755C238.054 217.999 238.091 218.213 238.165 218.397C238.24 218.581 238.35 218.725 238.495 218.828C238.642 218.932 238.823 218.983 239.038 218.983Z" fill="#111827" fill-opacity="0.4"/>
<path d="M258.962 215.98C258.937 215.751 258.83 215.573 258.643 215.447C258.455 215.32 258.219 215.256 257.935 215.256C257.731 215.256 257.555 215.288 257.406 215.353C257.258 215.416 257.142 215.503 257.06 215.615C256.979 215.724 256.939 215.85 256.939 215.99C256.939 216.108 256.966 216.21 257.021 216.296C257.078 216.381 257.151 216.453 257.242 216.511C257.334 216.568 257.432 216.615 257.537 216.654C257.642 216.691 257.743 216.722 257.84 216.746L258.325 216.872C258.483 216.911 258.646 216.964 258.812 217.03C258.979 217.096 259.133 217.183 259.275 217.292C259.417 217.4 259.532 217.534 259.619 217.694C259.708 217.854 259.753 218.045 259.753 218.268C259.753 218.55 259.68 218.799 259.534 219.017C259.391 219.235 259.181 219.407 258.907 219.533C258.634 219.66 258.303 219.723 257.915 219.723C257.544 219.723 257.222 219.664 256.951 219.546C256.679 219.428 256.467 219.26 256.313 219.044C256.16 218.826 256.075 218.567 256.059 218.268H256.81C256.825 218.448 256.883 218.597 256.985 218.717C257.088 218.835 257.22 218.923 257.38 218.981C257.541 219.037 257.718 219.066 257.911 219.066C258.122 219.066 258.31 219.033 258.475 218.966C258.642 218.899 258.773 218.805 258.868 218.685C258.963 218.564 259.011 218.423 259.011 218.261C259.011 218.114 258.969 217.994 258.885 217.9C258.802 217.806 258.69 217.729 258.548 217.667C258.407 217.606 258.248 217.552 258.071 217.505L257.484 217.345C257.087 217.237 256.771 217.078 256.539 216.868C256.308 216.657 256.192 216.38 256.192 216.034C256.192 215.748 256.27 215.498 256.425 215.285C256.58 215.072 256.79 214.906 257.055 214.788C257.32 214.668 257.619 214.609 257.952 214.609C258.288 214.609 258.584 214.668 258.841 214.786C259.1 214.904 259.303 215.066 259.452 215.273C259.601 215.478 259.678 215.714 259.685 215.98H258.962ZM262.194 219.715C261.827 219.715 261.511 219.637 261.246 219.48C260.983 219.322 260.779 219.1 260.635 218.814C260.493 218.526 260.422 218.189 260.422 217.803C260.422 217.422 260.493 217.086 260.635 216.795C260.779 216.504 260.979 216.277 261.236 216.114C261.495 215.951 261.797 215.869 262.143 215.869C262.353 215.869 262.556 215.904 262.754 215.973C262.951 216.043 263.128 216.152 263.284 216.3C263.441 216.449 263.565 216.642 263.655 216.88C263.746 217.116 263.791 217.402 263.791 217.74V217.997H260.832V217.454H263.081C263.081 217.263 263.042 217.095 262.964 216.947C262.887 216.799 262.778 216.682 262.637 216.596C262.498 216.51 262.335 216.468 262.148 216.468C261.944 216.468 261.766 216.518 261.614 216.618C261.464 216.716 261.348 216.846 261.265 217.006C261.185 217.164 261.144 217.336 261.144 217.522V217.946C261.144 218.195 261.188 218.407 261.275 218.581C261.364 218.756 261.488 218.889 261.646 218.981C261.804 219.071 261.989 219.117 262.201 219.117C262.338 219.117 262.464 219.097 262.577 219.058C262.69 219.018 262.788 218.958 262.87 218.879C262.952 218.8 263.015 218.702 263.059 218.586L263.745 218.709C263.69 218.911 263.591 219.088 263.449 219.24C263.309 219.391 263.132 219.508 262.918 219.592C262.707 219.674 262.465 219.715 262.194 219.715ZM264.595 221.036V215.917H265.303V216.521H265.363C265.405 216.443 265.466 216.354 265.545 216.252C265.624 216.15 265.734 216.061 265.875 215.985C266.015 215.908 266.201 215.869 266.432 215.869C266.733 215.869 267.001 215.945 267.237 216.097C267.473 216.249 267.658 216.468 267.792 216.754C267.927 217.04 267.995 217.384 267.995 217.786C267.995 218.188 267.928 218.533 267.794 218.821C267.66 219.107 267.476 219.327 267.242 219.483C267.007 219.636 266.74 219.713 266.439 219.713C266.213 219.713 266.028 219.675 265.884 219.599C265.742 219.523 265.631 219.434 265.55 219.332C265.469 219.231 265.407 219.14 265.363 219.061H265.32V221.036H264.595ZM265.305 217.779C265.305 218.041 265.343 218.27 265.419 218.467C265.495 218.664 265.605 218.819 265.749 218.93C265.892 219.04 266.068 219.095 266.277 219.095C266.493 219.095 266.674 219.037 266.82 218.923C266.965 218.806 267.075 218.649 267.149 218.45C267.225 218.251 267.263 218.028 267.263 217.779C267.263 217.533 267.226 217.313 267.152 217.117C267.079 216.922 266.969 216.767 266.822 216.654C266.677 216.541 266.495 216.485 266.277 216.485C266.067 216.485 265.889 216.539 265.744 216.647C265.6 216.755 265.491 216.906 265.417 217.1C265.342 217.294 265.305 217.52 265.305 217.779ZM270.545 215.917V216.499H268.511V215.917H270.545ZM269.057 215.026H269.781V218.547C269.781 218.688 269.802 218.793 269.844 218.865C269.886 218.934 269.941 218.982 270.007 219.008C270.075 219.032 270.148 219.044 270.227 219.044C270.286 219.044 270.336 219.04 270.38 219.032C270.424 219.024 270.458 219.017 270.482 219.012L270.613 219.611C270.571 219.627 270.511 219.643 270.433 219.66C270.356 219.677 270.259 219.687 270.143 219.689C269.952 219.692 269.774 219.658 269.609 219.587C269.445 219.516 269.311 219.406 269.209 219.257C269.108 219.109 269.057 218.922 269.057 218.697V215.026Z" fill="#111827" fill-opacity="0.4"/>
<path d="M289.709 217.158C289.709 217.688 289.612 218.144 289.418 218.525C289.224 218.905 288.959 219.197 288.621 219.403C288.285 219.606 287.903 219.708 287.475 219.708C287.045 219.708 286.661 219.606 286.323 219.403C285.987 219.197 285.722 218.904 285.528 218.523C285.334 218.142 285.238 217.687 285.238 217.158C285.238 216.628 285.334 216.174 285.528 215.794C285.722 215.413 285.987 215.12 286.323 214.917C286.661 214.711 287.045 214.609 287.475 214.609C287.903 214.609 288.285 214.711 288.621 214.917C288.959 215.12 289.224 215.413 289.418 215.794C289.612 216.174 289.709 216.628 289.709 217.158ZM288.967 217.158C288.967 216.754 288.902 216.414 288.771 216.138C288.642 215.86 288.464 215.65 288.238 215.508C288.013 215.364 287.759 215.292 287.475 215.292C287.189 215.292 286.933 215.364 286.709 215.508C286.484 215.65 286.306 215.86 286.175 216.138C286.046 216.414 285.982 216.754 285.982 217.158C285.982 217.562 286.046 217.903 286.175 218.181C286.306 218.457 286.484 218.667 286.709 218.811C286.933 218.953 287.189 219.025 287.475 219.025C287.759 219.025 288.013 218.953 288.238 218.811C288.464 218.667 288.642 218.457 288.771 218.181C288.902 217.903 288.967 217.562 288.967 217.158ZM292.153 219.715C291.792 219.715 291.482 219.634 291.222 219.47C290.964 219.306 290.765 219.079 290.626 218.789C290.487 218.5 290.417 218.169 290.417 217.796C290.417 217.418 290.488 217.084 290.631 216.795C290.773 216.504 290.973 216.277 291.232 216.114C291.49 215.951 291.795 215.869 292.145 215.869C292.428 215.869 292.68 215.921 292.902 216.027C293.123 216.13 293.301 216.275 293.437 216.463C293.575 216.65 293.656 216.869 293.682 217.12H292.977C292.938 216.945 292.849 216.795 292.71 216.669C292.573 216.543 292.389 216.48 292.158 216.48C291.956 216.48 291.779 216.533 291.627 216.64C291.477 216.745 291.359 216.895 291.275 217.09C291.191 217.284 291.149 217.514 291.149 217.779C291.149 218.05 291.191 218.285 291.273 218.482C291.355 218.679 291.472 218.831 291.622 218.94C291.774 219.048 291.952 219.102 292.158 219.102C292.295 219.102 292.419 219.077 292.531 219.027C292.644 218.975 292.738 218.902 292.814 218.806C292.892 218.711 292.946 218.596 292.977 218.462H293.682C293.656 218.703 293.578 218.918 293.447 219.107C293.316 219.296 293.141 219.445 292.921 219.553C292.703 219.661 292.447 219.715 292.153 219.715ZM296.195 215.917V216.499H294.161V215.917H296.195ZM294.707 215.026H295.431V218.547C295.431 218.688 295.452 218.793 295.494 218.865C295.536 218.934 295.59 218.982 295.657 219.008C295.725 219.032 295.798 219.044 295.877 219.044C295.935 219.044 295.986 219.04 296.03 219.032C296.074 219.024 296.107 219.017 296.132 219.012L296.263 219.611C296.221 219.627 296.161 219.643 296.083 219.66C296.006 219.677 295.909 219.687 295.792 219.689C295.602 219.692 295.424 219.658 295.259 219.587C295.094 219.516 294.961 219.406 294.859 219.257C294.757 219.109 294.707 218.922 294.707 218.697V215.026Z" fill="#111827" fill-opacity="0.4"/>
<path d="M314.76 214.677V219.64H314.072L311.549 216H311.503V219.64H310.754V214.677H311.447L313.973 218.322H314.019V214.677H314.76ZM317.363 219.715C317.014 219.715 316.709 219.635 316.449 219.475C316.189 219.315 315.987 219.092 315.843 218.804C315.699 218.516 315.628 218.18 315.628 217.796C315.628 217.41 315.699 217.072 315.843 216.783C315.987 216.493 316.189 216.269 316.449 216.109C316.709 215.949 317.014 215.869 317.363 215.869C317.712 215.869 318.016 215.949 318.277 216.109C318.537 216.269 318.739 216.493 318.882 216.783C319.026 217.072 319.098 217.41 319.098 217.796C319.098 218.18 319.026 218.516 318.882 218.804C318.739 219.092 318.537 219.315 318.277 219.475C318.016 219.635 317.712 219.715 317.363 219.715ZM317.365 219.107C317.591 219.107 317.779 219.047 317.928 218.928C318.076 218.808 318.186 218.649 318.257 218.45C318.33 218.251 318.366 218.032 318.366 217.793C318.366 217.556 318.33 217.338 318.257 217.139C318.186 216.939 318.076 216.778 317.928 216.657C317.779 216.535 317.591 216.475 317.365 216.475C317.137 216.475 316.948 216.535 316.798 216.657C316.65 216.778 316.539 216.939 316.466 217.139C316.395 217.338 316.359 217.556 316.359 217.793C316.359 218.032 316.395 218.251 316.466 218.45C316.539 218.649 316.65 218.808 316.798 218.928C316.948 219.047 317.137 219.107 317.365 219.107ZM322.965 215.917L321.615 219.64H320.84L319.487 215.917H320.265L321.208 218.782H321.247L322.187 215.917H322.965Z" fill="#111827" fill-opacity="0.4"/>
<path d="M339.158 219.64H337.551V214.677H339.209C339.695 214.677 340.113 214.776 340.462 214.975C340.811 215.172 341.078 215.455 341.264 215.825C341.451 216.194 341.545 216.636 341.545 217.151C341.545 217.668 341.45 218.112 341.261 218.484C341.074 218.856 340.802 219.142 340.447 219.342C340.092 219.541 339.662 219.64 339.158 219.64ZM338.3 218.986H339.116C339.495 218.986 339.809 218.915 340.059 218.772C340.31 218.629 340.497 218.421 340.622 218.15C340.746 217.877 340.808 217.544 340.808 217.151C340.808 216.762 340.746 216.431 340.622 216.16C340.499 215.888 340.315 215.682 340.071 215.542C339.827 215.401 339.524 215.331 339.162 215.331H338.3V218.986ZM344.022 219.715C343.656 219.715 343.34 219.637 343.075 219.48C342.811 219.322 342.608 219.1 342.464 218.814C342.322 218.526 342.251 218.189 342.251 217.803C342.251 217.422 342.322 217.086 342.464 216.795C342.608 216.504 342.808 216.277 343.065 216.114C343.324 215.951 343.626 215.869 343.972 215.869C344.182 215.869 344.385 215.904 344.582 215.973C344.779 216.043 344.956 216.152 345.113 216.3C345.27 216.449 345.393 216.642 345.484 216.88C345.574 217.116 345.62 217.402 345.62 217.74V217.997H342.66V217.454H344.909C344.909 217.263 344.871 217.095 344.793 216.947C344.716 216.799 344.607 216.682 344.466 216.596C344.327 216.51 344.164 216.468 343.976 216.468C343.773 216.468 343.595 216.518 343.443 216.618C343.293 216.716 343.177 216.846 343.094 217.006C343.013 217.164 342.973 217.336 342.973 217.522V217.946C342.973 218.195 343.017 218.407 343.104 218.581C343.193 218.756 343.316 218.889 343.475 218.981C343.633 219.071 343.818 219.117 344.03 219.117C344.167 219.117 344.292 219.097 344.405 219.058C344.518 219.018 344.616 218.958 344.699 218.879C344.781 218.8 344.844 218.702 344.888 218.586L345.574 218.709C345.519 218.911 345.42 219.088 345.278 219.24C345.137 219.391 344.96 219.508 344.747 219.592C344.535 219.674 344.294 219.715 344.022 219.715ZM347.992 219.715C347.631 219.715 347.321 219.634 347.061 219.47C346.803 219.306 346.604 219.079 346.465 218.789C346.326 218.5 346.256 218.169 346.256 217.796C346.256 217.418 346.328 217.084 346.47 216.795C346.612 216.504 346.812 216.277 347.071 216.114C347.329 215.951 347.634 215.869 347.984 215.869C348.267 215.869 348.519 215.921 348.741 216.027C348.962 216.13 349.141 216.275 349.276 216.463C349.414 216.65 349.495 216.869 349.521 217.12H348.816C348.777 216.945 348.688 216.795 348.549 216.669C348.412 216.543 348.228 216.48 347.997 216.48C347.795 216.48 347.618 216.533 347.466 216.64C347.316 216.745 347.198 216.895 347.114 217.09C347.03 217.284 346.988 217.514 346.988 217.779C346.988 218.05 347.03 218.285 347.112 218.482C347.194 218.679 347.311 218.831 347.461 218.94C347.613 219.048 347.791 219.102 347.997 219.102C348.134 219.102 348.258 219.077 348.37 219.027C348.483 218.975 348.577 218.902 348.653 218.806C348.731 218.711 348.785 218.596 348.816 218.462H349.521C349.495 218.703 349.417 218.918 349.286 219.107C349.155 219.296 348.98 219.445 348.76 219.553C348.542 219.661 348.286 219.715 347.992 219.715Z" fill="#111827" fill-opacity="0.4"/>
<line x1="43.2656" y1="47.1907" x2="347.142" y2="47.1907" stroke="#697C8C" stroke-opacity="0.1" stroke-width="0.682491"/>
<line x1="43.2656" y1="68.6241" x2="347.142" y2="68.6241" stroke="#697C8C" stroke-opacity="0.1" stroke-width="0.682491"/>
<line x1="23.708" y1="85.5452" x2="327.584" y2="85.5452" stroke="#697C8C" stroke-opacity="0.1" stroke-width="0.682491"/>
<line x1="43.2656" y1="106.979" x2="347.142" y2="106.979" stroke="#697C8C" stroke-opacity="0.1" stroke-width="0.682491"/>
<line x1="43.2656" y1="129.54" x2="347.142" y2="129.54" stroke="#697C8C" stroke-opacity="0.1" stroke-width="0.682491"/>
<line x1="43.2656" y1="149.846" x2="347.142" y2="149.846" stroke="#697C8C" stroke-opacity="0.1" stroke-width="0.682491"/>
<line x1="43.2656" y1="170.151" x2="347.142" y2="170.151" stroke="#697C8C" stroke-opacity="0.1" stroke-width="0.682491"/>
<line x1="43.2656" y1="189.328" x2="347.142" y2="189.328" stroke="#697C8C" stroke-opacity="0.1" stroke-width="0.682491"/>
<ellipse cx="100.434" cy="98.5395" rx="1.72936" ry="1.92476" fill="#6B7280"/>
<ellipse cx="86.5995" cy="171.68" rx="1.72936" ry="1.92476" fill="#6B7280"/>
<ellipse cx="42.328" cy="202.477" rx="1.72936" ry="1.92476" fill="#6B7280"/>
<ellipse cx="154.391" cy="154.742" rx="1.72936" ry="1.92476" fill="#6B7280"/>
<ellipse cx="224.949" cy="166.291" rx="1.72936" ry="1.92476" fill="#6B7280"/>
<ellipse cx="193.037" cy="131.26" rx="1.72936" ry="1.92476" fill="#6B7280"/>
<ellipse cx="276.138" cy="98.5395" rx="1.72936" ry="1.92476" fill="#6B7280"/>
<ellipse cx="310.725" cy="131.645" rx="1.72936" ry="1.92476" fill="#6B7280"/>
<ellipse cx="346.696" cy="70.823" rx="1.72936" ry="1.92476" fill="#6B7280"/>
<path d="M193.103 99.6621C193.103 95.8928 196.159 92.8372 199.928 92.8372H253.032C256.802 92.8372 259.857 95.8928 259.857 99.6621V117.598C259.857 121.368 256.802 124.423 253.032 124.423H193.103V99.6621Z" fill="#FFEAEA"/>
<path d="M203.478 99.5312V105.349H202.797L199.626 100.781H199.569V105.349H198.865V99.5312H199.547L202.728 104.111H202.785V99.5312H203.478ZM204.65 104.156V103.577L207.206 99.5312H207.627V100.429H207.343L205.411 103.486V103.531H208.854V104.156H204.65ZM207.388 105.349V103.98V103.71V99.5312H208.059V105.349H207.388ZM211.782 105.429C211.392 105.429 211.047 105.36 210.748 105.222C210.451 105.081 210.219 104.889 210.052 104.645C209.886 104.399 209.803 104.118 209.805 103.804C209.803 103.558 209.851 103.33 209.95 103.122C210.048 102.912 210.183 102.737 210.353 102.597C210.526 102.454 210.718 102.365 210.93 102.327V102.293C210.652 102.221 210.43 102.064 210.265 101.824C210.1 101.581 210.019 101.306 210.021 100.997C210.019 100.702 210.094 100.437 210.245 100.204C210.397 99.9715 210.605 99.7878 210.87 99.6533C211.137 99.5189 211.441 99.4516 211.782 99.4516C212.119 99.4516 212.421 99.5189 212.686 99.6533C212.951 99.7878 213.159 99.9715 213.311 100.204C213.464 100.437 213.542 100.702 213.544 100.997C213.542 101.306 213.458 101.581 213.291 101.824C213.126 102.064 212.907 102.221 212.635 102.293V102.327C212.845 102.365 213.034 102.454 213.203 102.597C213.371 102.737 213.506 102.912 213.606 103.122C213.707 103.33 213.758 103.558 213.76 103.804C213.758 104.118 213.672 104.399 213.504 104.645C213.337 104.889 213.105 105.081 212.808 105.222C212.512 105.36 212.171 105.429 211.782 105.429ZM211.782 104.804C212.046 104.804 212.273 104.761 212.464 104.676C212.655 104.591 212.803 104.471 212.907 104.315C213.011 104.16 213.065 103.978 213.066 103.77C213.065 103.55 213.008 103.356 212.896 103.187C212.784 103.019 212.632 102.886 212.439 102.79C212.247 102.693 212.029 102.645 211.782 102.645C211.534 102.645 211.313 102.693 211.118 102.79C210.924 102.886 210.772 103.019 210.66 103.187C210.55 103.356 210.496 103.55 210.498 103.77C210.496 103.978 210.547 104.16 210.649 104.315C210.753 104.471 210.902 104.591 211.095 104.676C211.288 104.761 211.517 104.804 211.782 104.804ZM211.782 102.043C211.991 102.043 212.175 102.001 212.336 101.918C212.499 101.834 212.627 101.718 212.72 101.568C212.813 101.418 212.86 101.243 212.862 101.043C212.86 100.846 212.814 100.674 212.723 100.528C212.632 100.381 212.506 100.267 212.345 100.187C212.184 100.106 211.996 100.065 211.782 100.065C211.565 100.065 211.374 100.106 211.211 100.187C211.048 100.267 210.922 100.381 210.833 100.528C210.744 100.674 210.701 100.846 210.703 101.043C210.701 101.243 210.745 101.418 210.836 101.568C210.929 101.718 211.057 101.834 211.22 101.918C211.383 102.001 211.57 102.043 211.782 102.043ZM216.701 99.4516C216.939 99.4535 217.178 99.499 217.417 99.588C217.655 99.677 217.873 99.8247 218.07 100.031C218.267 100.236 218.425 100.515 218.544 100.869C218.664 101.223 218.723 101.668 218.723 102.202C218.723 102.719 218.674 103.178 218.576 103.579C218.479 103.979 218.339 104.316 218.155 104.591C217.973 104.865 217.752 105.074 217.49 105.216C217.231 105.358 216.937 105.429 216.61 105.429C216.284 105.429 215.993 105.365 215.738 105.236C215.484 105.105 215.275 104.924 215.113 104.693C214.952 104.46 214.848 104.19 214.803 103.883H215.496C215.559 104.151 215.683 104.371 215.868 104.545C216.056 104.718 216.303 104.804 216.61 104.804C217.059 104.804 217.413 104.608 217.672 104.216C217.934 103.824 218.064 103.27 218.064 102.554H218.019C217.913 102.713 217.787 102.85 217.641 102.966C217.495 103.081 217.333 103.17 217.155 103.233C216.977 103.295 216.788 103.327 216.587 103.327C216.254 103.327 215.948 103.244 215.669 103.079C215.393 102.913 215.171 102.685 215.005 102.395C214.84 102.103 214.757 101.77 214.757 101.395C214.757 101.039 214.837 100.713 214.996 100.418C215.157 100.12 215.382 99.8835 215.672 99.7073C215.964 99.5312 216.307 99.446 216.701 99.4516ZM216.701 100.077C216.462 100.077 216.247 100.136 216.056 100.256C215.866 100.373 215.716 100.532 215.604 100.733C215.494 100.932 215.439 101.152 215.439 101.395C215.439 101.637 215.492 101.858 215.598 102.057C215.706 102.254 215.853 102.411 216.039 102.528C216.226 102.644 216.439 102.702 216.678 102.702C216.858 102.702 217.025 102.667 217.181 102.597C217.336 102.525 217.471 102.427 217.587 102.304C217.704 102.179 217.796 102.038 217.863 101.881C217.929 101.722 217.962 101.556 217.962 101.383C217.962 101.156 217.907 100.943 217.797 100.744C217.689 100.545 217.54 100.384 217.348 100.261C217.159 100.138 216.943 100.077 216.701 100.077ZM220.649 104.554L220.603 104.861C220.571 105.077 220.522 105.308 220.456 105.554C220.391 105.8 220.324 106.032 220.254 106.25C220.184 106.468 220.126 106.641 220.081 106.77H219.569C219.594 106.649 219.626 106.489 219.666 106.29C219.706 106.091 219.745 105.868 219.785 105.622C219.827 105.378 219.861 105.128 219.887 104.872L219.922 104.554H220.649ZM221.743 104.156V103.577L224.3 99.5312H224.721V100.429H224.436L222.505 103.486V103.531H225.948V104.156H221.743ZM224.482 105.349V103.98V103.71V99.5312H225.152V105.349H224.482ZM228.831 105.429C228.497 105.429 228.197 105.363 227.93 105.23C227.663 105.097 227.449 104.916 227.288 104.685C227.127 104.454 227.039 104.19 227.024 103.895H227.706C227.732 104.158 227.851 104.376 228.064 104.548C228.278 104.719 228.533 104.804 228.831 104.804C229.069 104.804 229.281 104.748 229.467 104.636C229.654 104.525 229.801 104.371 229.907 104.176C230.015 103.979 230.069 103.757 230.069 103.508C230.069 103.255 230.013 103.028 229.902 102.829C229.792 102.629 229.64 102.471 229.447 102.355C229.254 102.24 229.033 102.181 228.785 102.179C228.607 102.177 228.424 102.204 228.237 102.261C228.049 102.316 227.895 102.387 227.774 102.474L227.115 102.395L227.467 99.5312H230.49V100.156H228.058L227.853 101.872H227.887C228.007 101.777 228.156 101.699 228.336 101.636C228.516 101.574 228.704 101.543 228.899 101.543C229.255 101.543 229.572 101.628 229.85 101.798C230.131 101.967 230.35 102.198 230.51 102.491C230.671 102.785 230.751 103.12 230.751 103.497C230.751 103.868 230.668 104.2 230.501 104.491C230.336 104.781 230.109 105.01 229.819 105.179C229.529 105.346 229.2 105.429 228.831 105.429ZM233.811 105.429C233.573 105.425 233.334 105.38 233.096 105.293C232.857 105.205 232.639 105.059 232.442 104.852C232.245 104.644 232.087 104.363 231.968 104.008C231.848 103.652 231.789 103.205 231.789 102.668C231.789 102.152 231.837 101.696 231.934 101.298C232.03 100.899 232.17 100.562 232.354 100.29C232.538 100.015 232.759 99.8068 233.019 99.6647C233.28 99.5227 233.575 99.4516 233.902 99.4516C234.228 99.4516 234.518 99.517 234.772 99.6477C235.027 99.7764 235.236 99.9564 235.397 100.187C235.558 100.418 235.662 100.685 235.709 100.986H235.016C234.952 100.724 234.827 100.508 234.641 100.335C234.455 100.163 234.209 100.077 233.902 100.077C233.452 100.077 233.096 100.273 232.837 100.665C232.579 101.057 232.45 101.607 232.448 102.315H232.493C232.599 102.154 232.725 102.017 232.871 101.903C233.019 101.788 233.182 101.699 233.36 101.636C233.538 101.574 233.726 101.543 233.925 101.543C234.258 101.543 234.563 101.626 234.84 101.793C235.116 101.957 235.338 102.186 235.505 102.477C235.671 102.767 235.755 103.099 235.755 103.474C235.755 103.834 235.674 104.164 235.513 104.463C235.352 104.76 235.126 104.997 234.834 105.173C234.544 105.347 234.203 105.433 233.811 105.429ZM233.811 104.804C234.05 104.804 234.264 104.744 234.453 104.625C234.645 104.506 234.795 104.346 234.905 104.145C235.017 103.944 235.073 103.721 235.073 103.474C235.073 103.234 235.019 103.015 234.911 102.818C234.805 102.619 234.658 102.461 234.471 102.344C234.285 102.226 234.073 102.168 233.834 102.168C233.654 102.168 233.487 102.204 233.331 102.276C233.176 102.346 233.04 102.442 232.922 102.565C232.807 102.688 232.716 102.829 232.65 102.989C232.583 103.146 232.55 103.311 232.55 103.486C232.55 103.717 232.604 103.933 232.712 104.133C232.822 104.334 232.971 104.496 233.161 104.619C233.352 104.742 233.569 104.804 233.811 104.804Z" fill="#111827"/>
<path d="M198.689 114.689H199.319L200.802 118.311H200.853L202.336 114.689H202.967V119.052H202.473V115.737H202.43L201.066 119.052H200.589L199.225 115.737H199.183V119.052H198.689V114.689ZM205.288 119.12C204.992 119.12 204.733 119.05 204.51 118.909C204.289 118.769 204.115 118.572 203.99 118.319C203.867 118.066 203.805 117.771 203.805 117.433C203.805 117.092 203.867 116.794 203.99 116.54C204.115 116.286 204.289 116.088 204.51 115.948C204.733 115.807 204.992 115.737 205.288 115.737C205.583 115.737 205.842 115.807 206.063 115.948C206.286 116.088 206.46 116.286 206.583 116.54C206.708 116.794 206.771 117.092 206.771 117.433C206.771 117.771 206.708 118.066 206.583 118.319C206.46 118.572 206.286 118.769 206.063 118.909C205.842 119.05 205.583 119.12 205.288 119.12ZM205.288 118.669C205.512 118.669 205.697 118.611 205.842 118.496C205.987 118.381 206.094 118.23 206.164 118.042C206.233 117.855 206.268 117.652 206.268 117.433C206.268 117.214 206.233 117.01 206.164 116.821C206.094 116.633 205.987 116.48 205.842 116.363C205.697 116.247 205.512 116.189 205.288 116.189C205.063 116.189 204.879 116.247 204.734 116.363C204.589 116.48 204.482 116.633 204.412 116.821C204.343 117.01 204.308 117.214 204.308 117.433C204.308 117.652 204.343 117.855 204.412 118.042C204.482 118.23 204.589 118.381 204.734 118.496C204.879 118.611 205.063 118.669 205.288 118.669ZM208.041 117.083V119.052H207.538V115.78H208.024V116.291H208.067C208.143 116.125 208.26 115.991 208.416 115.89C208.572 115.788 208.774 115.737 209.021 115.737C209.243 115.737 209.437 115.782 209.603 115.873C209.769 115.963 209.898 116.099 209.991 116.282C210.083 116.464 210.129 116.694 210.129 116.973V119.052H209.626V117.007C209.626 116.75 209.56 116.549 209.426 116.406C209.293 116.261 209.109 116.189 208.876 116.189C208.716 116.189 208.572 116.223 208.446 116.293C208.321 116.363 208.222 116.464 208.15 116.598C208.077 116.731 208.041 116.893 208.041 117.083ZM212.284 119.12C212.011 119.12 211.77 119.052 211.562 118.914C211.353 118.775 211.189 118.579 211.072 118.326C210.954 118.071 210.895 117.771 210.895 117.424C210.895 117.081 210.954 116.782 211.072 116.53C211.189 116.277 211.354 116.081 211.564 115.944C211.774 115.806 212.017 115.737 212.292 115.737C212.506 115.737 212.674 115.772 212.797 115.843C212.922 115.913 213.018 115.993 213.083 116.082C213.15 116.17 213.202 116.243 213.238 116.299H213.281V114.689H213.784V119.052H213.298V118.549H213.238C213.202 118.609 213.149 118.684 213.081 118.775C213.013 118.865 212.915 118.945 212.789 119.016C212.662 119.086 212.494 119.12 212.284 119.12ZM212.352 118.669C212.554 118.669 212.724 118.616 212.863 118.511C213.003 118.405 213.108 118.258 213.181 118.07C213.253 117.881 213.29 117.663 213.29 117.416C213.29 117.172 213.254 116.958 213.183 116.775C213.112 116.59 213.007 116.446 212.868 116.344C212.729 116.24 212.557 116.189 212.352 116.189C212.139 116.189 211.961 116.243 211.819 116.353C211.679 116.461 211.573 116.608 211.502 116.794C211.432 116.978 211.398 117.186 211.398 117.416C211.398 117.649 211.433 117.86 211.504 118.051C211.577 118.24 211.683 118.39 211.824 118.503C211.966 118.613 212.142 118.669 212.352 118.669ZM215.738 119.129C215.53 119.129 215.342 119.09 215.173 119.012C215.004 118.932 214.87 118.818 214.77 118.669C214.671 118.518 214.621 118.336 214.621 118.123C214.621 117.936 214.658 117.784 214.732 117.667C214.806 117.549 214.905 117.457 215.028 117.39C215.152 117.324 215.288 117.274 215.437 117.241C215.588 117.207 215.739 117.18 215.891 117.16C216.09 117.135 216.251 117.115 216.375 117.103C216.5 117.088 216.591 117.065 216.648 117.032C216.706 117 216.735 116.943 216.735 116.862V116.845C216.735 116.635 216.677 116.471 216.562 116.355C216.449 116.238 216.276 116.18 216.045 116.18C215.805 116.18 215.616 116.233 215.48 116.338C215.344 116.443 215.248 116.555 215.192 116.674L214.715 116.504C214.8 116.305 214.914 116.15 215.056 116.039C215.199 115.927 215.356 115.849 215.525 115.805C215.695 115.76 215.863 115.737 216.028 115.737C216.133 115.737 216.253 115.75 216.39 115.775C216.528 115.799 216.66 115.85 216.788 115.927C216.917 116.003 217.025 116.119 217.11 116.274C217.195 116.429 217.238 116.636 217.238 116.896V119.052H216.735V118.609H216.709C216.675 118.68 216.618 118.756 216.539 118.837C216.459 118.918 216.354 118.987 216.221 119.044C216.089 119.101 215.928 119.129 215.738 119.129ZM215.814 118.677C216.013 118.677 216.181 118.638 216.317 118.56C216.455 118.482 216.559 118.381 216.628 118.258C216.699 118.134 216.735 118.004 216.735 117.868V117.407C216.714 117.433 216.667 117.456 216.594 117.478C216.523 117.498 216.441 117.515 216.347 117.531C216.255 117.545 216.165 117.558 216.077 117.569C215.99 117.579 215.92 117.588 215.866 117.595C215.735 117.612 215.613 117.64 215.499 117.678C215.387 117.715 215.296 117.771 215.226 117.846C215.158 117.92 215.124 118.021 215.124 118.149C215.124 118.324 215.189 118.456 215.318 118.545C215.449 118.633 215.614 118.677 215.814 118.677ZM218.362 120.28C218.277 120.28 218.201 120.272 218.134 120.258C218.067 120.245 218.021 120.233 217.996 120.22L218.124 119.777C218.246 119.808 218.354 119.819 218.447 119.811C218.541 119.802 218.624 119.76 218.697 119.685C218.771 119.611 218.838 119.491 218.899 119.325L218.993 119.069L217.783 115.78H218.328L219.232 118.387H219.266L220.169 115.78H220.714L219.325 119.53C219.263 119.699 219.185 119.838 219.093 119.949C219.001 120.061 218.893 120.145 218.771 120.199C218.651 120.253 218.514 120.28 218.362 120.28ZM221.923 118.456L221.889 118.686C221.865 118.848 221.828 119.021 221.778 119.206C221.73 119.39 221.68 119.564 221.627 119.728C221.574 119.891 221.531 120.021 221.497 120.118H221.113C221.132 120.027 221.156 119.907 221.186 119.758C221.216 119.608 221.246 119.441 221.275 119.257C221.307 119.074 221.332 118.886 221.352 118.694L221.378 118.456H221.923ZM224.61 114.689H225.241L226.724 118.311H226.775L228.258 114.689H228.889V119.052H228.395V115.737H228.352L226.988 119.052H226.511L225.147 115.737H225.105V119.052H224.61V114.689ZM230.843 119.129C230.636 119.129 230.448 119.09 230.279 119.012C230.11 118.932 229.975 118.818 229.876 118.669C229.776 118.518 229.727 118.336 229.727 118.123C229.727 117.936 229.764 117.784 229.838 117.667C229.911 117.549 230.01 117.457 230.134 117.39C230.257 117.324 230.394 117.274 230.543 117.241C230.693 117.207 230.845 117.18 230.997 117.16C231.195 117.135 231.357 117.115 231.48 117.103C231.605 117.088 231.696 117.065 231.753 117.032C231.811 117 231.84 116.943 231.84 116.862V116.845C231.84 116.635 231.783 116.471 231.668 116.355C231.554 116.238 231.382 116.18 231.15 116.18C230.91 116.18 230.722 116.233 230.585 116.338C230.449 116.443 230.353 116.555 230.298 116.674L229.82 116.504C229.906 116.305 230.019 116.15 230.161 116.039C230.305 115.927 230.461 115.849 230.63 115.805C230.801 115.76 230.968 115.737 231.133 115.737C231.238 115.737 231.359 115.75 231.495 115.775C231.633 115.799 231.766 115.85 231.894 115.927C232.023 116.003 232.13 116.119 232.215 116.274C232.301 116.429 232.343 116.636 232.343 116.896V119.052H231.84V118.609H231.815C231.781 118.68 231.724 118.756 231.644 118.837C231.565 118.918 231.459 118.987 231.327 119.044C231.195 119.101 231.034 119.129 230.843 119.129ZM230.92 118.677C231.119 118.677 231.286 118.638 231.423 118.56C231.561 118.482 231.664 118.381 231.734 118.258C231.805 118.134 231.84 118.004 231.84 117.868V117.407C231.819 117.433 231.772 117.456 231.7 117.478C231.629 117.498 231.546 117.515 231.453 117.531C231.36 117.545 231.27 117.558 231.182 117.569C231.095 117.579 231.025 117.588 230.971 117.595C230.84 117.612 230.718 117.64 230.605 117.678C230.492 117.715 230.401 117.771 230.332 117.846C230.264 117.92 230.23 118.021 230.23 118.149C230.23 118.324 230.294 118.456 230.423 118.545C230.554 118.633 230.72 118.677 230.92 118.677ZM233.261 119.052V115.78H233.747V116.274H233.781C233.841 116.112 233.949 115.981 234.105 115.88C234.261 115.779 234.437 115.728 234.633 115.728C234.67 115.728 234.716 115.729 234.772 115.731C234.827 115.732 234.869 115.734 234.897 115.737V116.248C234.88 116.244 234.841 116.238 234.78 116.229C234.721 116.219 234.657 116.214 234.591 116.214C234.431 116.214 234.289 116.248 234.164 116.314C234.041 116.38 233.943 116.471 233.87 116.587C233.799 116.702 233.764 116.833 233.764 116.981V119.052H233.261ZM236.723 119.12C236.417 119.12 236.152 119.048 235.931 118.903C235.709 118.758 235.539 118.559 235.419 118.304C235.3 118.05 235.24 117.76 235.24 117.433C235.24 117.101 235.301 116.807 235.424 116.553C235.547 116.297 235.719 116.098 235.939 115.954C236.161 115.809 236.419 115.737 236.715 115.737C236.945 115.737 237.152 115.78 237.337 115.865C237.522 115.95 237.673 116.069 237.791 116.223C237.909 116.376 237.982 116.555 238.01 116.76H237.507C237.469 116.61 237.384 116.478 237.252 116.363C237.121 116.247 236.945 116.189 236.723 116.189C236.527 116.189 236.355 116.24 236.208 116.342C236.061 116.443 235.947 116.586 235.865 116.77C235.784 116.954 235.743 117.169 235.743 117.416C235.743 117.669 235.783 117.889 235.863 118.076C235.944 118.264 236.057 118.409 236.203 118.513C236.351 118.617 236.525 118.669 236.723 118.669C236.854 118.669 236.973 118.646 237.079 118.601C237.186 118.555 237.276 118.49 237.35 118.405C237.424 118.319 237.476 118.217 237.507 118.098H238.01C237.982 118.291 237.912 118.465 237.799 118.62C237.689 118.773 237.542 118.895 237.358 118.986C237.176 119.076 236.965 119.12 236.723 119.12ZM239.248 117.083V119.052H238.745V114.689H239.248V116.291H239.291C239.368 116.122 239.483 115.988 239.636 115.888C239.791 115.787 239.997 115.737 240.254 115.737C240.477 115.737 240.672 115.782 240.84 115.871C241.007 115.959 241.137 116.095 241.23 116.278C241.324 116.46 241.37 116.691 241.37 116.973V119.052H240.868V117.007C240.868 116.747 240.8 116.546 240.665 116.404C240.532 116.26 240.346 116.189 240.109 116.189C239.944 116.189 239.797 116.223 239.666 116.293C239.537 116.363 239.434 116.464 239.359 116.598C239.285 116.731 239.248 116.893 239.248 117.083ZM245.333 119.112C245.083 119.112 244.858 119.062 244.657 118.963C244.457 118.863 244.297 118.727 244.176 118.554C244.055 118.38 243.989 118.183 243.978 117.961H244.489C244.509 118.159 244.599 118.322 244.758 118.451C244.918 118.579 245.11 118.643 245.333 118.643C245.512 118.643 245.671 118.601 245.81 118.517C245.951 118.434 246.061 118.319 246.14 118.172C246.221 118.025 246.262 117.858 246.262 117.672C246.262 117.481 246.22 117.311 246.136 117.162C246.054 117.012 245.94 116.893 245.795 116.807C245.65 116.72 245.485 116.676 245.299 116.674C245.165 116.673 245.028 116.694 244.888 116.736C244.747 116.777 244.631 116.831 244.54 116.896L244.046 116.836L244.31 114.689H246.577V115.157H244.753L244.6 116.444H244.626C244.715 116.373 244.827 116.314 244.962 116.267C245.097 116.221 245.238 116.197 245.384 116.197C245.651 116.197 245.889 116.261 246.098 116.389C246.308 116.515 246.473 116.689 246.592 116.909C246.713 117.129 246.773 117.38 246.773 117.663C246.773 117.941 246.711 118.19 246.586 118.409C246.462 118.626 246.292 118.798 246.074 118.924C245.857 119.049 245.61 119.112 245.333 119.112ZM249.051 115.78V116.206H247.355V115.78H249.051ZM247.85 114.995H248.353V118.115C248.353 118.257 248.373 118.363 248.414 118.434C248.457 118.504 248.511 118.551 248.576 118.575C248.643 118.598 248.713 118.609 248.787 118.609C248.843 118.609 248.888 118.606 248.924 118.601C248.959 118.593 248.988 118.588 249.009 118.583L249.111 119.035C249.077 119.048 249.029 119.061 248.968 119.074C248.907 119.088 248.83 119.095 248.736 119.095C248.594 119.095 248.455 119.064 248.319 119.003C248.184 118.942 248.071 118.849 247.982 118.724C247.894 118.599 247.85 118.441 247.85 118.251V114.995ZM250.381 117.083V119.052H249.878V114.689H250.381V116.291H250.424C250.5 116.122 250.615 115.988 250.769 115.888C250.924 115.787 251.13 115.737 251.387 115.737C251.61 115.737 251.805 115.782 251.973 115.871C252.14 115.959 252.27 116.095 252.363 116.278C252.456 116.46 252.503 116.691 252.503 116.973V119.052H252V117.007C252 116.747 251.933 116.546 251.798 116.404C251.664 116.26 251.479 116.189 251.242 116.189C251.077 116.189 250.929 116.223 250.799 116.293C250.669 116.363 250.567 116.464 250.492 116.598C250.418 116.731 250.381 116.893 250.381 117.083Z" fill="#6B7280"/>
<path d="M301.837 29.9507L300.46 24.9871H301.248L302.215 28.831H302.261L303.267 24.9871H304.047L305.053 28.8334H305.099L306.063 24.9871H306.854L305.474 29.9507H304.721L303.676 26.2329H303.637L302.593 29.9507H301.837ZM308.716 30.0258C308.349 30.0258 308.033 29.9475 307.768 29.7907C307.505 29.6324 307.301 29.4102 307.158 29.1242C307.015 28.8366 306.944 28.4997 306.944 28.1136C306.944 27.7323 307.015 27.3962 307.158 27.1054C307.301 26.8145 307.502 26.5875 307.759 26.4243C308.017 26.2611 308.319 26.1795 308.665 26.1795C308.875 26.1795 309.079 26.2143 309.276 26.2837C309.473 26.3532 309.65 26.4623 309.807 26.6109C309.963 26.7596 310.087 26.9527 310.178 27.1902C310.268 27.4261 310.313 27.7129 310.313 28.0506V28.3075H307.354V27.7646H309.603C309.603 27.5739 309.564 27.4051 309.487 27.258C309.409 27.1094 309.3 26.9923 309.16 26.9066C309.021 26.821 308.857 26.7782 308.67 26.7782C308.466 26.7782 308.289 26.8283 308.137 26.9284C307.987 27.027 307.87 27.1563 307.788 27.3162C307.707 27.4746 307.667 27.6466 307.667 27.8324V28.2566C307.667 28.5054 307.71 28.7171 307.798 28.8916C307.886 29.0661 308.01 29.1994 308.168 29.2915C308.327 29.3819 308.512 29.4272 308.723 29.4272C308.861 29.4272 308.986 29.4078 309.099 29.369C309.212 29.3286 309.31 29.2688 309.392 29.1897C309.475 29.1105 309.538 29.0127 309.581 28.8964L310.267 29.02C310.212 29.222 310.114 29.3989 309.971 29.5508C309.831 29.7011 309.654 29.8182 309.441 29.9022C309.229 29.9846 308.988 30.0258 308.716 30.0258ZM312.722 30.0258C312.355 30.0258 312.039 29.9475 311.774 29.7907C311.511 29.6324 311.307 29.4102 311.163 29.1242C311.021 28.8366 310.95 28.4997 310.95 28.1136C310.95 27.7323 311.021 27.3962 311.163 27.1054C311.307 26.8145 311.507 26.5875 311.764 26.4243C312.023 26.2611 312.325 26.1795 312.671 26.1795C312.881 26.1795 313.084 26.2143 313.282 26.2837C313.479 26.3532 313.656 26.4623 313.812 26.6109C313.969 26.7596 314.093 26.9527 314.183 27.1902C314.274 27.4261 314.319 27.7129 314.319 28.0506V28.3075H311.36V27.7646H313.609C313.609 27.5739 313.57 27.4051 313.492 27.258C313.415 27.1094 313.306 26.9923 313.165 26.9066C313.026 26.821 312.863 26.7782 312.676 26.7782C312.472 26.7782 312.294 26.8283 312.142 26.9284C311.992 27.027 311.876 27.1563 311.793 27.3162C311.713 27.4746 311.672 27.6466 311.672 27.8324V28.2566C311.672 28.5054 311.716 28.7171 311.803 28.8916C311.892 29.0661 312.016 29.1994 312.174 29.2915C312.332 29.3819 312.517 29.4272 312.729 29.4272C312.866 29.4272 312.992 29.4078 313.105 29.369C313.218 29.3286 313.315 29.2688 313.398 29.1897C313.48 29.1105 313.543 29.0127 313.587 28.8964L314.273 29.02C314.218 29.222 314.119 29.3989 313.977 29.5508C313.837 29.7011 313.66 29.8182 313.446 29.9022C313.235 29.9846 312.993 30.0258 312.722 30.0258ZM315.789 28.688L315.785 27.8034H315.911L317.394 26.228H318.261L316.57 28.0215H316.456L315.789 28.688ZM315.123 29.9507V24.9871H315.848V29.9507H315.123ZM317.474 29.9507L316.141 28.1814L316.64 27.6749L318.363 29.9507H317.474ZM319.647 24.9871V29.9507H318.922V24.9871H319.647ZM321.08 31.3467C320.971 31.3467 320.873 31.3378 320.784 31.32C320.695 31.3039 320.629 31.2861 320.585 31.2667L320.76 30.6729C320.892 30.7085 321.01 30.7238 321.113 30.719C321.217 30.7141 321.308 30.6753 321.387 30.6026C321.468 30.5299 321.539 30.4112 321.601 30.2464L321.69 29.9992L320.328 26.228H321.104L322.047 29.117H322.085L323.028 26.228H323.806L322.272 30.4475C322.201 30.6414 322.11 30.8054 322.001 30.9395C321.891 31.0752 321.76 31.177 321.608 31.2449C321.456 31.3128 321.28 31.3467 321.08 31.3467Z" fill="#111827"/>
<path d="M334.038 29.7043H332.431V24.7408H334.089C334.576 24.7408 334.993 24.8401 335.342 25.0389C335.691 25.236 335.959 25.5196 336.144 25.8896C336.332 26.258 336.426 26.6999 336.426 27.2153C336.426 27.7323 336.331 28.1767 336.142 28.5483C335.955 28.9199 335.683 29.2059 335.328 29.4062C334.972 29.605 334.542 29.7043 334.038 29.7043ZM333.18 29.05H333.997C334.375 29.05 334.689 28.9789 334.94 28.8367C335.19 28.6929 335.378 28.4853 335.502 28.2138C335.627 27.9408 335.689 27.6079 335.689 27.2153C335.689 26.8259 335.627 26.4955 335.502 26.224C335.379 25.9526 335.196 25.7466 334.952 25.606C334.708 25.4654 334.405 25.3952 334.043 25.3952H333.18V29.05ZM338.382 29.7867C338.146 29.7867 337.933 29.7431 337.742 29.6559C337.552 29.567 337.4 29.4386 337.289 29.2705C337.179 29.1025 337.124 28.8965 337.124 28.6525C337.124 28.4424 337.165 28.2696 337.245 28.1338C337.326 27.9981 337.435 27.8907 337.573 27.8115C337.71 27.7323 337.863 27.6725 338.033 27.6322C338.203 27.5918 338.376 27.5611 338.552 27.5401C338.775 27.5142 338.956 27.4932 339.095 27.477C339.234 27.4593 339.335 27.431 339.398 27.3922C339.461 27.3534 339.492 27.2904 339.492 27.2032V27.1862C339.492 26.9745 339.432 26.8105 339.313 26.6942C339.195 26.5779 339.019 26.5197 338.784 26.5197C338.54 26.5197 338.348 26.5738 338.208 26.6821C338.069 26.7887 337.972 26.9075 337.919 27.0384L337.238 26.8833C337.319 26.657 337.437 26.4745 337.592 26.3355C337.749 26.1949 337.929 26.0932 338.132 26.0301C338.336 25.9655 338.55 25.9332 338.775 25.9332C338.923 25.9332 339.081 25.951 339.247 25.9865C339.415 26.0204 339.572 26.0835 339.717 26.1756C339.864 26.2677 339.985 26.3993 340.079 26.5706C340.172 26.7403 340.219 26.9608 340.219 27.2323V29.7043H339.511V29.1954H339.482C339.435 29.2891 339.365 29.3812 339.271 29.4717C339.178 29.5622 339.057 29.6373 338.91 29.6971C338.763 29.7569 338.587 29.7867 338.382 29.7867ZM338.54 29.2051C338.74 29.2051 338.911 29.1655 339.053 29.0863C339.197 29.0072 339.306 28.9037 339.381 28.7761C339.456 28.6468 339.494 28.5087 339.494 28.3617V27.8818C339.469 27.9076 339.419 27.9319 339.344 27.9545C339.271 27.9755 339.188 27.9941 339.095 28.0102C339.001 28.0248 338.91 28.0385 338.821 28.0514C338.732 28.0627 338.658 28.0724 338.598 28.0805C338.457 28.0983 338.329 28.1282 338.212 28.1702C338.098 28.2122 338.006 28.2728 337.936 28.352C337.868 28.4295 337.834 28.5329 337.834 28.6622C337.834 28.8415 337.901 28.9773 338.033 29.0694C338.166 29.1598 338.334 29.2051 338.54 29.2051ZM341.184 29.7043V25.9817H341.909V29.7043H341.184ZM341.55 25.4073C341.424 25.4073 341.316 25.3653 341.226 25.2812C341.137 25.1956 341.092 25.0938 341.092 24.9759C341.092 24.8563 341.137 24.7545 341.226 24.6705C341.316 24.5849 341.424 24.542 341.55 24.542C341.676 24.542 341.784 24.5849 341.873 24.6705C341.963 24.7545 342.008 24.8563 342.008 24.9759C342.008 25.0938 341.963 25.1956 341.873 25.2812C341.784 25.3653 341.676 25.4073 341.55 25.4073ZM343.609 24.7408V29.7043H342.884V24.7408H343.609ZM345.042 31.1003C344.933 31.1003 344.835 31.0915 344.746 31.0737C344.657 31.0575 344.591 31.0398 344.547 31.0204L344.722 30.4266C344.854 30.4621 344.972 30.4775 345.075 30.4726C345.179 30.4678 345.27 30.429 345.349 30.3563C345.43 30.2836 345.501 30.1648 345.563 30L345.652 29.7528L344.29 25.9817H345.066L346.009 28.8706H346.047L346.99 25.9817H347.768L346.234 30.2012C346.163 30.3951 346.072 30.5591 345.962 30.6932C345.853 30.8289 345.722 30.9307 345.57 30.9986C345.418 31.0664 345.242 31.1003 345.042 31.1003Z" fill="#6B7280"/>
<defs>
<filter id="filter0_d_808_2940" x="0.175092" y="0.0962343" width="367.65" height="242.912" filterUnits="userSpaceOnUse" color-interpolation-filters="sRGB">
<feFlood flood-opacity="0" result="BackgroundImageFix"/>
<feColorMatrix in="SourceAlpha" type="matrix" values="0 0 0 0 0 0 0 0 0 0 0 0 0 0 0 0 0 0 127 0" result="hardAlpha"/>
<feOffset/>
<feGaussianBlur stdDeviation="3.41245"/>
<feComposite in2="hardAlpha" operator="out"/>
<feColorMatrix type="matrix" values="0 0 0 0 0.117647 0 0 0 0 0.25098 0 0 0 0 0.686275 0 0 0 0.1 0"/>
<feBlend mode="normal" in2="BackgroundImageFix" result="effect1_dropShadow_808_2940"/>
<feBlend mode="normal" in="SourceGraphic" in2="effect1_dropShadow_808_2940" result="shape"/>
</filter>
</defs>
</svg>
