<svg width="12" height="14" viewBox="0 0 12 14" fill="none" xmlns="http://www.w3.org/2000/svg">
<path d="M3.66666 2.93815C3.3 2.93815 2.98611 2.8076 2.725 2.54648C2.46389 2.28537 2.33333 1.97148 2.33333 1.60482C2.33333 1.23815 2.46389 0.924262 2.725 0.663151C2.98611 0.40204 3.3 0.271484 3.66666 0.271484C4.03333 0.271484 4.34722 0.40204 4.60833 0.663151C4.86944 0.924262 5 1.23815 5 1.60482C5 1.97148 4.86944 2.28537 4.60833 2.54648C4.34722 2.8076 4.03333 2.93815 3.66666 2.93815ZM6.66666 12.2715H3.03333C2.66666 12.2715 2.33055 12.1409 2.025 11.8798C1.71944 11.6187 1.52778 11.3048 1.45 10.9382L0.149998 4.40482C0.105554 4.19371 0.149998 4.0076 0.283331 3.84648C0.416665 3.68537 0.594442 3.60482 0.816665 3.60482C0.97222 3.60482 1.11111 3.65482 1.23333 3.75482C1.35555 3.85482 1.43333 3.9826 1.46666 4.13815L2.83333 10.9382H6.66666C6.85555 10.9382 7.01389 11.002 7.14166 11.1298C7.26944 11.2576 7.33333 11.4159 7.33333 11.6048C7.33333 11.7937 7.26944 11.952 7.14166 12.0798C7.01389 12.2076 6.85555 12.2715 6.66666 12.2715ZM10.6667 13.0215L9.06666 10.2715H4.43333C4.11111 10.2715 3.83055 10.1743 3.59166 9.97982C3.35278 9.78537 3.2 9.52704 3.13333 9.20482L2.4 5.63815C2.27778 5.10482 2.40278 4.6326 2.775 4.22148C3.14722 3.81037 3.6 3.60482 4.13333 3.60482C4.52222 3.60482 4.875 3.72148 5.19166 3.95482C5.50833 4.18815 5.71111 4.50482 5.8 4.90482L6.53333 8.27148H8.7C8.93333 8.27148 9.15 8.3326 9.35 8.45482C9.55 8.57704 9.71111 8.73815 9.83333 8.93815L11.8333 12.3548C11.9222 12.5104 11.9417 12.6798 11.8917 12.8632C11.8417 13.0465 11.7389 13.1826 11.5833 13.2715C11.4278 13.3604 11.2583 13.3798 11.075 13.3298C10.8917 13.2798 10.7556 13.177 10.6667 13.0215Z" fill="#111827"/>
</svg>
