<svg width="20" height="20" viewBox="0 0 20 20" fill="none" xmlns="http://www.w3.org/2000/svg">
<mask id="mask0_645_1560" style="mask-type:alpha" maskUnits="userSpaceOnUse" x="0" y="0" width="24" height="24">
<rect width="24" height="24" fill="#D9D9D9"/>
</mask>
<g mask="url(#mask0_645_1560)">
<path d="M7.20833 16.6667H5C4.54167 16.6667 4.14931 16.5035 3.82292 16.1771C3.49653 15.8507 3.33333 15.4583 3.33333 15V12.7917L1.72917 11.1667C1.57639 11 1.45833 10.816 1.375 10.6146C1.29167 10.4132 1.25 10.2083 1.25 10C1.25 9.79167 1.29167 9.58681 1.375 9.38542C1.45833 9.18403 1.57639 9 1.72917 8.83333L3.33333 7.20833V5C3.33333 4.54167 3.49653 4.14931 3.82292 3.82292C4.14931 3.49653 4.54167 3.33333 5 3.33333H7.20833L8.83333 1.72917C9 1.57639 9.18403 1.45833 9.38542 1.375C9.58681 1.29167 9.79167 1.25 10 1.25C10.2083 1.25 10.4132 1.29167 10.6146 1.375C10.816 1.45833 11 1.57639 11.1667 1.72917L12.7917 3.33333H15C15.4583 3.33333 15.8507 3.49653 16.1771 3.82292C16.5035 4.14931 16.6667 4.54167 16.6667 5V7.20833L18.2708 8.83333C18.4236 9 18.5417 9.18403 18.625 9.38542C18.7083 9.58681 18.75 9.79167 18.75 10C18.75 10.2083 18.7083 10.4132 18.625 10.6146C18.5417 10.816 18.4236 11 18.2708 11.1667L16.6667 12.7917V15C16.6667 15.4583 16.5035 15.8507 16.1771 16.1771C15.8507 16.5035 15.4583 16.6667 15 16.6667H12.7917L11.1667 18.2708C11 18.4236 10.816 18.5417 10.6146 18.625C10.4132 18.7083 10.2083 18.75 10 18.75C9.79167 18.75 9.58681 18.7083 9.38542 18.625C9.18403 18.5417 9 18.4236 8.83333 18.2708L7.20833 16.6667ZM10 14.1667C11.1528 14.1667 12.1354 13.7604 12.9479 12.9479C13.7604 12.1354 14.1667 11.1528 14.1667 10C14.1667 8.84722 13.7604 7.86458 12.9479 7.05208C12.1354 6.23958 11.1528 5.83333 10 5.83333C8.84722 5.83333 7.86458 6.23958 7.05208 7.05208C6.23958 7.86458 5.83333 8.84722 5.83333 10C5.83333 11.1528 6.23958 12.1354 7.05208 12.9479C7.86458 13.7604 8.84722 14.1667 10 14.1667ZM10 12.5C9.30556 12.5 8.71528 12.2569 8.22917 11.7708C7.74306 11.2847 7.5 10.6944 7.5 10C7.5 9.30556 7.74306 8.71528 8.22917 8.22917C8.71528 7.74306 9.30556 7.5 10 7.5C10.6944 7.5 11.2847 7.74306 11.7708 8.22917C12.2569 8.71528 12.5 9.30556 12.5 10C12.5 10.6944 12.2569 11.2847 11.7708 11.7708C11.2847 12.2569 10.6944 12.5 10 12.5ZM7.91667 15L10 17.0833L12.0833 15H15V12.0833L17.0833 10L15 7.91667V5H12.0833L10 2.91667L7.91667 5H5V7.91667L2.91667 10L5 12.0833V15H7.91667Z" fill="#111827"/>
</g>
</svg>
