<svg width="20" height="20" viewBox="0 0 20 20" fill="none" xmlns="http://www.w3.org/2000/svg">
<mask id="mask0_409_1252" style="mask-type:alpha" maskUnits="userSpaceOnUse" x="0" y="0" width="24" height="24">
<rect width="24" height="24" fill="#D9D9D9"/>
</mask>
<g mask="url(#mask0_409_1252)">
<path d="M5 15.9997V16.4163C5 16.7636 4.87847 17.0587 4.63542 17.3018C4.39236 17.5448 4.09722 17.6663 3.75 17.6663C3.40278 17.6663 3.10764 17.5448 2.86458 17.3018C2.62153 17.0587 2.5 16.7636 2.5 16.4163V10.458C2.5 10.3608 2.50694 10.2636 2.52083 10.1663C2.53472 10.0691 2.55556 9.97884 2.58333 9.89551L4.14583 5.45801C4.25694 5.12467 4.45833 4.85384 4.75 4.64551C5.04167 4.43717 5.36806 4.33301 5.72917 4.33301H14.2708C14.6319 4.33301 14.9583 4.43717 15.25 4.64551C15.5417 4.85384 15.7431 5.12467 15.8542 5.45801L17.4167 9.89551C17.4444 9.97884 17.4653 10.0691 17.4792 10.1663C17.4931 10.2636 17.5 10.3608 17.5 10.458V16.4163C17.5 16.7636 17.3785 17.0587 17.1354 17.3018C16.8924 17.5448 16.5972 17.6663 16.25 17.6663C15.9028 17.6663 15.6076 17.5448 15.3646 17.3018C15.1215 17.0587 15 16.7636 15 16.4163V15.9997H5ZM4.83333 8.49967H15.1667L14.2917 5.99967H5.70833L4.83333 8.49967ZM6.25 13.4997C6.59722 13.4997 6.89236 13.3781 7.13542 13.1351C7.37847 12.892 7.5 12.5969 7.5 12.2497C7.5 11.9025 7.37847 11.6073 7.13542 11.3643C6.89236 11.1212 6.59722 10.9997 6.25 10.9997C5.90278 10.9997 5.60764 11.1212 5.36458 11.3643C5.12153 11.6073 5 11.9025 5 12.2497C5 12.5969 5.12153 12.892 5.36458 13.1351C5.60764 13.3781 5.90278 13.4997 6.25 13.4997ZM13.75 13.4997C14.0972 13.4997 14.3924 13.3781 14.6354 13.1351C14.8785 12.892 15 12.5969 15 12.2497C15 11.9025 14.8785 11.6073 14.6354 11.3643C14.3924 11.1212 14.0972 10.9997 13.75 10.9997C13.4028 10.9997 13.1076 11.1212 12.8646 11.3643C12.6215 11.6073 12.5 11.9025 12.5 12.2497C12.5 12.5969 12.6215 12.892 12.8646 13.1351C13.1076 13.3781 13.4028 13.4997 13.75 13.4997ZM4.16667 14.333H15.8333V10.1663H4.16667V14.333Z" fill="white"/>
</g>
</svg>
