<svg width="16" height="16" viewBox="0 0 16 16" fill="none" xmlns="http://www.w3.org/2000/svg">
<path d="M2 16.0001C1.45 16.0001 0.979333 15.8044 0.588 15.4131C0.196666 15.0217 0.000666667 14.5507 0 14.0001V12.0001C0 11.7167 0.0960001 11.4794 0.288 11.2881C0.48 11.0967 0.717333 11.0007 1 11.0001C1.28267 10.9994 1.52033 11.0954 1.713 11.2881C1.90567 11.4807 2.00133 11.7181 2 12.0001V14.0001H14V12.0001C14 11.7167 14.096 11.4794 14.288 11.2881C14.48 11.0967 14.7173 11.0007 15 11.0001C15.2827 10.9994 15.5203 11.0954 15.713 11.2881C15.9057 11.4807 16.0013 11.7181 16 12.0001V14.0001C16 14.5501 15.8043 15.0211 15.413 15.4131C15.0217 15.8051 14.5507 16.0007 14 16.0001H2ZM7 3.85006L5.125 5.72506C4.925 5.92506 4.68767 6.02106 4.413 6.01306C4.13833 6.00506 3.90067 5.90073 3.7 5.70006C3.51667 5.50006 3.42067 5.26673 3.412 5.00006C3.40333 4.7334 3.49933 4.50006 3.7 4.30006L7.3 0.700064C7.4 0.600064 7.50833 0.529397 7.625 0.488064C7.74167 0.446731 7.86667 0.425731 8 0.425064C8.13333 0.424398 8.25833 0.445397 8.375 0.488064C8.49167 0.530731 8.6 0.601397 8.7 0.700064L12.3 4.30006C12.5 4.50006 12.596 4.7334 12.588 5.00006C12.58 5.26673 12.484 5.50006 12.3 5.70006C12.1 5.90006 11.8627 6.0044 11.588 6.01306C11.3133 6.02173 11.0757 5.92573 10.875 5.72506L9 3.85006V11.0001C9 11.2834 8.904 11.5211 8.712 11.7131C8.52 11.9051 8.28267 12.0007 8 12.0001C7.71733 11.9994 7.48 11.9034 7.288 11.7121C7.096 11.5207 7 11.2834 7 11.0001V3.85006Z" fill="#222222"/>
</svg>
