<svg width="26" height="27" viewBox="0 0 26 27" fill="none" xmlns="http://www.w3.org/2000/svg">
<path d="M4.33334 19.9993C4.33334 18.8501 4.78989 17.7479 5.60255 16.9352C6.4152 16.1226 7.51741 15.666 8.66668 15.666H17.3333C18.4826 15.666 19.5848 16.1226 20.3975 16.9352C21.2101 17.7479 21.6667 18.8501 21.6667 19.9993C21.6667 20.574 21.4384 21.1251 21.0321 21.5314C20.6257 21.9377 20.0746 22.166 19.5 22.166H6.50001C5.92537 22.166 5.37427 21.9377 4.96795 21.5314C4.56162 21.1251 4.33334 20.574 4.33334 19.9993Z" stroke="white" stroke-width="2" stroke-linejoin="round"/>
<path d="M13 11.333C14.7949 11.333 16.25 9.87793 16.25 8.08301C16.25 6.28808 14.7949 4.83301 13 4.83301C11.2051 4.83301 9.75 6.28808 9.75 8.08301C9.75 9.87793 11.2051 11.333 13 11.333Z" stroke="white" stroke-width="2"/>
</svg>
