<svg width="29" height="28" viewBox="0 0 29 28" fill="none" xmlns="http://www.w3.org/2000/svg">
<ellipse cx="14.2639" cy="14.1415" rx="14.0049" ry="13.8392" fill="#DDDFE2"/>
<path d="M9.88745 18.1418C9.88745 17.511 10.1411 16.9059 10.5925 16.4599C11.0439 16.0138 11.6561 15.7632 12.2945 15.7632H17.1087C17.7471 15.7632 18.3594 16.0138 18.8108 16.4599C19.2622 16.9059 19.5158 17.511 19.5158 18.1418C19.5158 18.4572 19.389 18.7597 19.1633 18.9828C18.9376 19.2058 18.6315 19.3311 18.3123 19.3311H11.091C10.7718 19.3311 10.4657 19.2058 10.24 18.9828C10.0143 18.7597 9.88745 18.4572 9.88745 18.1418Z" stroke="white" stroke-width="1.1901" stroke-linejoin="round"/>
<path d="M14.7016 13.3846C15.6986 13.3846 16.5069 12.5859 16.5069 11.6006C16.5069 10.6154 15.6986 9.81665 14.7016 9.81665C13.7045 9.81665 12.8962 10.6154 12.8962 11.6006C12.8962 12.5859 13.7045 13.3846 14.7016 13.3846Z" stroke="white" stroke-width="1.1901"/>
</svg>
