<svg width="57" height="22" viewBox="0 0 57 22" fill="none" xmlns="http://www.w3.org/2000/svg">
<rect width="57" height="22" rx="4" fill="#16A34A" fill-opacity="0.1"/>
<path d="M7.72159 6.77273L10.1506 13.8807H10.2486L12.6776 6.77273H14.1009L10.9602 15.5H9.43892L6.2983 6.77273H7.72159ZM17.4237 15.6321C16.7788 15.6321 16.2234 15.4943 15.7575 15.2188C15.2944 14.9403 14.9364 14.5497 14.6836 14.0469C14.4336 13.5412 14.3086 12.9489 14.3086 12.2699C14.3086 11.5994 14.4336 11.0085 14.6836 10.4972C14.9364 9.9858 15.2887 9.58665 15.7404 9.29972C16.195 9.01278 16.7262 8.86932 17.3342 8.86932C17.7035 8.86932 18.0614 8.9304 18.408 9.05256C18.7546 9.17472 19.0657 9.36648 19.3413 9.62784C19.6168 9.8892 19.8342 10.2287 19.9933 10.6463C20.1523 11.0611 20.2319 11.5653 20.2319 12.1591V12.6108H15.0288V11.6562H18.9833C18.9833 11.321 18.9151 11.0241 18.7788 10.7656C18.6424 10.5043 18.4506 10.2983 18.2035 10.1477C17.9592 9.99716 17.6722 9.92188 17.3427 9.92188C16.9847 9.92188 16.6722 10.0099 16.4052 10.1861C16.141 10.3594 15.9364 10.5866 15.7915 10.8679C15.6495 11.1463 15.5785 11.4489 15.5785 11.7756V12.5213C15.5785 12.9588 15.6552 13.331 15.8086 13.6378C15.9648 13.9446 16.1822 14.179 16.4606 14.3409C16.739 14.5 17.0643 14.5795 17.4364 14.5795C17.6779 14.5795 17.8981 14.5455 18.0969 14.4773C18.2958 14.4062 18.4677 14.3011 18.6126 14.1619C18.7575 14.0227 18.8683 13.8509 18.945 13.6463L20.1509 13.8636C20.0543 14.2187 19.881 14.5298 19.631 14.7969C19.3839 15.0611 19.0728 15.267 18.6978 15.4148C18.3256 15.5597 17.9009 15.6321 17.4237 15.6321ZM21.6456 15.5V8.95455H22.8771V9.99432H22.9453C23.0646 9.64205 23.2749 9.36506 23.576 9.16335C23.88 8.95881 24.2237 8.85653 24.6072 8.85653C24.6868 8.85653 24.7805 8.85937 24.8885 8.86506C24.9993 8.87074 25.0859 8.87784 25.1484 8.88636V10.1051C25.0973 10.0909 25.0064 10.0753 24.8757 10.0582C24.745 10.0384 24.6143 10.0284 24.4837 10.0284C24.1825 10.0284 23.9141 10.0923 23.6783 10.2202C23.4453 10.3452 23.2607 10.5199 23.1243 10.7443C22.9879 10.9659 22.9197 11.2187 22.9197 11.5028V15.5H21.6456ZM26.2511 15.5V8.95455H27.5252V15.5H26.2511ZM26.8945 7.9446C26.6729 7.9446 26.4826 7.87074 26.3235 7.72301C26.1673 7.57244 26.0891 7.39347 26.0891 7.18608C26.0891 6.97585 26.1673 6.79687 26.3235 6.64915C26.4826 6.49858 26.6729 6.4233 26.8945 6.4233C27.1161 6.4233 27.305 6.49858 27.4613 6.64915C27.6204 6.79687 27.6999 6.97585 27.6999 7.18608C27.6999 7.39347 27.6204 7.57244 27.4613 7.72301C27.305 7.87074 27.1161 7.9446 26.8945 7.9446ZM32.3544 8.95455V9.97727H28.6555V8.95455H32.3544ZM29.6697 15.5V8.19602C29.6697 7.78693 29.7592 7.44744 29.9382 7.17756C30.1172 6.90483 30.3544 6.7017 30.6499 6.56818C30.9453 6.43182 31.2663 6.36364 31.6129 6.36364C31.8686 6.36364 32.0874 6.38494 32.2692 6.42756C32.451 6.46733 32.5859 6.50426 32.674 6.53835L32.3757 7.5696C32.3161 7.55256 32.2393 7.53267 32.1456 7.50994C32.0518 7.48437 31.9382 7.47159 31.8047 7.47159C31.495 7.47159 31.2734 7.5483 31.1399 7.7017C31.0092 7.85511 30.9439 8.0767 30.9439 8.36648V15.5H29.6697ZM33.669 15.5V8.95455H34.9432V15.5H33.669ZM34.3125 7.9446C34.0909 7.9446 33.9006 7.87074 33.7415 7.72301C33.5852 7.57244 33.5071 7.39347 33.5071 7.18608C33.5071 6.97585 33.5852 6.79687 33.7415 6.64915C33.9006 6.49858 34.0909 6.4233 34.3125 6.4233C34.5341 6.4233 34.723 6.49858 34.8793 6.64915C35.0384 6.79687 35.1179 6.97585 35.1179 7.18608C35.1179 7.39347 35.0384 7.57244 34.8793 7.72301C34.723 7.87074 34.5341 7.9446 34.3125 7.9446ZM39.4783 15.6321C38.8335 15.6321 38.2781 15.4943 37.8121 15.2188C37.3491 14.9403 36.9911 14.5497 36.7383 14.0469C36.4883 13.5412 36.3633 12.9489 36.3633 12.2699C36.3633 11.5994 36.4883 11.0085 36.7383 10.4972C36.9911 9.9858 37.3434 9.58665 37.7951 9.29972C38.2496 9.01278 38.7809 8.86932 39.3888 8.86932C39.7582 8.86932 40.1161 8.9304 40.4627 9.05256C40.8093 9.17472 41.1204 9.36648 41.396 9.62784C41.6715 9.8892 41.8888 10.2287 42.0479 10.6463C42.207 11.0611 42.2866 11.5653 42.2866 12.1591V12.6108H37.0835V11.6562H41.038C41.038 11.321 40.9698 11.0241 40.8335 10.7656C40.6971 10.5043 40.5053 10.2983 40.2582 10.1477C40.0138 9.99716 39.7269 9.92188 39.3974 9.92188C39.0394 9.92188 38.7269 10.0099 38.4599 10.1861C38.1957 10.3594 37.9911 10.5866 37.8462 10.8679C37.7042 11.1463 37.6332 11.4489 37.6332 11.7756V12.5213C37.6332 12.9588 37.7099 13.331 37.8633 13.6378C38.0195 13.9446 38.2369 14.179 38.5153 14.3409C38.7937 14.5 39.119 14.5795 39.4911 14.5795C39.7326 14.5795 39.9528 14.5455 40.1516 14.4773C40.3505 14.4062 40.5224 14.3011 40.6673 14.1619C40.8121 14.0227 40.9229 13.8509 40.9996 13.6463L42.2056 13.8636C42.109 14.2187 41.9357 14.5298 41.6857 14.7969C41.4386 15.0611 41.1275 15.267 40.7525 15.4148C40.3803 15.5597 39.9556 15.6321 39.4783 15.6321ZM46.1506 15.6278C45.6222 15.6278 45.1506 15.4929 44.7358 15.223C44.3239 14.9503 44 14.5625 43.7642 14.0597C43.5313 13.554 43.4148 12.9474 43.4148 12.2401C43.4148 11.5327 43.5327 10.9276 43.7685 10.4247C44.0071 9.92187 44.3338 9.53693 44.7486 9.26989C45.1634 9.00284 45.6335 8.86932 46.1591 8.86932C46.5653 8.86932 46.892 8.9375 47.1392 9.07386C47.3892 9.20739 47.5824 9.36364 47.7188 9.54261C47.858 9.72159 47.9659 9.87926 48.0426 10.0156H48.1193V6.77273H49.3935V15.5H48.1491V14.4815H48.0426C47.9659 14.6207 47.8551 14.7798 47.7102 14.9588C47.5682 15.1378 47.3722 15.294 47.1222 15.4276C46.8722 15.5611 46.5483 15.6278 46.1506 15.6278ZM46.4318 14.5412C46.7983 14.5412 47.108 14.4446 47.3608 14.2514C47.6165 14.0554 47.8097 13.7841 47.9403 13.4375C48.0739 13.0909 48.1406 12.6875 48.1406 12.2273C48.1406 11.7727 48.0753 11.375 47.9446 11.0341C47.8139 10.6932 47.6222 10.4276 47.3693 10.2372C47.1165 10.0469 46.804 9.9517 46.4318 9.9517C46.0483 9.9517 45.7287 10.0511 45.473 10.25C45.2173 10.4489 45.0241 10.7202 44.8935 11.0639C44.7656 11.4077 44.7017 11.7955 44.7017 12.2273C44.7017 12.6648 44.767 13.0582 44.8977 13.4077C45.0284 13.7571 45.2216 14.0341 45.4773 14.2386C45.7358 14.4403 46.054 14.5412 46.4318 14.5412Z" fill="#16A34A"/>
</svg>
