<svg width="30" height="14" viewBox="0 0 30 14" fill="none" xmlns="http://www.w3.org/2000/svg">
<g clip-path="url(#clip0_766_3451)">
<path d="M10.769 0.666491L7.05545 9.78451H4.6328L2.80534 2.50747C2.69455 2.06034 2.59826 1.89579 2.26111 1.70672C1.71002 1.3986 0.799943 1.11043 0 0.931167L0.0539574 0.666491H3.9544C4.45076 0.666491 4.89771 1.00666 5.01139 1.59565L5.97697 6.8724L8.36085 0.666491H10.769ZM14.0441 0.666491L12.1492 9.78451H9.85703L11.7522 0.666491H14.0441ZM20.2615 6.80751C20.271 4.40148 17.0292 4.26795 17.0503 3.19294C17.0581 2.86611 17.3605 2.51819 18.0227 2.42925C18.3506 2.38557 19.2567 2.35079 20.283 2.83749L20.6845 0.902772C20.1331 0.697509 19.4234 0.5 18.5407 0.5C16.275 0.5 14.6812 1.73865 14.6684 3.51372C14.6536 4.82672 15.8069 5.55848 16.6742 5.99581C17.5675 6.44237 17.8671 6.7294 17.863 7.12852C17.8566 7.74032 17.1495 8.01115 16.4921 8.02119C15.3394 8.04 14.6712 7.70052 14.1382 7.44497L13.7221 9.44377C14.2584 9.6967 15.2467 9.91645 16.2703 9.92762C18.679 9.92762 20.2544 8.70312 20.2615 6.80751ZM26.2445 9.78462H28.3636L26.5122 0.666491H24.557C24.1161 0.666491 23.7455 0.929912 23.581 1.33485L20.142 9.78451H22.5488L23.0262 8.42247H25.9667L26.2445 9.78462ZM23.6862 6.55412L24.893 3.12999L25.5862 6.55412H23.6862ZM16.9775 12.2944H16.0462V13.1865H17.0879V13.4547H15.7324V10.9798H17.0345V11.248H16.0462V12.03H16.9774L16.9775 12.2944ZM17.5691 10.8478H17.8828V13.4546H17.5691V10.8478ZM18.6746 12.6248C18.6817 13.0619 18.9493 13.2417 19.2667 13.2417C19.4916 13.2417 19.6306 13.2013 19.745 13.15L19.8019 13.3814C19.6913 13.4327 19.4988 13.4951 19.2239 13.4951C18.6925 13.4951 18.3751 13.1317 18.3751 12.5955C18.3751 12.0595 18.6817 11.6408 19.1848 11.6408C19.7521 11.6408 19.8983 12.1477 19.8983 12.4744C19.8983 12.5404 19.8947 12.5881 19.8875 12.6249L18.6746 12.6248ZM19.595 12.3935C19.5986 12.1917 19.513 11.8722 19.1597 11.8722C18.8387 11.8722 18.703 12.1696 18.678 12.3935H19.595ZM21.6063 13.3922C21.5243 13.4327 21.3423 13.4952 21.1105 13.4952C20.5897 13.4952 20.2508 13.1317 20.2508 12.5882C20.2508 12.041 20.6145 11.6409 21.1782 11.6409C21.3637 11.6409 21.5278 11.6884 21.6134 11.7363L21.5423 11.9823C21.4671 11.9419 21.3494 11.8977 21.1782 11.8977C20.7821 11.8977 20.5683 12.2025 20.5683 12.5699C20.5683 12.981 20.8251 13.2344 21.1676 13.2344C21.346 13.2344 21.4636 13.1904 21.5528 13.15L21.6063 13.3922ZM22.4869 11.2516V11.6775H22.9363V11.9234H22.4869V12.8818C22.4869 13.1024 22.5477 13.227 22.7224 13.227C22.8079 13.227 22.858 13.2198 22.9044 13.2049L22.9187 13.4512C22.858 13.4731 22.7617 13.4951 22.6404 13.4951C22.494 13.4951 22.3763 13.4437 22.3015 13.3594C22.2158 13.2601 22.1801 13.1024 22.1801 12.893V11.9234H21.9125V11.6775H22.1801V11.347L22.4869 11.2516ZM23.3747 12.232C23.3747 12.0227 23.371 11.8428 23.3604 11.6775H23.6352L23.6496 12.0299H23.66C23.7387 11.7914 23.9312 11.6408 24.1416 11.6408C24.1738 11.6408 24.1988 11.6445 24.2274 11.6481V11.953C24.1953 11.9455 24.1633 11.9455 24.1202 11.9455C23.8992 11.9455 23.742 12.1144 23.6994 12.3569C23.692 12.4067 23.6884 12.4571 23.6886 12.5074V13.4548H23.3747V12.232ZM26.1569 12.5513C26.1569 13.2086 25.7109 13.4951 25.2972 13.4951C24.8333 13.4951 24.4695 13.1425 24.4695 12.5809C24.4695 11.9896 24.8512 11.6409 25.3257 11.6409C25.8215 11.6409 26.1569 12.0114 26.1569 12.5513ZM24.7905 12.5699C24.7905 12.9591 25.0045 13.253 25.3113 13.253C25.6111 13.253 25.8357 12.9627 25.8357 12.5625C25.8357 12.2615 25.6895 11.8831 25.3184 11.8831C24.9511 11.8831 24.7905 12.2358 24.7905 12.5699ZM26.638 12.1586C26.638 11.9715 26.6342 11.8245 26.6236 11.6777H26.9019L26.9198 11.9715H26.9268C27.0125 11.8061 27.2123 11.641 27.4977 11.641C27.7365 11.641 28.1077 11.7879 28.1077 12.3972V13.4548H27.7938V12.4304C27.7938 12.1441 27.6903 11.9052 27.3943 11.9052C27.1909 11.9052 27.0302 12.0559 26.9734 12.2357C26.959 12.2762 26.9519 12.3311 26.9519 12.3863V13.4548H26.638V12.1586Z" fill="#1A1F71"/>
</g>
<defs>
<clipPath id="clip0_766_3451">
<rect width="29.193" height="13" fill="white" transform="translate(0 0.5)"/>
</clipPath>
</defs>
</svg>
