<svg width="24" height="11" viewBox="0 0 24 11" fill="none" xmlns="http://www.w3.org/2000/svg">
<g clip-path="url(#clip0_253_1466)">
<path d="M9.1843 0.230668L6.34821 7.19426H4.49799L3.10233 1.63666C3.01771 1.29518 2.94418 1.1695 2.68669 1.02511C2.26581 0.789789 1.57077 0.569712 0.959839 0.432805L1.00105 0.230668H3.97988C4.35897 0.230668 4.70031 0.490459 4.78712 0.940282L5.52456 4.97023L7.34516 0.230668H9.1843ZM11.6856 0.230668L10.2384 7.19426H8.48782L9.93519 0.230668H11.6856ZM16.4339 4.92067C16.4412 3.08315 13.9653 2.98116 13.9815 2.16016C13.9874 1.91056 14.2184 1.64484 14.7241 1.57691C14.9745 1.54356 15.6665 1.517 16.4503 1.8887L16.757 0.41112C16.3358 0.254357 15.7939 0.103516 15.1197 0.103516C13.3893 0.103516 12.1721 1.04949 12.1624 2.40515C12.151 3.40791 13.0318 3.96677 13.6942 4.30076C14.3765 4.64181 14.6053 4.86101 14.6021 5.16583C14.5972 5.63307 14.0572 5.83991 13.5552 5.84758C12.6748 5.86195 12.1645 5.60268 11.7574 5.40751L11.4397 6.93403C11.8492 7.1272 12.604 7.29502 13.3858 7.30356C15.2253 7.30356 16.4285 6.36838 16.4339 4.92067ZM21.0032 7.19434H22.6216L21.2077 0.230668H19.7145C19.3777 0.230668 19.0947 0.431847 18.9691 0.741106L16.3426 7.19426H18.1807L18.5453 6.15405H20.7911L21.0032 7.19434ZM19.0494 4.72716L19.971 2.11209L20.5005 4.72716H19.0494ZM13.9259 9.11112H13.2146V9.79243H14.0101V9.99727H12.9749V8.10714H13.9694V8.31198H13.2146V8.90916H13.9258L13.9259 9.11112ZM14.3776 8.00629H14.6173V9.99718H14.3776V8.00629ZM15.2219 9.36342C15.2274 9.69724 15.4318 9.83458 15.6741 9.83458C15.8459 9.83458 15.9521 9.80375 16.0394 9.76456L16.0829 9.94127C15.9985 9.98046 15.8514 10.0281 15.6415 10.0281C15.2356 10.0281 14.9932 9.75054 14.9932 9.34104C14.9932 8.93172 15.2274 8.61192 15.6116 8.61192C16.0448 8.61192 16.1565 8.99904 16.1565 9.24855C16.1565 9.29898 16.1537 9.33538 16.1482 9.36351L15.2219 9.36342ZM15.9248 9.1868C15.9276 9.03265 15.8622 8.78862 15.5925 8.78862C15.3473 8.78862 15.2437 9.01576 15.2246 9.1868H15.9248ZM17.461 9.94954C17.3984 9.98046 17.2593 10.0282 17.0823 10.0282C16.6845 10.0282 16.4257 9.75054 16.4257 9.33547C16.4257 8.91761 16.7035 8.61201 17.134 8.61201C17.2757 8.61201 17.401 8.64832 17.4664 8.6849L17.4121 8.87276C17.3546 8.84192 17.2647 8.80813 17.134 8.80813C16.8315 8.80813 16.6682 9.04093 16.6682 9.32153C16.6682 9.63549 16.8643 9.82901 17.1259 9.82901C17.2621 9.82901 17.352 9.79539 17.4201 9.76456L17.461 9.94954ZM18.1335 8.31468V8.63996H18.4767V8.82773H18.1335V9.55973C18.1335 9.72816 18.1799 9.82335 18.3133 9.82335C18.3786 9.82335 18.4169 9.81786 18.4523 9.80645L18.4633 9.99457C18.4169 10.0113 18.3434 10.0281 18.2507 10.0281C18.1389 10.0281 18.049 9.98882 17.9919 9.92446C17.9264 9.84861 17.8992 9.72816 17.8992 9.56826V8.82773H17.6948V8.63996H17.8992V8.38757L18.1335 8.31468ZM18.8115 9.06348C18.8115 8.90358 18.8087 8.76624 18.8006 8.63996H19.0105L19.0215 8.90907H19.0294C19.0895 8.72696 19.2365 8.61192 19.3972 8.61192C19.4218 8.61192 19.4409 8.61479 19.4627 8.61749V8.85037C19.4382 8.84462 19.4138 8.84462 19.3808 8.84462C19.2121 8.84462 19.092 8.97361 19.0595 9.15885C19.0538 9.19689 19.0511 9.23533 19.0513 9.27381V9.99736H18.8115V9.06348ZM20.9363 9.30734C20.9363 9.80933 20.5957 10.0281 20.2797 10.0281C19.9254 10.0281 19.6476 9.75881 19.6476 9.32989C19.6476 8.87833 19.9391 8.61201 20.3015 8.61201C20.6802 8.61201 20.9363 8.89496 20.9363 9.30734ZM19.8928 9.32153C19.8928 9.61877 20.0562 9.84321 20.2905 9.84321C20.5195 9.84321 20.691 9.62147 20.691 9.31587C20.691 9.08595 20.5793 8.79699 20.296 8.79699C20.0155 8.79699 19.8928 9.06636 19.8928 9.32153ZM21.3037 9.0074C21.3037 8.86448 21.3009 8.75222 21.2927 8.64014H21.5053L21.5189 8.86448H21.5243C21.5897 8.7382 21.7423 8.61209 21.9603 8.61209C22.1427 8.61209 22.4262 8.72427 22.4262 9.18959V9.99736H22.1865V9.21493C22.1865 8.99634 22.1074 8.81388 21.8813 8.81388C21.726 8.81388 21.6033 8.92893 21.5599 9.06627C21.5489 9.09719 21.5435 9.13916 21.5435 9.18132V9.99736H21.3037V9.0074Z" fill="#1A1F71"/>
</g>
<defs>
<clipPath id="clip0_253_1466">
<rect width="22.2952" height="9.92833" fill="white" transform="translate(0.959839 0.103516)"/>
</clipPath>
</defs>
</svg>
