<svg width="64" height="55" viewBox="0 0 64 55" fill="none" xmlns="http://www.w3.org/2000/svg">
<path d="M26.6496 27.6214C24.8602 26.8875 23.2521 25.7855 21.913 24.406C19.3736 21.7893 17.803 18.174 17.803 14.1809C17.803 10.1883 19.3736 6.57305 21.913 3.95633C24.4729 1.31879 28.1544 0 31.8361 0C35.5173 0 39.199 1.31879 41.7586 3.95633C44.298 6.57301 45.8689 10.1883 45.8689 14.1809C45.8689 18.174 44.298 21.7893 41.7586 24.406C40.4199 25.7855 38.8114 26.8874 37.0224 27.6214C35.366 28.3004 33.6011 28.6408 31.8361 28.6408C30.0705 28.6408 28.3062 28.3004 26.6496 27.6214ZM31.8362 2.88351C28.8958 2.88351 25.9555 3.93672 23.9114 6.0437C22.6943 7.29746 21.7559 8.83886 21.1999 10.5604C21.0464 11.1385 21.2512 11.4114 21.8136 11.3801C23.6581 11.3072 27.6326 11.2489 28.4491 11.2066C27.7478 12.0261 27.3228 13.1019 27.3228 14.28C27.3228 15.5641 27.8279 16.727 28.6447 17.5686C28.936 17.8692 29.2676 18.1286 29.6298 18.3378C30.3123 18.7329 31.074 18.9303 31.8362 18.9307C32.5981 18.9304 33.3597 18.7329 34.0422 18.3378C34.4044 18.1286 34.7357 17.8692 35.0273 17.5686C35.8441 16.727 36.3491 15.5641 36.3491 14.28C36.3491 13.102 35.9238 12.026 35.2232 11.2066C36.0393 11.2489 40.0139 11.3072 41.8581 11.3801C42.4206 11.4114 42.6256 11.1385 42.4718 10.5604C41.9161 8.8389 40.9776 7.29749 39.7602 6.0437C37.7161 3.93668 34.7761 2.88351 31.8361 2.88351H31.8362ZM34.3683 11.6752C33.0617 10.3288 30.6098 10.3288 29.3032 11.6752C28.6553 12.3429 28.2544 13.2656 28.2544 14.2845C28.2544 15.304 28.6553 16.2265 29.3032 16.8944C29.553 17.1514 29.839 17.3711 30.1533 17.5434C31.1974 18.1169 32.4745 18.1169 33.5186 17.5434C33.8326 17.3711 34.119 17.1514 34.3684 16.8944C35.0166 16.2265 35.4175 15.304 35.4175 14.2845C35.4176 13.2657 35.0166 12.3429 34.3684 11.6752H34.3683ZM32.4862 15.6475C32.9761 15.3996 33.3133 14.8801 33.3133 14.2799C33.3133 13.6438 32.9344 13.0988 32.3966 12.8713C32.0407 12.7207 31.6314 12.7207 31.2754 12.8713C30.7376 13.0989 30.3587 13.6439 30.3587 14.2799C30.3587 14.8801 30.6956 15.3996 31.1855 15.6475C31.5914 15.8523 32.0808 15.8523 32.4862 15.6475ZM34.1618 25.5076C36.3232 25.0378 38.2552 23.926 39.7602 22.375C41.3327 20.7548 42.4395 18.6555 42.858 16.3081C43.0087 15.6714 42.7428 15.4763 42.2771 15.4916C41.3378 15.4711 40.3981 15.4751 39.5026 15.649C36.3119 16.2688 35.1708 17.8554 34.6062 21.5078C34.4011 22.8345 34.2708 24.387 34.1618 25.5076H34.1618ZM29.5098 25.5076C29.4012 24.387 29.2705 22.8345 29.0657 21.5078C28.5011 17.8554 27.3597 16.2689 24.1691 15.649C23.2738 15.4751 22.3338 15.4711 21.3945 15.4916C20.929 15.4763 20.6629 15.6713 20.8138 16.3081C21.232 18.6555 22.3392 20.7548 23.9113 22.375C25.4167 23.926 27.3484 25.0377 29.5098 25.5076Z" fill="white"/>
<path d="M1.10826 49.8301V38.4309H5.81834C5.92917 38.4309 6.07166 38.4362 6.24581 38.4467C6.41996 38.452 6.58092 38.4678 6.72869 38.4942C7.38837 38.5945 7.93194 38.8135 8.35941 39.1512C8.79216 39.489 9.11144 39.9165 9.31726 40.4337C9.52836 40.9456 9.6339 41.5155 9.6339 42.1435C9.6339 43.0724 9.39906 43.8719 8.92937 44.5421C8.45968 45.2071 7.73932 45.6187 6.76827 45.777L5.95291 45.8483H3.01604V49.8301H1.10826ZM7.65488 49.8301L5.4067 45.1912L7.34615 44.7638L9.81597 49.8301H7.65488ZM3.01604 44.0672H5.73918C5.84473 44.0672 5.96347 44.0619 6.0954 44.0513C6.22734 44.0408 6.34872 44.0197 6.45954 43.988C6.77619 43.9088 7.02423 43.769 7.20366 43.5684C7.38837 43.3679 7.51766 43.141 7.59155 42.8877C7.67071 42.6343 7.71029 42.3863 7.71029 42.1435C7.71029 41.9008 7.67071 41.6527 7.59155 41.3994C7.51766 41.1408 7.38837 40.9113 7.20366 40.7107C7.02423 40.5102 6.77619 40.3703 6.45954 40.2912C6.34872 40.2595 6.22734 40.241 6.0954 40.2358C5.96347 40.2252 5.84473 40.2199 5.73918 40.2199H3.01604V44.0672ZM11.56 49.8301V38.4309H18.922V40.2199H13.4678V43.0301H17.972V44.8192H13.4678V48.041H18.922V49.8301H11.56ZM20.8212 49.8301V38.4309H22.7527L28.0407 46.4657V38.4309H29.9722V49.8301H28.0407L22.7527 41.7952V49.8301H20.8212ZM37.0061 50.0676C35.8662 50.0676 34.8898 49.8195 34.0771 49.3234C33.2644 48.8221 32.639 48.1255 32.201 47.2336C31.7682 46.3417 31.5519 45.3073 31.5519 44.1305C31.5519 42.9536 31.7682 41.9192 32.201 41.0274C32.639 40.1355 33.2644 39.4415 34.0771 38.9454C34.8898 38.4441 35.8662 38.1934 37.0061 38.1934C38.3201 38.1934 39.4152 38.5232 40.2913 39.1829C41.1673 39.8373 41.7821 40.7213 42.1357 41.8348L40.2121 42.3652C39.9904 41.6211 39.6131 41.0406 39.0801 40.6236C38.5471 40.2015 37.8557 39.9904 37.0061 39.9904C36.2408 39.9904 35.6023 40.1619 35.0904 40.5049C34.5837 40.8479 34.2011 41.3308 33.9425 41.9536C33.6892 42.571 33.5599 43.2967 33.5547 44.1305C33.5547 44.9643 33.6813 45.6926 33.9346 46.3153C34.1932 46.9328 34.5785 47.413 35.0904 47.7561C35.6023 48.0991 36.2408 48.2706 37.0061 48.2706C37.8557 48.2706 38.5471 48.0595 39.0801 47.6373C39.6131 47.2151 39.9904 46.6346 40.2121 45.8958L42.1357 46.4262C41.7821 47.5397 41.1673 48.4263 40.2913 49.086C39.4152 49.7404 38.3201 50.0676 37.0061 50.0676ZM42.773 49.8301L46.3669 38.4309H49.1613L52.7552 49.8301H50.792L47.5305 39.6025H47.958L44.7362 49.8301H42.773ZM44.7757 47.3603V45.5791H50.7603V47.3603H44.7757ZM54.1864 49.8301V38.4309H58.8965C59.0073 38.4309 59.1498 38.4362 59.3239 38.4467C59.4981 38.452 59.659 38.4678 59.8068 38.4942C60.4665 38.5945 61.0101 38.8135 61.4375 39.1512C61.8703 39.489 62.1896 39.9165 62.3954 40.4337C62.6065 40.9456 62.712 41.5155 62.712 42.1435C62.712 43.0724 62.4772 43.8719 62.0075 44.5421C61.5378 45.2071 60.8174 45.6187 59.8464 45.777L59.031 45.8483H56.0942V49.8301H54.1864ZM60.733 49.8301L58.4848 45.1912L60.4243 44.7638L62.8941 49.8301H60.733ZM56.0942 44.0672H58.8173C58.9228 44.0672 59.0416 44.0619 59.1735 44.0513C59.3055 44.0408 59.4268 44.0197 59.5377 43.988C59.8543 43.9088 60.1023 43.769 60.2818 43.5684C60.4665 43.3679 60.5958 43.141 60.6697 42.8877C60.7488 42.6343 60.7884 42.3863 60.7884 42.1435C60.7884 41.9008 60.7488 41.6527 60.6697 41.3994C60.5958 41.1408 60.4665 40.9113 60.2818 40.7107C60.1023 40.5102 59.8543 40.3703 59.5377 40.2912C59.4268 40.2595 59.3055 40.241 59.1735 40.2358C59.0416 40.2252 58.9228 40.2199 58.8173 40.2199H56.0942V44.0672Z" fill="white"/>
</svg>
