<svg width="36" height="36" viewBox="0 0 36 36" fill="none" xmlns="http://www.w3.org/2000/svg">
<rect width="36" height="36" rx="18" fill="#DC2626" fill-opacity="0.1"/>
<mask id="mask0_253_1286" style="mask-type:alpha" maskUnits="userSpaceOnUse" x="6" y="6" width="24" height="24">
<rect x="6" y="6" width="24" height="24" fill="#D9D9D9"/>
</mask>
<g mask="url(#mask0_253_1286)">
<mask id="mask1_253_1286" style="mask-type:alpha" maskUnits="userSpaceOnUse" x="6" y="5" width="24" height="25">
<rect x="6" y="5.875" width="24" height="24" fill="#D9D9D9"/>
</mask>
<g mask="url(#mask1_253_1286)">
<path d="M26 12.2504V16.9754C26 17.5587 25.9541 18.1379 25.8625 18.7129C25.7708 19.2879 25.6333 19.8587 25.45 20.4254C25.3333 20.7754 25.15 21.0046 24.9 21.1129C24.65 21.2212 24.4083 21.2337 24.175 21.1504C23.9416 21.0671 23.7458 20.9212 23.5875 20.7129C23.4291 20.5046 23.4 20.2504 23.5 19.9504C23.6666 19.4837 23.7916 18.9962 23.875 18.4879C23.9583 17.9796 24 17.4754 24 16.9754V12.2504L18 10.0004L14.95 11.1504C14.7666 11.2171 14.5791 11.2296 14.3875 11.1879C14.1958 11.1462 14.0333 11.0587 13.9 10.9254C13.6333 10.6587 13.5416 10.3504 13.625 10.0004C13.7083 9.65039 13.9166 9.40872 14.25 9.27539L17.3 8.15039C17.5333 8.06706 17.7666 8.02539 18 8.02539C18.2333 8.02539 18.4666 8.06706 18.7 8.15039L24.7 10.4004C25.0833 10.5504 25.3958 10.7921 25.6375 11.1254C25.8791 11.4587 26 11.8337 26 12.2504ZM18 27.7754C17.9333 27.7754 17.725 27.7421 17.375 27.6754C15.125 26.9254 13.3333 25.5379 12 23.5129C10.6666 21.4879 9.99995 19.3087 9.99995 16.9754V12.6754L8.09995 10.7754C7.91662 10.5921 7.82495 10.3587 7.82495 10.0754C7.82495 9.79206 7.91662 9.55872 8.09995 9.37539C8.28328 9.19206 8.51662 9.10039 8.79995 9.10039C9.08328 9.10039 9.31662 9.19206 9.49995 9.37539L26.5 26.3754C26.6833 26.5587 26.775 26.7921 26.775 27.0754C26.775 27.3587 26.6833 27.5921 26.5 27.7754C26.3166 27.9587 26.0833 28.0504 25.8 28.0504C25.5166 28.0504 25.2833 27.9587 25.1 27.7754L22.55 25.2254C22 25.8087 21.3958 26.3004 20.7375 26.7004C20.0791 27.1004 19.375 27.4254 18.625 27.6754C18.525 27.7087 18.425 27.7337 18.325 27.7504C18.225 27.7671 18.1166 27.7754 18 27.7754ZM18 25.7754C18.5833 25.5921 19.1416 25.3337 19.675 25.0004C20.2083 24.6671 20.7 24.2754 21.15 23.8254L12 14.6754V16.9754C12 18.9921 12.5666 20.8254 13.7 22.4754C14.8333 24.1254 16.2666 25.2254 18 25.7754Z" fill="#DC2626"/>
</g>
</g>
</svg>
